SplineFontDB: 3.0
FontName: AnkaCoder-C75-b
FullName: Anka/Coder Narrow Bold
FamilyName: Anka/Coder Narrow
Weight: Bold
Copyright: Copyright (c) 2010, Andrey Makarov (makarov@bmstu.ru, mka-at-mailru@mail.ru),\nwith Reserved Font Name Anka/Coder Narrow.\n---------------------------------\nThe Anka/* are members of Anna Shugol name font family; March 2010
Version: 001.000
ItalicAngle: 0
UnderlinePosition: -292
UnderlineWidth: 150
Ascent: 1638
Descent: 410
LayerCount: 2
Layer: 0 0 "Back"  1
Layer: 1 0 "Fore"  0
XUID: [1021 77 1780377344 3511164]
UseXUID: 1
BaseHoriz: 0
FSType: 8
OS2Version: 1
OS2_WeightWidthSlopeOnly: 0
OS2_UseTypoMetrics: 1
CreationTime: 1260467214
ModificationTime: 1268390360
PfmFamily: 49
TTFWeight: 700
TTFWidth: 3
LineGap: 0
VLineGap: 0
Panose: 2 11 8 9 2 5 2 2 2 4
OS2TypoAscent: 0
OS2TypoAOffset: 1
OS2TypoDescent: 0
OS2TypoDOffset: 1
OS2TypoLinegap: 0
OS2WinAscent: 0
OS2WinAOffset: 1
OS2WinDescent: 0
OS2WinDOffset: 1
HheadAscent: 0
HheadAOffset: 1
HheadDescent: 0
HheadDOffset: 1
OS2SubXSize: 553
OS2SubYSize: 1229
OS2SubXOff: 0
OS2SubYOff: 283
OS2SupXSize: 553
OS2SupYSize: 1229
OS2SupXOff: 0
OS2SupYOff: 977
OS2StrikeYSize: 102
OS2StrikeYPos: 530
OS2FamilyClass: 1285
OS2Vendor: 'AVM1'
OS2CodePages: 40000097.cfd60000
OS2UnicodeRanges: 800002ef.000079eb.00000000.00000000
MacStyle: 1
DEI: 91125
ShortTable: maxp 16
  0
  0
  0
  0
  0
  0
  0
  2
  1
  0
  9
  0
  256
  0
  0
  0
EndShort
TtTable: prep
PUSHW_1
 511
SCANCTRL
SVTCA[y-axis]
MPPEM
PUSHB_1
 8
LT
IF
PUSHB_2
 1
 1
INSTCTRL
EIF
PUSHB_2
 70
 6
CALL
IF
POP
PUSHB_1
 16
EIF
MPPEM
PUSHB_1
 20
GT
IF
POP
PUSHB_1
 128
EIF
SCVTCI
PUSHB_1
 6
CALL
NOT
IF
EIF
EndTTInstrs
TtTable: fpgm
PUSHB_1
 0
FDEF
PUSHB_1
 0
SZP0
MPPEM
PUSHB_1
 42
LT
IF
PUSHB_1
 74
SROUND
EIF
PUSHB_1
 0
SWAP
MIAP[rnd]
RTG
PUSHB_1
 6
CALL
IF
RTDG
EIF
MPPEM
PUSHB_1
 42
LT
IF
RDTG
EIF
DUP
MDRP[rp0,rnd,grey]
PUSHB_1
 1
SZP0
MDAP[no-rnd]
RTG
ENDF
PUSHB_1
 1
FDEF
DUP
DUP
MDRP[rp0,min,white]
MDAP[rnd]
PUSHB_1
 7
CALL
NOT
IF
DUP
DUP
GC[orig]

StartChar: exclam
Encoding: 33 33 1
Width: 922
VWidth: 1708
GlyphClass: 2
Flags: W
HStem: -23 236<363.831 557.094> 1398 20G<428.5 489>
VStem: 336 249<6.3129 184.037 1384.21 1392.37> 371 182<384 808.823>
LayerCount: 2
Fore
SplineSet
585 95 m 0xe0
 585 26 526 -23 460 -23 c 0
 396 -23 336 27 336 95 c 0
 336 157 390 213 460 213 c 0
 525 213 585 165 585 95 c 0xe0
457 1418 m 0
 521 1418 583 1370 583 1273 c 1
 553 384 l 1
 371 384 l 1xd0
 341 1274 l 1
 341 1370 400 1418 457 1418 c 0
EndSplineSet
Validated: 3073
EndChar

StartChar: quotedbl
Encoding: 34 34 2
Width: 922
VWidth: 1708
GlyphClass: 2
Flags: W
HStem: 1038 388<198.876 277.25 608.876 687.25>
VStem: 122 268<1120 1319> 532 268<1120 1319>
LayerCount: 2
Fore
SplineSet
274 1077 m 6
 262 1055 228 1038 198 1038 c 7
 148 1038 122 1085 122 1120 c 7
 122 1125 124 1134 125 1139 c 6
 180 1347 l 6
 191 1388 240 1426 290 1426 c 7
 356 1426 390 1374 390 1319 c 7
 390 1301 386 1278 378 1265 c 6
 274 1077 l 6
684 1077 m 6
 672 1055 638 1038 608 1038 c 7
 558 1038 532 1085 532 1120 c 7
 532 1125 534 1134 535 1139 c 6
 590 1347 l 6
 601 1388 650 1426 700 1426 c 7
 766 1426 800 1374 800 1319 c 7
 800 1301 796 1278 788 1265 c 6
 684 1077 l 6
EndSplineSet
EndChar

StartChar: numbersign
Encoding: 35 35 3
Width: 922
VWidth: 1708
GlyphClass: 2
Flags: W
HStem: -0 21G<93 280.654 463 650.654> 324 184<44 136 346 506 716 811> 864 184<116 208 418 578 788 883>
VStem: 93 185<0 185> 270 185<1148 1333> 463 185<0 185> 640 185<1148 1333>
DStem2: 93 -0 278 -0 0.131628 0.991299<24.3512 326.841 536.882 871.62 1081.66 1344.7> 463 -0 648 -0 0.131628 0.991299<24.3512 326.841 536.882 871.62 1081.66 1344.7>
LayerCount: 2
Fore
SplineSet
346 508 m 1xe0
 530 508 l 1
 578 864 l 1
 393 864 l 1
 346 508 l 1xe0
278 -0 m 1xf4
 216 -0 154 -0 93 -0 c 1
 136 324 l 1
 19 324 l 1
 44 508 l 1
 160 508 l 1
 208 864 l 1
 93 864 l 1xf4
 116 1048 l 1
 232 1048 l 1
 270 1333 l 1
 455 1333 l 1
 418 1048 l 1
 602 1048 l 1
 640 1333 l 1
 825 1333 l 1xea
 788 1048 l 1
 908 1048 l 1
 883 864 l 1
 763 864 l 1
 716 508 l 1
 836 508 l 1
 811 324 l 1
 691 324 l 1
 648 -0 l 1
 586 -0 524 -0 463 -0 c 1
 506 324 l 1
 321 324 l 1
 278 -0 l 1xf4
EndSplineSet
Validated: 3073
EndChar

StartChar: dollar
Encoding: 36 36 4
Width: 922
VWidth: 2334
GlyphClass: 2
Flags: W
VStem: 47 184<251.277 357> 96 184<930.479 1184.63> 369 184<-93 -16 177 595 896 1220 1416 1494> 668 184<228.459 516.539 1063 1173.93>
DStem2: 369 896 278 736 0.892457 -0.451132<-114.035 0>
LayerCount: 2
Fore
SplineSet
553 -93 m 1x70
 369 -93 l 1
 369 -16 l 1
 196 23 47 177 47 357 c 1
 231 357 l 1xb0
 231 280 294 209 369 177 c 1
 369 690 l 1
 278 736 l 2
 152 800 96 928 96 1033 c 2
 96 1063 l 2
 96 1235 207 1377 369 1415 c 1
 369 1494 l 1
 553 1494 l 1
 553 1416 l 1
 745 1377 848 1225 848 1063 c 1
 664 1063 l 1
 664 1160 598 1207 553 1225 c 1
 553 802 l 1
 626 765 l 2
 790 674 852 491 852 367 c 2
 852 337 l 2
 852 164 724 20 553 -16 c 1
 553 -93 l 1x70
553 595 m 1
 553 176 l 1
 620 204 668 265 668 337 c 2
 668 367 l 2
 668 447 628 545 553 595 c 1
369 896 m 1
 369 1220 l 1
 313 1191 280 1132 280 1063 c 2
 280 1033 l 2x70
 280 1000 293 935 369 896 c 1
EndSplineSet
Validated: 3073
EndChar

StartChar: percent
Encoding: 37 37 5
Width: 922
VWidth: 1708
GlyphClass: 2
Flags: W
HStem: -18 169<598.12 744.094> 352 169<597.547 742.53> 875 169<180.12 324.195> 1246 169<179.547 325.36>
VStem: 10 151<1062.39 1229.37> 343 151<1060.3 1230.27> 428 151<169.389 335.747> 760 152<164.814 336.882>
DStem2: 10 141 169 45 0.521194 0.853438<0.939835 1424.17>
LayerCount: 2
Fore
SplineSet
753 1356 m 1xf9
 911 1260 l 1
 169 45 l 1
 10 141 l 1
 753 1356 l 1xf9
161 1145 m 3
 161 1101 195 1044 252 1044 c 3
 309 1044 343 1098 343 1150 c 3xfd
 343 1180 315 1246 252 1246 c 3
 187 1246 161 1173 161 1145 c 3
252 875 m 3
 187 875 10 911 10 1145 c 3
 10 1304 101 1415 252 1415 c 3
 403 1415 494 1305 494 1145 c 3
 494 898 330 875 252 875 c 3
579 252 m 3xfb
 579 208 613 151 670 151 c 3
 721 151 760 195 760 252 c 3
 760 278 737 352 670 352 c 3
 605 352 579 280 579 252 c 3xfb
670 -18 m 3
 605 -18 428 18 428 252 c 3
 428 410 519 521 670 521 c 3
 821 521 912 413 912 252 c 3
 912 21 766 -18 670 -18 c 3
EndSplineSet
Validated: 3073
EndChar

StartChar: ampersand
Encoding: 38 38 6
Width: 922
VWidth: 2334
GlyphClass: 2
Flags: W
HStem: -25 184<302.451 555.503> 1241 184<376.672 557.734>
VStem: 47 184<227.235 504.621> 177 184<959.197 1108 1108 1225.55> 574 184<1014.59 1222.27>
DStem2: 286 785 379 621 0.731689 0.681639<-271.845 -43.7417 191.049 432.984> 518 750 379 621 0.482112 -0.87611<46.0046 336.554 675.697 793.417> 680 455 795 246 0.363776 0.931487<0 180.659>
LayerCount: 2
Fore
SplineSet
452 1241 m 2xd8
 378 1241 361 1185 361 1130 c 1
 361 1108 l 2
 361 1066 382 999 426 915 c 1
 506 990 l 2
 570 1050 574 1082 574 1098 c 2
 574 1125 l 2
 574 1233 501 1241 471 1241 c 2
 452 1241 l 2xd8
682 69 m 1
 614 5 531 -25 447 -25 c 2
 429 -25 l 2
 230 -25 47 127 47 337 c 2
 47 367 l 2xe8
 47 503 117 616 199 704 c 2
 286 785 l 1
 198 941 177 1040 177 1108 c 2
 177 1130 l 2
 177 1314 300 1425 452 1425 c 2
 471 1425 l 2
 654 1425 758 1276 758 1125 c 2
 758 1098 l 2
 752 1048 726 943 630 854 c 2
 518 750 l 1
 680 455 l 1
 746 624 l 1
 918 556 l 1
 795 246 l 1
 901 54 l 1
 739 -34 l 1
 682 69 l 1
588 241 m 1
 379 621 l 1
 329 574 l 2
 239 476 231 409 231 367 c 2
 231 337 l 2
 231 239 320 159 429 159 c 2
 447 159 l 2
 515 159 560 198 588 241 c 1
EndSplineSet
Validated: 3073
EndChar

StartChar: quotesingle
Encoding: 39 39 7
Width: 922
VWidth: 1708
GlyphClass: 2
Flags: W
HStem: 1038 388<403.183 481.312>
VStem: 326 270
LayerCount: 2
Fore
SplineSet
478 1077 m 6
 466 1055 434 1038 402 1038 c 7
 352 1038 326 1085 326 1120 c 7
 326 1125 326 1135 326 1139 c 6
 386 1347 l 6
 394 1388 444 1426 496 1426 c 7
 560 1426 596 1374 596 1319 c 7
 596 1301 592 1278 584 1265 c 6
 478 1077 l 6
EndSplineSet
EndChar

StartChar: parenleft
Encoding: 40 40 8
Width: 922
VWidth: 1708
GlyphClass: 2
Flags: W
VStem: 258 184<431.725 968.375>
LayerCount: 2
Fore
SplineSet
442 700 m 0
 442 395 611 140 797 -8 c 1
 683 -152 l 1
 464 21 258 325 258 700 c 0
 258 1075 464 1379 683 1552 c 1
 797 1408 l 1
 611 1261 442 1005 442 700 c 0
EndSplineSet
Validated: 3073
EndChar

StartChar: parenright
Encoding: 41 41 9
Width: 922
VWidth: 1708
GlyphClass: 2
Flags: W
VStem: 480 184<431.725 968.375>
LayerCount: 2
Fore
SplineSet
664 700 m 0
 664 325 458 21 239 -152 c 1
 125 -8 l 1
 311 140 480 395 480 700 c 0
 480 1005 311 1261 125 1408 c 1
 239 1552 l 1
 458 1379 664 1075 664 700 c 0
EndSplineSet
Validated: 3073
EndChar

StartChar: asterisk
Encoding: 42 42 10
Width: 922
VWidth: 1708
GlyphClass: 2
Flags: W
VStem: 369 184<727 1043.72>
DStem2: 142 800 85 625 0.951985 -0.306145<-28.6923 237.761> 172 359 321 251 0.589172 0.808008<-53.5153 238.143> 610 552 461 443 0.587174 -0.809461<0.742352 291.987> 553 727 610 552 0.951985 0.306145<0.68778 267.141>
LayerCount: 2
Fore
SplineSet
750 359 m 2
 762 343 768 324 768 305 c 0
 768 276 755 248 730 230 c 0
 714 218 695 213 677 213 c 0
 648 213 619 226 601 251 c 2
 461 443 l 1
 321 251 l 2
 303 226 274 213 245 213 c 0
 227 213 208 218 192 230 c 0
 167 248 154 276 154 305 c 0
 154 324 160 343 172 359 c 2
 312 552 l 1
 85 625 l 2
 46 638 22 674 22 713 c 0
 22 722 23 732 26 741 c 0
 39 780 75 805 113 805 c 0
 123 805 132 803 142 800 c 2
 369 727 l 1
 369 965 l 2
 369 1016 410 1057 461 1057 c 0
 512 1057 553 1016 553 965 c 2
 553 727 l 1
 780 800 l 2
 790 803 799 805 809 805 c 0
 847 805 883 780 896 741 c 0
 899 732 900 722 900 713 c 0
 900 674 876 638 837 625 c 2
 610 552 l 1
 750 359 l 2
EndSplineSet
Validated: 3073
EndChar

StartChar: plus
Encoding: 43 43 11
Width: 922
VWidth: 1708
GlyphClass: 2
Flags: W
HStem: 508 184<50 369 553 872>
VStem: 369 184<189 508 692 1011>
LayerCount: 2
Fore
SplineSet
872 692 m 1
 872 508 l 1
 553 508 l 1
 553 189 l 1
 369 189 l 1
 369 508 l 1
 50 508 l 1
 50 692 l 1
 369 692 l 1
 369 1011 l 1
 553 1011 l 1
 553 692 l 1
 872 692 l 1
EndSplineSet
Validated: 3073
EndChar

StartChar: comma
Encoding: 44 44 12
Width: 922
VWidth: 1947
GlyphClass: 2
Flags: W
HStem: -334 493<416.012 536>
VStem: 416 174<-198.343 64>
LayerCount: 2
Fore
SplineSet
379 -73 m 0
 349 -49 331 -11 331 29 c 0
 331 97 382 159 460 159 c 0
 536 159 590 99 590 29 c 0
 590 -102 576 -306 314 -334 c 1
 294 -260 l 1
 343 -242 416 -198 416 -141 c 0
 416 -120 405 -97 379 -73 c 0
EndSplineSet
Validated: 3073
EndChar

StartChar: hyphen
Encoding: 45 45 13
Width: 922
VWidth: 1708
GlyphClass: 2
Flags: W
HStem: 508 184<50 872>
LayerCount: 2
Fore
SplineSet
872 692 m 1
 872 508 l 1
 50 508 l 1
 50 692 l 1
 872 692 l 1
EndSplineSet
Validated: 3073
EndChar

StartChar: period
Encoding: 46 46 14
Width: 922
VWidth: 1708
GlyphClass: 2
Flags: W
HStem: -101 36<488 495 498 504 507 512 514 519 523 527 530 534> -51 6<491 496> -43 2<492 494> -39 2<491 494>
VStem: 466 4<-45 -39 -37 -35> 476 2<-45 -37> 480 2<-45 -37> 484 2<-45 -37> 488 2<-43 -41> 490 8<-57 -53> 492 2<-43 -41> 496 2<-63 -59 -53 -51> 504 2<-63 -57> 508 2<-63 -55> 512 2<-63 -57> 516 2<-63 -57> 520 2<-63 -57> 524 2<-63 -57> 528 2<-63 -57>
LayerCount: 2
Fore
SplineSet
534 -63 m 25xff8fe0
 532 -63 l 25
 532 -51 l 25
 530 -51 l 25
 530 -65 l 25
 534 -65 l 25
 534 -63 l 25xff8fe0
526 -63 m 9
 524 -63 l 17
 524 -57 l 9
 526 -57 l 1
 526 -63 l 9
464 -45 m 9
 466 -45 l 25
 466 -39 l 25
 470 -39 l 25
 470 -45 l 25
 472 -45 l 25
 472 -31 l 25
 466 -31 l 17
 464 -35 l 1
 464 -45 l 9
467 -33 m 9
 470 -33 l 25
 470 -37 l 25
 466 -37 l 17
 466 -35 l 1
 467 -33 l 9
478 -37 m 25
 478 -45 l 25
 480 -45 l 17
 480 -37 l 1
 479 -35 l 9
 474 -35 l 17
 474 -45 l 9
 476 -45 l 17
 476 -37 l 9
 478 -37 l 25
486 -37 m 25
 486 -45 l 25
 488 -45 l 17
 488 -37 l 1
 487 -35 l 9
 482 -35 l 17
 482 -45 l 9
 484 -45 l 25
 484 -37 l 25
 486 -37 l 25
492 -41 m 25xffafe0
 494 -41 l 25
 494 -43 l 25
 492 -43 l 25
 492 -41 l 25xffafe0
491 -45 m 9
 496 -45 l 17
 496 -37 l 1xffbfe0
 495 -35 l 9
 490 -35 l 25
 490 -37 l 25
 494 -37 l 25
 494 -39 l 25
 491 -39 l 17
 490 -41 l 1
 490 -43 l 1
 491 -45 l 9
502 -57 m 25
 502 -65 l 25
 504 -65 l 17
 504 -57 l 1
 503 -55 l 1
 500 -55 l 1
 500 -51 l 1
 498 -51 l 9
 498 -65 l 25
 500 -65 l 25
 500 -57 l 25
 502 -57 l 25
495 -57 m 1
 490 -57 l 25
 490 -53 l 25
 496 -53 l 1
 496 -51 l 9
 489 -51 l 17
 488 -53 l 1
 488 -57 l 1
 489 -59 l 9
 494 -59 l 17
 494 -63 l 1
 488 -63 l 1
 488 -65 l 9
 495 -65 l 17
 496 -63 l 1
 496 -59 l 1
 495 -57 l 1
510 -63 m 25
 508 -63 l 25
 508 -55 l 25
 506 -55 l 17
 506 -63 l 1
 507 -65 l 9
 512 -65 l 25
 512 -55 l 25
 510 -55 l 25
 510 -63 l 25
516 -63 m 25
 516 -57 l 25
 518 -57 l 25
 518 -63 l 25
 516 -63 l 25
515 -55 m 17
 514 -57 l 1
 514 -63 l 1
 515 -65 l 9
 518 -65 l 25
 518 -67 l 25
 514 -67 l 25
 514 -69 l 25
 519 -69 l 17
 520 -67 l 1
 520 -55 l 9
 515 -55 l 17
523 -55 m 17
 522 -57 l 1
 522 -63 l 1
 523 -65 l 9
 527 -65 l 17
 528 -63 l 1
 528 -57 l 1
 527 -55 l 9
 523 -55 l 17
590 29 m 0
 590 -40 537 -101 460 -101 c 0
 386 -101 331 -41 331 29 c 0
 331 97 382 159 460 159 c 0
 536 159 590 99 590 29 c 0
EndSplineSet
EndChar

StartChar: slash
Encoding: 47 47 15
Width: 922
VWidth: 1708
GlyphClass: 2
Flags: W
DStem2: 96 8 268 -58 0.359152 0.933279<0.177647 1553.66>
LayerCount: 2
Fore
SplineSet
654 1458 m 1
 826 1392 l 1
 268 -58 l 1
 96 8 l 1
 654 1458 l 1
EndSplineSet
Validated: 3073
EndChar

StartChar: zero
Encoding: 48 48 16
Width: 922
VWidth: 1708
GlyphClass: 2
Flags: W
HStem: -25 184<360.188 554.302> 1241 184<366.467 561.812>
VStem: 80 184<576.238 1100> 658 184<310.221 825.881>
DStem2: 11 189 189 125 0.553618 0.832771<0 45.2467 462.343 887.838 1305.77 1353.79>
LayerCount: 2
Fore
SplineSet
655 827 m 1
 307 302 l 1
 338 206 388 159 461 159 c 0
 597 159 658 328 658 700 c 0
 658 745 655 788 655 827 c 1
842 700 m 0
 842 402 807 -25 461 -25 c 0
 331 -25 245 35 189 125 c 1
 86 -29 l 1
 11 189 l 1
 109 337 l 1
 84 460 80 593 80 700 c 0
 80 988 110 1425 461 1425 c 0
 591 1425 677 1366 733 1277 c 1
 842 1441 l 1
 913 1215 l 1
 813 1064 l 1
 838 943 842 810 842 700 c 0
461 1241 m 0
 322 1241 264 1068 264 700 c 0
 264 655 267 613 267 574 c 1
 615 1100 l 1
 584 1195 534 1241 461 1241 c 0
EndSplineSet
Validated: 3073
EndChar

StartChar: one
Encoding: 49 49 17
Width: 922
VWidth: 1708
GlyphClass: 2
Flags: W
HStem: -0 21G<468 652> 1405 20G<511.774 652>
VStem: 468 184<0 1078>
LayerCount: 2
Fore
SplineSet
652 1425 m 1
 652 0 l 1
 468 -0 l 1
 468 1078 l 1
 283 963 l 1
 227 1054 l 1
 528 1425 l 1
 652 1425 l 1
EndSplineSet
Validated: 3073
EndChar

StartChar: two
Encoding: 50 50 18
Width: 922
VWidth: 2334
GlyphClass: 2
Flags: W
HStem: -0 184<310 832> 1241 184<327.159 605.093>
VStem: 648 184<918.399 1201.16>
DStem2: 244 439 391 329 0.60291 0.797809<-160.243 728.245>
LayerCount: 2
Fore
SplineSet
452 1425 m 2
 470 1425 l 2
 719 1425 832 1275 832 1064 c 2
 832 1023 l 2
 832 972 816 891 722 767 c 2
 391 329 l 2
 359 286 332 237 310 184 c 1
 832 184 l 1
 832 0 l 1
 90 -0 l 1
 90 106 l 1
 138 280 201 382 244 439 c 2
 575 877 l 2
 636 957 648 1002 648 1023 c 2
 648 1064 l 2
 648 1191 598 1241 470 1241 c 2
 452 1241 l 2
 350 1241 316 1204 278 1113 c 1
 108 1185 l 1
 162 1312 246 1425 452 1425 c 2
EndSplineSet
Validated: 3073
EndChar

StartChar: three
Encoding: 51 51 19
Width: 922
VWidth: 2334
GlyphClass: 2
Flags: W
HStem: -25 184<335.914 594.283> 685 184<302 556.687> 1241 184<339.048 562.061>
VStem: 90 184<217.742 337> 603 184<914.655 1197> 648 184<219.175 618.18>
LayerCount: 2
Fore
SplineSet
452 1425 m 2xf8
 470 1425 l 2
 660 1425 787 1266 787 1063 c 2
 787 1023 l 2xf8
 787 943 754 856 697 791 c 1
 786 713 832 581 832 417 c 2
 832 397 l 2
 832 23 595 -25 470 -25 c 2
 452 -25 l 2
 273 -25 90 103 90 337 c 1
 274 337 l 1
 274 209 380 159 452 159 c 2
 470 159 l 2
 572 159 648 199 648 397 c 2
 648 417 l 2xf4
 648 631 564 685 470 685 c 2
 302 685 l 1
 302 869 l 1
 471 869 l 2
 551 869 603 962 603 1023 c 2
 603 1063 l 2
 603 1166 553 1241 470 1241 c 2
 452 1241 l 2
 385 1241 313 1197 286 1126 c 1
 114 1190 l 1
 167 1331 307 1425 452 1425 c 2xf8
EndSplineSet
Validated: 3073
EndChar

StartChar: four
Encoding: 52 52 20
Width: 922
VWidth: 1708
GlyphClass: 2
Flags: W
HStem: 0 21G<580 764> 335 184<322 580 764 830> 1405 20G<605.835 764>
VStem: 580 184<0 335 519 982>
DStem2: 90 481 322 519 0.487448 0.873152<146.268 676.299>
LayerCount: 2
Fore
SplineSet
580 982 m 1
 322 519 l 1
 580 519 l 1
 580 982 l 1
90 481 m 1
 617 1425 l 1
 764 1425 l 1
 764 519 l 1
 830 519 l 1
 830 335 l 1
 764 335 l 1
 764 -0 l 1
 580 0 l 1
 580 335 l 1
 90 335 l 1
 90 481 l 1
EndSplineSet
Validated: 3073
EndChar

StartChar: five
Encoding: 53 53 21
Width: 922
VWidth: 2334
GlyphClass: 2
Flags: W
HStem: -25 184<290.81 580.098> 755 184<362.179 582.919> 1216 184<355 774>
VStem: 648 184<234.292 681.338>
DStem2: 118 731 321 905 0.105536 0.994416<0 11.8572 194.452 507.304>
LayerCount: 2
Fore
SplineSet
321 905 m 1
 365 927 409 939 452 939 c 2
 470 939 l 2
 709 939 832 756 832 487 c 2
 832 427 l 2
 832 54 615 -25 470 -25 c 2
 402 -25 l 2
 275 -25 119 55 62 210 c 1
 226 308 l 1
 243 203 342 159 402 159 c 2
 470 159 l 2
 566 159 648 213 648 427 c 2
 648 487 l 2
 648 701 564 755 470 755 c 2
 452 755 l 2
 421 755 334 720 295 608 c 1
 118 731 l 1
 189 1400 l 1
 774 1400 l 1
 774 1216 l 1
 355 1216 l 1
 321 905 l 1
EndSplineSet
Validated: 3073
EndChar

StartChar: six
Encoding: 54 54 22
Width: 922
VWidth: 2334
GlyphClass: 2
Flags: W
HStem: -25 184<348.658 580.098> 755 184<336.857 582.919> 1241 184<355.833 609.648>
VStem: 90 184<244.578 688.807 895 1153> 648 184<234.292 681.338>
LayerCount: 2
Fore
SplineSet
452 939 m 2
 470 939 l 2
 709 939 832 756 832 487 c 2
 832 427 l 2
 832 54 615 -25 470 -25 c 2
 452 -25 l 2
 240 -25 90 162 90 427 c 2
 90 957 l 2
 90 1227 235 1425 452 1425 c 2
 470 1425 l 2
 648 1425 753 1348 801 1236 c 1
 632 1164 l 1
 611 1213 564 1241 470 1241 c 2
 452 1241 l 2
 332 1241 274 1101 274 957 c 2
 274 895 l 1
 324 924 383 939 452 939 c 2
274 487 m 2
 274 427 l 2
 274 266 345 159 452 159 c 2
 470 159 l 2
 566 159 648 213 648 427 c 2
 648 487 l 2
 648 701 564 755 470 755 c 2
 452 755 l 2
 357 755 274 700 274 487 c 2
EndSplineSet
Validated: 3073
EndChar

StartChar: seven
Encoding: 55 55 23
Width: 922
VWidth: 1708
GlyphClass: 2
Flags: W
HStem: 0 21G<173 403> 1216 184<90 593>
VStem: 173 187<0 183.421> 173 187<0 187>
LayerCount: 2
Fore
SplineSet
173 0 m 1xe0
 252 425 408 829 593 1216 c 1
 90 1216 l 1
 90 1400 l 1
 832 1400 l 1
 832 1286 l 1
 822 1267 l 2
 619 858 446 437 360 -0 c 1
 298 -0 235 0 173 0 c 1xe0
EndSplineSet
Validated: 3073
EndChar

StartChar: eight
Encoding: 56 56 24
Width: 922
VWidth: 2334
GlyphClass: 2
Flags: W
HStem: -25 184<343.954 594.283> 685 184<364.565 557.435> 1241 184<359.939 562.061>
VStem: 90 184<228.276 618.18> 135 184<914.318 1198.28> 603 184<914.655 1197> 648 184<219.175 618.18>
LayerCount: 2
Fore
SplineSet
471 685 m 2xf2
 451 685 l 2
 357 685 274 630 274 417 c 2
 274 397 l 2
 274 232 353 159 452 159 c 2
 470 159 l 2
 572 159 648 199 648 397 c 2
 648 417 l 2
 648 631 565 685 471 685 c 2xf2
787 1063 m 2xec
 787 1023 l 2xec
 787 944 754 856 697 791 c 1
 786 713 832 581 832 417 c 2
 832 397 l 2
 832 23 595 -25 470 -25 c 2
 452 -25 l 2
 251 -25 90 130 90 397 c 2
 90 417 l 2xf2
 90 581 136 713 225 791 c 1
 168 856 135 942 135 1023 c 2
 135 1064 l 2
 135 1268 262 1425 452 1425 c 2
 470 1425 l 2
 660 1425 787 1266 787 1063 c 2xec
451 869 m 2
 471 869 l 2
 551 869 603 962 603 1023 c 2
 603 1063 l 2
 603 1166 553 1241 470 1241 c 2
 452 1241 l 2
 371 1241 319 1171 319 1064 c 2
 319 1023 l 2
 319 961 371 869 451 869 c 2
EndSplineSet
Validated: 3073
EndChar

StartChar: nine
Encoding: 57 57 25
Width: 922
VWidth: 2334
GlyphClass: 2
Flags: W
HStem: -25 184<312.166 566.167> 461 184<339.081 585.143> 1241 184<341.902 573.342>
VStem: 90 184<718.662 1165.71> 648 184<245.875 505 711.193 1155.42>
LayerCount: 2
Fore
SplineSet
470 461 m 2
 452 461 l 2
 213 461 90 644 90 913 c 2
 90 973 l 2
 90 1346 307 1425 452 1425 c 2
 470 1425 l 2
 682 1425 832 1238 832 973 c 2
 832 443 l 1
 832 172 687 -25 470 -25 c 2
 452 -25 l 2
 274 -25 168 53 121 164 c 1
 291 236 l 1
 311 186 358 159 452 159 c 2
 470 159 l 2
 590 159 648 296 648 443 c 1
 648 505 l 1
 598 476 539 461 470 461 c 2
648 913 m 2
 648 973 l 2
 648 1134 577 1241 470 1241 c 2
 452 1241 l 2
 356 1241 274 1187 274 973 c 2
 274 913 l 2
 274 699 358 645 452 645 c 2
 470 645 l 2
 565 645 648 700 648 913 c 2
EndSplineSet
Validated: 3073
EndChar

StartChar: less
Encoding: 60 60 28
Width: 922
VWidth: 1708
GlyphClass: 2
Flags: W
HStem: -22 233<599 832> 989 233<599 832>
VStem: 90 242<434 766>
DStem2: 90 645 332 600 0.78941 0.613867<163.413 796.912> 332 600 90 555 0.78941 -0.613867<0 633.499>
LayerCount: 2
Fore
SplineSet
90 645 m 1
 832 1222 l 1
 832 989 l 1
 332 600 l 1
 832 211 l 1
 832 -22 l 1
 90 555 l 1
 90 645 l 1
EndSplineSet
Validated: 3073
EndChar

StartChar: equal
Encoding: 61 61 29
Width: 922
VWidth: 1708
GlyphClass: 2
Flags: W
HStem: 308 184<50 872> 718 184<50 872>
LayerCount: 2
Fore
SplineSet
872 902 m 1
 872 718 l 1
 50 718 l 1
 50 902 l 1
 872 902 l 1
872 492 m 1
 872 308 l 1
 50 308 l 1
 50 492 l 1
 872 492 l 1
EndSplineSet
Validated: 3073
EndChar

StartChar: greater
Encoding: 62 62 30
Width: 922
VWidth: 1708
GlyphClass: 2
Flags: W
HStem: -22 233<90 323> 989 233<90 323>
VStem: 590 242<434 766>
DStem2: 90 1222 90 989 0.78941 -0.613867<143.031 776.53> 90 211 90 -22 0.78941 0.613867<0 633.499>
LayerCount: 2
Fore
SplineSet
90 1222 m 1
 832 645 l 1
 832 555 l 1
 90 -22 l 1
 90 211 l 1
 590 600 l 1
 90 989 l 1
 90 1222 l 1
EndSplineSet
Validated: 3073
EndChar

StartChar: question
Encoding: 63 63 31
Width: 922
VWidth: 1708
GlyphClass: 2
Flags: W
HStem: -101 260<363.547 557.7> 1241 184<313.876 607.712>
VStem: 90 184<1063 1197.71> 331 259<-68.357 126.694> 369 184<380 602.685> 648 184<916.304 1198.09>
LayerCount: 2
Fore
SplineSet
590 29 m 0xf4
 590 -40 537 -101 460 -101 c 0
 386 -101 331 -41 331 29 c 0
 331 97 382 159 460 159 c 0
 536 159 590 99 590 29 c 0xf4
369 480 m 2xec
 369 738 648 871 648 1023 c 2
 648 1063 l 2
 648 1190 598 1241 470 1241 c 2
 452 1241 l 2
 324 1241 274 1191 274 1063 c 1
 90 1063 l 1
 90 1311 239 1425 452 1425 c 2
 470 1425 l 2
 682 1425 832 1312 832 1063 c 2
 832 1023 l 2
 832 778 553 653 553 480 c 2
 553 380 l 1
 369 380 l 1
 369 480 l 2xec
EndSplineSet
Validated: 3073
EndChar

StartChar: at
Encoding: 64 64 32
Width: 922
VWidth: 1708
GlyphClass: 2
Flags: W
HStem: -25 184<350.85 645.37> 383 184<552.723 669.43> 876 184<547.072 688> 1241 184<350.85 593.297>
VStem: 20 184<379.11 1021.5> 346 184<576.46 866.78> 688 184<380 396 578.805 679 679 876>
LayerCount: 2
Fore
SplineSet
611 383 m 3
 505 383 346 441 346 742 c 3
 346 899 428 1060 611 1060 c 2
 611 1060 646 1061 688 1061 c 1
 672 1162 567 1241 461 1241 c 3
 255 1241 204 898 204 700 c 3
 204 504 255 159 461 159 c 3
 519 159 619 170 675 227 c 1
 805 97 l 1
 702 -7 549 -25 461 -25 c 3
 196 -25 20 252 20 700 c 3
 20 1149 196 1425 461 1425 c 3
 658 1425 872 1274 872 1061 c 2
 872 380 l 1
 688 380 l 1
 688 396 l 1
 664 387 639 383 611 383 c 3
614 876 m 2
 575 876 530 868 530 742 c 3
 530 573 580 567 606 567 c 2
 611 567 l 2
 625 567 677 578 688 679 c 2
 688 876 l 1
 614 876 l 2
EndSplineSet
Validated: 3073
EndChar

StartChar: B
Encoding: 66 66 33
Width: 922
VWidth: 1947
GlyphClass: 2
Flags: W
HStem: 0 184<274 612.219> 663 184<274 559.988> 1216 184<274 570.541>
VStem: 90 184<184 663 847 1216> 598 184<884.422 1023 1023 1185.8> 648 184<217.629 337 337 623.551>
LayerCount: 2
Fore
SplineSet
420 1400 m 2xf4
 422 1400 l 2
 518 1400 782 1399 782 1063 c 2
 782 1023 l 2xf8
 782 924 758 841 707 779 c 1
 785 720 832 624 832 485 c 2
 832 337 l 1
 832 244 825 0 470 0 c 2
 90 0 l 1
 90 1400 l 1
 420 1400 l 2xf4
470 184 m 2
 598 184 648 222 648 337 c 2
 648 485 l 2xf4
 648 613 598 663 470 663 c 2
 274 663 l 1
 274 184 l 1
 470 184 l 2
598 1063 m 2xf8
 598 1215 528 1216 420 1216 c 2
 274 1216 l 1
 274 847 l 1
 420 847 l 2
 549 847 598 895 598 1023 c 2
 598 1063 l 2xf8
EndSplineSet
Validated: 3073
EndChar

StartChar: C
Encoding: 67 67 34
Width: 922
VWidth: 1947
GlyphClass: 2
Flags: W
HStem: -25 184<365.569 560.941> 1241 184<366.467 562.766>
VStem: 80 184<303.495 1100.03> 624 178<226.543 292 1095 1174.15>
LayerCount: 2
Fore
SplineSet
461 -25 m 0
 106 -25 80 425 80 700 c 0
 80 988 110 1425 461 1425 c 0
 541 1425 732 1403 806 1095 c 1
 627 1053 l 1
 598 1177 550 1241 461 1241 c 0
 322 1241 264 1068 264 700 c 0
 264 336 320 159 461 159 c 0
 547 159 593 220 624 338 c 1
 802 292 l 1
 724 -9 531 -25 461 -25 c 0
EndSplineSet
Validated: 3073
EndChar

StartChar: D
Encoding: 68 68 35
Width: 922
VWidth: 1947
GlyphClass: 2
Flags: W
HStem: 0 184<274 562.169> 1216 184<274 563.991>
VStem: 90 184<184 1216> 658 184<314.054 1087.26>
LayerCount: 2
Fore
SplineSet
842 700 m 0
 842 385 801 0 461 0 c 2
 90 0 l 1
 90 1400 l 1
 461 1400 l 2
 808 1400 842 1005 842 700 c 0
461 1216 m 2
 274 1216 l 1
 274 184 l 1
 461 184 l 2
 603 184 658 343 658 700 c 0
 658 1054 608 1216 461 1216 c 2
EndSplineSet
Validated: 3073
EndChar

StartChar: E
Encoding: 69 69 36
Width: 922
VWidth: 1708
GlyphClass: 2
Flags: W
HStem: 0 185<274 832> 663 184<274 740> 1216 184<274 832>
VStem: 90 184<185 663 847 1216>
LayerCount: 2
Fore
SplineSet
274 663 m 1
 274 185 l 1
 832 185 l 1
 832 0 l 1
 90 0 l 1
 90 1400 l 1
 832 1400 l 1
 832 1216 l 1
 274 1216 l 1
 274 847 l 1
 740 847 l 1
 740 663 l 1
 274 663 l 1
EndSplineSet
Validated: 3073
EndChar

StartChar: F
Encoding: 70 70 37
Width: 922
VWidth: 1708
GlyphClass: 2
Flags: W
HStem: 663 184<274 740> 1216 184<274 832>
VStem: 90 184<93 663 847 1216>
LayerCount: 2
Fore
SplineSet
274 663 m 1
 274 93 l 1
 90 93 l 1
 90 1400 l 1
 832 1400 l 1
 832 1216 l 1
 274 1216 l 1
 274 847 l 1
 740 847 l 1
 740 663 l 1
 274 663 l 1
EndSplineSet
Validated: 3073
EndChar

StartChar: G
Encoding: 71 71 38
Width: 922
VWidth: 1947
GlyphClass: 2
Flags: W
HStem: -25 184<365.569 591.644> 525 184<504 649> 1241 184<366.467 561.477>
VStem: 80 184<303.265 1100.01> 504 329<525 709> 627 179<1095 1162.87> 649 184<217.563 301 301 525>
LayerCount: 2
Fore
SplineSet
833 277 m 1xf2
 772 52 621 -25 461 -25 c 0
 106 -25 80 423 80 700 c 3
 80 987 110 1425 461 1425 c 3
 536 1425 732 1407 806 1095 c 1
 627 1053 l 1xf4
 597 1178 550 1241 461 1241 c 3
 322 1241 264 1069 264 700 c 3
 264 337 320 159 461 159 c 0
 562 159 622 209 649 301 c 1
 649 525 l 1xf2
 504 525 l 1
 504 709 l 1
 833 709 l 1xf8
 833 277 l 1xf2
EndSplineSet
Validated: 3073
EndChar

StartChar: H
Encoding: 72 72 39
Width: 922
VWidth: 1947
GlyphClass: 2
Flags: W
HStem: 0 21G<90 274 648 832> 608 184<274 648> 1380 20G<90 274 648 832>
VStem: 90 184<0 608 792 1400> 648 184<0 608 792 1400>
LayerCount: 2
Fore
SplineSet
274 -0 m 1
 90 0 l 1
 90 1400 l 1
 274 1400 l 1
 274 792 l 1
 648 792 l 1
 648 1400 l 1
 832 1400 l 1
 832 -0 l 1
 648 0 l 1
 648 608 l 1
 274 608 l 1
 274 -0 l 1
EndSplineSet
Validated: 3073
EndChar

StartChar: I
Encoding: 73 73 40
Width: 922
VWidth: 1947
GlyphClass: 2
Flags: W
HStem: 0 184<90 369 553 832> 1216 184<90 369 553 832>
VStem: 369 184<184 1216>
LayerCount: 2
Fore
SplineSet
832 184 m 1
 832 0 l 1
 90 0 l 1
 90 184 l 1
 369 184 l 1
 369 1216 l 1
 90 1216 l 1
 90 1400 l 1
 832 1400 l 1
 832 1216 l 1
 553 1216 l 1
 553 184 l 1
 832 184 l 1
EndSplineSet
Validated: 3073
EndChar

StartChar: J
Encoding: 74 74 41
Width: 922
VWidth: 1947
GlyphClass: 2
Flags: W
HStem: -25 184<265.562 476.838> 1216 184<318 513 697 852>
VStem: 513 184<189.396 1216>
LayerCount: 2
Fore
SplineSet
852 1400 m 1
 852 1216 l 1
 697 1216 l 1
 697 337 l 2
 697 101 562 -25 380 -25 c 2
 362 -25 l 2
 232 -25 100 41 58 219 c 1
 237 261 l 1
 252 197 286 159 362 159 c 2
 380 159 l 2
 450 159 513 192 513 337 c 2
 513 1216 l 1
 318 1216 l 1
 318 1400 l 1
 852 1400 l 1
EndSplineSet
Validated: 3073
EndChar

StartChar: K
Encoding: 75 75 42
Width: 922
VWidth: 1947
GlyphClass: 2
Flags: W
HStem: -0 21G<91 275 650.1 865> 1380 20G<91 275 622.734 851>
VStem: 91 184<0 461 813 1400> 635 216<1184 1400> 660 205<0 205>
DStem2: 275 813 475 788 0.5228 0.852455<83.2487 688.599> 475 788 362 602 0.44357 -0.89624<116.577 788.297>
LayerCount: 2
Fore
SplineSet
91 0 m 1xe8
 91 1400 l 1
 275 1400 l 1
 275 813 l 1
 635 1400 l 1
 851 1400 l 1xf0
 475 788 l 1
 865 0 l 1
 796 0 728 -0 660 -0 c 1
 362 602 l 1
 275 461 l 1
 275 -0 l 1
 91 0 l 1xe8
EndSplineSet
Validated: 3073
EndChar

StartChar: L
Encoding: 76 76 43
Width: 922
VWidth: 1947
GlyphClass: 2
Flags: W
HStem: 0 185<274 832> 1380 20G<90 274>
VStem: 90 184<185 1400>
LayerCount: 2
Fore
SplineSet
274 185 m 1
 832 185 l 1
 832 0 l 1
 90 0 l 1
 90 1400 l 1
 274 1400 l 1
 274 185 l 1
EndSplineSet
Validated: 3073
EndChar

StartChar: M
Encoding: 77 77 44
Width: 922
VWidth: 1947
GlyphClass: 2
Flags: W
HStem: 0 21G<9 195.425 726.575 913> 242 493<146.5 775.5> 1380 20G<108.557 301.932 620.068 813.443>
VStem: 9 185<0 185> 728 185<0 185>
DStem2: 9 0 194 0 0.0719559 0.997408<13.3118 865.951> 461 735 252 814 0.239443 -0.970911<-126.745 0> 461 735 670 814 0.239443 0.970911<0 126.745>
LayerCount: 2
Fore
SplineSet
9 0 m 1
 110 1400 l 1
 297 1400 l 1
 461 735 l 1
 625 1400 l 1
 812 1400 l 1
 913 0 l 1
 851 0 790 0 728 0 c 1
 670 814 l 1
 529 242 l 1
 393 242 l 1
 252 814 l 1
 194 0 l 1
 132 0 71 0 9 0 c 1
EndSplineSet
Validated: 3073
EndChar

StartChar: N
Encoding: 78 78 45
Width: 922
VWidth: 1947
GlyphClass: 2
Flags: W
HStem: -0 21G<90 274 660.183 832> 1380 20G<90 261.807 648 832>
VStem: 90 184<0 896> 648 184<503 1400>
DStem2: 253 1400 274 896 0.403012 -0.915195<469.721 980.119>
LayerCount: 2
Fore
SplineSet
274 0 m 1
 90 -0 l 1
 90 1400 l 1
 253 1400 l 1
 648 503 l 1
 648 1400 l 1
 832 1400 l 1
 832 0 l 1
 669 0 l 1
 274 896 l 1
 274 0 l 1
EndSplineSet
Validated: 3073
EndChar

StartChar: O
Encoding: 79 79 46
Width: 922
VWidth: 1947
GlyphClass: 2
Flags: W
HStem: -25 184<365.569 554.302> 1241 184<366.467 556.2>
VStem: 80 184<303.495 1100.03> 658 184<304.339 1100.01>
LayerCount: 2
Fore
SplineSet
842 700 m 0
 842 402 807 -25 461 -25 c 0
 106 -25 80 425 80 700 c 0
 80 988 110 1425 461 1425 c 0
 814 1425 842 987 842 700 c 0
461 1241 m 0
 322 1241 264 1068 264 700 c 0
 264 336 320 159 461 159 c 0
 597 159 658 328 658 700 c 0
 658 1069 602 1241 461 1241 c 0
EndSplineSet
Validated: 3073
EndChar

StartChar: P
Encoding: 80 80 47
Width: 922
VWidth: 1947
GlyphClass: 2
Flags: W
HStem: 0 21G<90 274> 593 184<274 605.093> 1216 184<274 607.881>
VStem: 90 184<0 593 777 1216> 648 184<816.463 955 955 1182.03>
LayerCount: 2
Fore
SplineSet
470 1400 m 2
 812 1400 832 1187 832 1063 c 1
 832 955 l 2
 832 741 719 593 470 593 c 2
 274 593 l 1
 274 -0 l 1
 90 0 l 1
 90 1400 l 1
 470 1400 l 2
274 777 m 1
 470 777 l 2
 599 777 648 826 648 955 c 2
 648 1063 l 2
 648 1165 603 1216 470 1216 c 2
 274 1216 l 1
 274 777 l 1
EndSplineSet
Validated: 3073
EndChar

StartChar: Q
Encoding: 81 81 48
Width: 922
VWidth: 1947
GlyphClass: 2
Flags: W
HStem: -25 184<365.569 479.386> 1241 184<366.467 556.2>
VStem: 80 184<303.495 1100.03> 658 184<305.107 1100.22>
DStem2: 543 441 379 357 0.457015 -0.889459<0 157.429 411.225 610.248>
LayerCount: 2
Fore
SplineSet
461 1241 m 3
 322 1241 264 1068 264 700 c 3
 264 336 320 159 461 159 c 3
 468 159 474 159 480 160 c 1
 379 357 l 1
 543 441 l 1
 615 301 l 1
 644 390 658 522 658 700 c 3
 658 1069 602 1241 461 1241 c 3
822 -102 m 1
 658 -186 l 1
 567 -9 l 1
 536 -19 500 -25 461 -25 c 3
 106 -25 80 425 80 700 c 3
 80 988 110 1425 461 1425 c 3
 814 1425 842 988 842 700 c 3
 842 504 827 251 717 102 c 1
 822 -102 l 1
EndSplineSet
Validated: 3073
EndChar

StartChar: R
Encoding: 82 82 49
Width: 922
VWidth: 1947
GlyphClass: 2
Flags: W
HStem: 0 21G<90 274 663.793 877> 593 184<274 400> 1216 184<274 607.881>
VStem: 90 184<0 593 777 1216> 648 184<816.783 956 956 1174.99> 673 204<0 204>
DStem2: 595 608 400 593 0.420761 -0.907172<0 584.38>
LayerCount: 2
Fore
SplineSet
470 1400 m 2xf4
 812 1400 832 1187 832 1063 c 1
 832 956 l 2xf8
 832 759 739 647 595 608 c 1
 877 -0 l 1
 673 0 l 1
 400 593 l 1
 274 593 l 1
 274 -0 l 1
 90 0 l 1
 90 1400 l 1
 470 1400 l 2xf4
648 1063 m 2
 648 1160 603 1216 470 1216 c 2
 274 1216 l 1
 274 777 l 1
 470 777 l 2
 597 777 648 826 648 956 c 2
 648 1063 l 2
EndSplineSet
Validated: 3073
EndChar

StartChar: S
Encoding: 83 83 50
Width: 922
VWidth: 2334
GlyphClass: 2
Flags: W
HStem: -25 184<329.331 598.62> 1241 184<338.385 600.792>
VStem: 47 184<253.12 357> 96 184<930.479 1179.91> 668 184<229.325 516.539>
DStem2: 361 900 278 736 0.890312 -0.455351<-104.302 419.799>
LayerCount: 2
Fore
SplineSet
452 159 m 2xe8
 470 159 l 2
 577 159 668 238 668 337 c 2
 668 367 l 2
 668 451 624 556 540 602 c 2
 278 736 l 2
 152 800 96 928 96 1033 c 2
 96 1063 l 2
 96 1265 249 1425 458 1425 c 2
 465 1425 l 2
 635 1425 783 1330 832 1172 c 1
 656 1118 l 1
 636 1184 569 1241 465 1241 c 2
 458 1241 l 2
 350 1241 280 1164 280 1063 c 2
 280 1033 l 2xd8
 280 988 305 929 361 900 c 2
 626 765 l 2
 790 674 852 491 852 367 c 2
 852 337 l 2
 852 137 680 -25 470 -25 c 2
 452 -25 l 2
 247 -25 47 148 47 357 c 1
 231 357 l 1
 231 253 347 159 452 159 c 2xe8
EndSplineSet
Validated: 3073
EndChar

StartChar: T
Encoding: 84 84 51
Width: 922
VWidth: 1947
GlyphClass: 2
Flags: W
HStem: -0 21G<370 554> 1216 184<70 370 554 852>
VStem: 370 184<0 1216>
LayerCount: 2
Fore
SplineSet
852 1400 m 1
 852 1216 l 1
 554 1216 l 1
 554 0 l 1
 370 -0 l 1
 370 1216 l 1
 70 1216 l 1
 70 1400 l 1
 852 1400 l 1
EndSplineSet
Validated: 3073
EndChar

StartChar: U
Encoding: 85 85 52
Width: 922
VWidth: 1947
GlyphClass: 2
Flags: W
HStem: -25 184<316.907 605.093> 1380 20G<90 274 648 832>
VStem: 90 184<198.463 1400> 648 184<198.463 1400>
LayerCount: 2
Fore
SplineSet
274 337 m 2
 274 209 323 159 452 159 c 2
 470 159 l 2
 599 159 648 208 648 337 c 2
 648 1400 l 1
 832 1400 l 1
 832 337 l 2
 832 123 719 -25 470 -25 c 2
 452 -25 l 2
 203 -25 90 123 90 337 c 2
 90 1400 l 1
 274 1400 l 1
 274 337 l 2
EndSplineSet
Validated: 3073
EndChar

StartChar: V
Encoding: 86 86 53
Width: 922
VWidth: 1708
GlyphClass: 2
Flags: W
HStem: -25 21G<375.593 546.393> 1380 20G<66 258.423 662.598 855>
VStem: 66 188<1212 1400> 667 188<1212 1400>
DStem2: 254 1400 66 1400 0.215189 -0.976573<0 958.616> 461 464 542 -25 0.214535 0.976716<0 958.401>
LayerCount: 2
Fore
SplineSet
380 -25 m 1
 66 1400 l 1
 254 1400 l 1
 461 464 l 1
 667 1400 l 1
 855 1400 l 1
 542 -25 l 1
 380 -25 l 1
EndSplineSet
Validated: 3073
EndChar

StartChar: W
Encoding: 87 87 54
Width: 922
VWidth: 1947
GlyphClass: 2
Flags: W
HStem: 0 21G<108.557 301.932 620.068 813.443> 665 493<146.5 775.5> 1380 20G<9 195.425 726.575 913>
VStem: 9 185<1215 1400> 728 185<1215 1400>
DStem2: 194 1400 9 1400 0.0719559 -0.997408<0 852.639> 252 586 461 665 0.239339 0.970936<0 126.726> 670 586 461 665 0.239339 -0.970936<-126.726 0>
LayerCount: 2
Fore
SplineSet
110 0 m 1
 9 1400 l 1
 194 1400 l 1
 252 586 l 1
 393 1158 l 1
 529 1158 l 1
 670 586 l 1
 728 1400 l 1
 913 1400 l 1
 812 0 l 1
 750 0 687 0 625 0 c 1
 461 665 l 1
 297 0 l 1
 235 0 172 0 110 0 c 1
EndSplineSet
Validated: 3073
EndChar

StartChar: X
Encoding: 88 88 55
Width: 922
VWidth: 1947
GlyphClass: 2
Flags: W
HStem: 0 21G<75 282.184 639.816 847> 457 486<218 704> 1380 20G<75 282.184 639.816 847>
VStem: 75 199<0 199 1201 1400> 362 198<601 799> 648 199<0 199 1201 1400>
DStem2: 274 1400 75 1400 0.378787 -0.925484<0 493.779 943.564 1437.34> 75 0 274 0 0.378787 0.925484<75.3787 569.158 1018.94 1512.72>
CounterMasks: 1 1c
LayerCount: 2
Fore
SplineSet
75 0 m 1
 362 700 l 1
 75 1400 l 1
 274 1400 l 1
 461 943 l 1
 648 1400 l 1
 847 1400 l 1
 560 700 l 1
 847 -0 l 1
 780 -0 714 0 648 0 c 1
 461 457 l 1
 274 0 l 1
 208 0 142 0 75 0 c 1
EndSplineSet
Validated: 3073
EndChar

StartChar: Y
Encoding: 89 89 56
Width: 922
VWidth: 1947
GlyphClass: 2
Flags: W
HStem: -25 21G<369 553> 1380 20G<72 271.61 650.39 850>
VStem: 72 193<1207 1400> 369 184<-25 498> 657 193<1207 1400>
DStem2: 265 1400 72 1400 0.312751 -0.949835<0 624.551> 461 807 553 498 0.312751 0.949835<0 624.551>
CounterMasks: 1 38
LayerCount: 2
Fore
SplineSet
369 -25 m 1
 369 498 l 1
 72 1400 l 1
 265 1400 l 1
 461 807 l 1
 657 1400 l 1
 850 1400 l 1
 553 498 l 1
 553 -25 l 1
 492 -25 430 -25 369 -25 c 1
EndSplineSet
Validated: 3073
EndChar

StartChar: Z
Encoding: 90 90 57
Width: 922
VWidth: 1947
GlyphClass: 2
Flags: W
HStem: 0 185<325 832> 1216 184<90 597>
DStem2: 90 113 325 185 0.417647 0.908609<163.567 1213.94>
LayerCount: 2
Fore
SplineSet
90 1216 m 1
 90 1400 l 1
 832 1400 l 1
 832 1288 l 1
 325 185 l 1
 832 185 l 1
 832 0 l 1
 90 0 l 1
 90 113 l 1
 597 1216 l 1
 90 1216 l 1
EndSplineSet
Validated: 3073
EndChar

StartChar: bracketleft
Encoding: 91 91 58
Width: 922
VWidth: 1947
GlyphClass: 2
Flags: W
HStem: -172 184<442 740> 1388 184<442 740>
VStem: 258 482<-172 12 1388 1572> 258 184<12 1388>
LayerCount: 2
Fore
SplineSet
442 1388 m 1xd0
 442 12 l 1xd0
 740 12 l 1
 740 -172 l 1
 258 -172 l 1
 258 1572 l 1
 740 1572 l 1
 740 1388 l 1xe0
 442 1388 l 1xd0
EndSplineSet
Validated: 3073
EndChar

StartChar: backslash
Encoding: 92 92 59
Width: 922
VWidth: 1708
GlyphClass: 2
Flags: W
DStem2: 268 1458 96 1392 0.359152 -0.933279<0 1553.48>
LayerCount: 2
Fore
SplineSet
96 1392 m 1
 268 1458 l 1
 826 8 l 1
 654 -58 l 1
 96 1392 l 1
EndSplineSet
Validated: 3073
EndChar

StartChar: bracketright
Encoding: 93 93 60
Width: 922
VWidth: 1947
GlyphClass: 2
Flags: W
HStem: -172 184<182 480> 1388 184<182 480>
VStem: 182 482<-172 12 1388 1572> 480 184<12 1388>
LayerCount: 2
Fore
SplineSet
182 1572 m 1xe0
 664 1572 l 1
 664 -172 l 1
 182 -172 l 1
 182 12 l 1xe0
 480 12 l 1
 480 1388 l 1xd0
 182 1388 l 1
 182 1572 l 1xe0
EndSplineSet
Validated: 3073
EndChar

StartChar: asciicircum
Encoding: 94 94 61
Width: 922
VWidth: 1947
GlyphClass: 2
Flags: W
HStem: 1193 232<283 639>
DStem2: 107 1010 257 904 0.576683 0.816968<0 353.651> 523 1425 461 1193 0.575445 -0.817841<154.061 507.434>
LayerCount: 2
Fore
SplineSet
523 1425 m 1
 815 1010 l 1
 665 904 l 1
 461 1193 l 1
 257 904 l 1
 107 1010 l 1
 399 1425 l 1
 523 1425 l 1
EndSplineSet
Validated: 3073
EndChar

StartChar: underscore
Encoding: 95 95 62
Width: 922
VWidth: 1947
GlyphClass: 2
Flags: W
HStem: -184 184<90 832>
LayerCount: 2
Fore
SplineSet
832 0 m 1
 832 -184 l 1
 90 -184 l 1
 90 0 l 1
 832 0 l 1
EndSplineSet
Validated: 3073
EndChar

StartChar: grave
Encoding: 96 96 63
Width: 922
VWidth: 1708
GlyphClass: 2
Flags: W
HStem: 1049 377
VStem: 272 378
LayerCount: 2
Fore
SplineSet
636 1177 m 2
 645 1165 650 1147 650 1129 c 3
 650 1107 644 1085 629 1070 c 0
 614 1055 592 1049 571 1049 c 3
 552 1049 534 1054 522 1063 c 2
 311 1235 l 2
 288 1254 272 1287 272 1323 c 3
 272 1350 280 1377 300 1397 c 0
 320 1417 347 1426 374 1426 c 3
 410 1426 444 1409 463 1386 c 2
 636 1177 l 2
EndSplineSet
EndChar

StartChar: a
Encoding: 97 97 64
Width: 922
VWidth: 1947
GlyphClass: 2
Flags: W
HStem: -25 184<323.297 559.266> 469 184<315.389 648> 865 184<311.073 608.124>
VStem: 90 184<207.647 428.106> 648 184<0 38 329 469 653 821.706>
LayerCount: 2
Fore
SplineSet
470 159 m 2
 587 172 648 329 648 329 c 1
 648 469 l 1
 452 469 l 2
 290 469 274 360 274 337 c 2
 274 291 l 2
 282 219 350 159 452 159 c 2
 470 159 l 2
90 337 m 2
 90 422 146 653 452 653 c 1
 648 653 l 1
 648 687 l 2
 648 815 598 865 470 865 c 2
 452 865 l 2
 329 865 302 815 290 787 c 1
 120 857 l 1
 167 970 272 1049 452 1049 c 2
 470 1049 l 2
 683 1049 832 935 832 687 c 2
 832 -0 l 1
 648 0 l 1
 648 38 l 1
 601 7 542 -17 470 -25 c 2
 452 -25 l 2
 281 -25 90 78 90 291 c 2
 90 337 l 2
EndSplineSet
Validated: 3073
EndChar

StartChar: b
Encoding: 98 98 65
Width: 922
VWidth: 2334
GlyphClass: 2
Flags: W
HStem: -25 184<348.658 580.098> 865 184<336.857 582.919> 1380 20G<90 274>
VStem: 90 184<0 26 241.648 798.807 1005 1400> 648 184<234.292 791.338>
LayerCount: 2
Fore
SplineSet
452 1049 m 2
 470 1049 l 2
 709 1049 832 866 832 597 c 2
 832 427 l 2
 832 54 615 -25 470 -25 c 2
 452 -25 l 2
 386 -25 325 -7 274 26 c 1
 274 -0 l 1
 90 0 l 1
 90 427 l 1
 90 597 l 1
 90 1400 l 1
 274 1400 l 1
 274 1005 l 1
 324 1034 383 1049 452 1049 c 2
274 427 m 2
 274 266 345 159 452 159 c 2
 470 159 l 2
 566 159 648 213 648 427 c 2
 648 597 l 2
 648 811 564 865 470 865 c 2
 452 865 l 2
 357 865 274 810 274 597 c 2
 274 427 l 2
EndSplineSet
Validated: 3073
EndChar

StartChar: c
Encoding: 99 99 66
Width: 922
VWidth: 2334
GlyphClass: 2
Flags: W
HStem: -25 184<348.658 610.577> 865 184<339.081 605.438>
VStem: 90 184<244.156 791.338>
LayerCount: 2
Fore
SplineSet
470 865 m 2
 452 865 l 2
 358 865 274 811 274 597 c 2
 274 427 l 2
 274 266 345 159 452 159 c 2
 470 159 l 2
 586 159 621 201 636 249 c 1
 811 191 l 1
 772 73 673 -25 470 -25 c 2
 452 -25 l 2
 240 -25 90 161 90 427 c 2
 90 597 l 2
 90 866 213 1049 452 1049 c 2
 470 1049 l 2
 676 1049 777 945 813 825 c 1
 637 771 l 1
 622 821 587 865 470 865 c 2
EndSplineSet
Validated: 3073
EndChar

StartChar: d
Encoding: 100 100 67
Width: 922
VWidth: 1947
GlyphClass: 2
Flags: W
HStem: -25 184<348.658 585.55> 865 184<336.857 584.737> 1380 20G<648 832>
VStem: 90 184<244.578 791.768> 648 184<0 19 224.787 799.213 1005 1400>
LayerCount: 2
Fore
SplineSet
452 1049 m 2
 470 1049 l 2
 539 1049 598 1034 648 1005 c 1
 648 1400 l 1
 832 1400 l 1
 832 597 l 1
 832 427 l 1
 832 -0 l 1
 648 0 l 1
 648 19 l 1
 589 -14 524 -25 470 -25 c 2
 452 -25 l 2
 240 -25 90 162 90 427 c 2
 90 597 l 1
 90 867 231 1049 452 1049 c 2
274 597 m 2
 274 427 l 2
 274 266 345 159 452 159 c 2
 470 159 l 2
 566 159 648 213 648 427 c 2
 648 597 l 2
 648 811 564 865 470 865 c 2
 452 865 l 2
 357 865 274 810 274 597 c 2
EndSplineSet
Validated: 3073
EndChar

StartChar: e
Encoding: 101 101 68
Width: 922
VWidth: 1947
GlyphClass: 2
Flags: W
HStem: -25 184<316.907 603.684> 469 184<274 648> 865 184<313.876 607.712>
VStem: 90 184<198.463 469 653 821.706> 648 184<653 822.093>
LayerCount: 2
Fore
SplineSet
648 653 m 1
 648 687 l 2
 648 814 598 865 470 865 c 2
 452 865 l 2
 324 865 274 815 274 687 c 2
 274 653 l 1
 648 653 l 1
274 469 m 1
 274 337 l 2
 274 209 323 159 452 159 c 2
 470 159 l 2
 602 159 627 215 639 258 c 1
 817 210 l 1
 803 159 747 -25 470 -25 c 2
 452 -25 l 2
 203 -25 90 123 90 337 c 2
 90 687 l 2
 90 935 239 1049 452 1049 c 2
 470 1049 l 2
 682 1049 832 936 832 687 c 2
 832 469 l 1
 274 469 l 1
EndSplineSet
Validated: 3073
EndChar

StartChar: f
Encoding: 102 102 69
Width: 922
VWidth: 1947
GlyphClass: 2
Flags: W
HStem: 0 21G<270 454> 732 184<90 270 454 740> 1241 184<475.098 626.611>
VStem: 270 184<0 732 916 1221.87>
LayerCount: 2
Fore
SplineSet
641 1179 m 1
 610 1234 574 1241 560 1241 c 2
 542 1241 l 2
 486 1234 454 1180 454 1152 c 2
 454 916 l 1
 740 916 l 1
 740 732 l 1
 454 732 l 1
 454 -0 l 1
 270 0 l 1
 270 732 l 1
 90 732 l 1
 90 916 l 1
 270 916 l 1
 270 1152 l 2
 270 1289 395 1425 542 1425 c 2
 560 1425 l 2
 731 1425 808 1257 808 1257 c 1
 641 1179 l 1
EndSplineSet
Validated: 3073
EndChar

StartChar: g
Encoding: 103 103 70
Width: 922
VWidth: 1947
GlyphClass: 2
Flags: W
HStem: -401 184<305.052 617.384> 23 184<311.158 617.384> 299 184<343.077 573.961> 865 184<351.009 574.735 788.094 832>
VStem: 90 184<-183.658 -7.95779 181.542 335.211 553.375 790.59> 648 184<-183.658 -12.0645 557.781 792.622>
LayerCount: 2
Fore
SplineSet
90 281 m 2
 90 351 123 415 160 457 c 1
 117 516 90 587 90 661 c 2
 90 687 l 2
 90 876 270 1049 452 1049 c 2
 470 1049 l 2
 537 1049 603 1026 660 987 c 1
 703 1022 763 1051 832 1051 c 1
 832 865 l 1
 809 865 794 858 786 852 c 1
 815 801 832 745 832 687 c 2
 832 661 l 2
 832 473 660 299 470 299 c 2
 452 299 l 2
 399 299 347 313 300 337 c 1
 289 324 274 303 274 281 c 2
 274 245 l 2
 274 241 280 202 309 179 c 1
 355 197 404 207 452 207 c 2
 470 207 l 2
 648 207 832 130 832 -87 c 2
 832 -107 l 2
 832 -330 648 -401 470 -401 c 2
 452 -401 l 2
 275 -401 90 -330 90 -107 c 2
 90 -87 l 2
 90 -0 98 18 155 74 c 1
 98 148 90 238 90 245 c 2
 90 281 l 2
470 865 m 2
 452 865 l 2
 365 865 274 767 274 687 c 2
 274 661 l 2
 274 576 364 483 452 483 c 2
 470 483 l 2
 558 483 648 575 648 661 c 2
 648 687 l 2
 648 767 557 865 470 865 c 2
648 -87 m 2
 648 -23 593 23 470 23 c 2
 452 23 l 2
 325 23 274 -25 274 -87 c 2
 274 -107 l 2
 274 -170 322 -217 452 -217 c 2
 470 -217 l 2
 598 -217 648 -172 648 -107 c 2
 648 -87 l 2
EndSplineSet
Validated: 3073
EndChar

StartChar: h
Encoding: 104 104 71
Width: 922
VWidth: 2334
GlyphClass: 2
Flags: W
HStem: 0 21G<90 274 648 832> 865 184<370.169 607.712> 1380 20G<90 274>
VStem: 90 184<0 746.352 982 1400> 648 184<0 822.093>
LayerCount: 2
Fore
SplineSet
452 865 m 2
 343 854 274 677 274 597 c 2
 274 -0 l 1
 90 0 l 1
 90 1400 l 1
 274 1400 l 1
 274 982 l 1
 353 1046 411 1049 452 1049 c 1
 470 1049 l 2
 682 1049 832 936 832 687 c 2
 832 0 l 1
 648 -0 l 1
 648 687 l 2
 648 814 598 865 470 865 c 2
 452 865 l 2
EndSplineSet
Validated: 3073
EndChar

StartChar: k
Encoding: 107 107 74
Width: 922
VWidth: 1947
GlyphClass: 2
Flags: W
HStem: 0 21G<90 274 623.423 848> 1405 20G<90 274>
VStem: 90 184<0 350 640 1425> 635 213<0 213>
DStem2: 274 640 491 615 0.634637 0.772811<118.396 622.403> 491 615 367 463 0.502034 -0.864848<69.2047 604.174>
LayerCount: 2
Fore
SplineSet
90 0 m 1
 90 1425 l 1
 274 1425 l 1
 274 640 l 1
 669 1121 l 1
 811 1005 l 1
 491 615 l 1
 848 -0 l 1
 635 0 l 1
 367 463 l 1
 274 350 l 1
 274 -0 l 1
 90 0 l 1
EndSplineSet
Validated: 3073
EndChar

StartChar: l
Encoding: 108 108 75
Width: 922
VWidth: 1947
GlyphClass: 2
Flags: W
HStem: 0 184<182 369 553 740> 1216 184<182 369>
VStem: 369 184<184 1216>
LayerCount: 2
Fore
SplineSet
740 184 m 1
 740 0 l 1
 182 0 l 1
 182 184 l 1
 369 184 l 1
 369 1216 l 1
 182 1216 l 1
 182 1400 l 1
 553 1400 l 1
 553 184 l 1
 740 184 l 1
EndSplineSet
Validated: 3073
EndChar

StartChar: m
Encoding: 109 109 76
Width: 922
VWidth: 2334
GlyphClass: 2
Flags: W
HStem: 0 21G<50 224 379 543 698 872> 865 184<265.17 373.422 585.314 690.262>
VStem: 50 174<0 826.873 1016 1049> 379 164<0 826.609> 698 174<0 861.726>
CounterMasks: 1 38
LayerCount: 2
Fore
SplineSet
224 0 m 1
 50 0 l 1
 50 1049 l 1
 224 1049 l 1
 224 1016 l 1
 242 1032 285 1045 316 1049 c 2
 326 1049 l 2
 376 1049 440 1035 487 985 c 1
 524 1016 572 1040 635 1049 c 2
 645 1049 l 2
 736 1049 872 1002 872 777 c 2
 872 0 l 1
 698 0 l 1
 698 777 l 2
 698 862 670 865 645 865 c 2
 635 865 l 2
 594 859 543 766 543 687 c 2
 543 0 l 1
 379 0 l 1
 379 777 l 2
 379 862 351 865 326 865 c 2
 316 865 l 2
 275 859 224 766 224 687 c 2
 224 0 l 1
EndSplineSet
Validated: 3073
EndChar

StartChar: n
Encoding: 110 110 77
Width: 922
VWidth: 2334
GlyphClass: 2
Flags: W
HStem: 0 21G<90 274 648 832> 865 184<370.169 607.712>
VStem: 90 184<0 746.352 982 1023> 648 184<0 822.093>
LayerCount: 2
Fore
SplineSet
274 -0 m 1
 90 0 l 1
 90 1023 l 1
 274 1023 l 1
 274 982 l 1
 353 1046 411 1049 452 1049 c 2
 470 1049 l 2
 682 1049 832 936 832 687 c 2
 832 0 l 1
 648 -0 l 1
 648 687 l 2
 648 814 598 865 470 865 c 2
 452 865 l 2
 343 854 274 677 274 597 c 2
 274 -0 l 1
EndSplineSet
Validated: 3073
EndChar

StartChar: o
Encoding: 111 111 78
Width: 922
VWidth: 1947
GlyphClass: 2
Flags: W
HStem: -25 184<344.336 577.664> 864 184<344.336 577.664>
VStem: 80 184<258.753 765.411> 658 184<258.753 765.411>
LayerCount: 2
Fore
SplineSet
842 513 m 3
 842 50 613 -25 461 -25 c 3
 309 -25 80 50 80 513 c 3
 80 973 309 1048 461 1048 c 3
 613 1048 842 973 842 513 c 3
461 864 m 3
 335 864 264 769 264 513 c 3
 264 255 335 159 461 159 c 3
 587 159 658 255 658 513 c 3
 658 769 587 864 461 864 c 3
EndSplineSet
Validated: 3073
EndChar

StartChar: p
Encoding: 112 112 79
Width: 922
VWidth: 1947
GlyphClass: 2
Flags: W
HStem: -385 21G<90 274> -25 184<348.658 580.098> 865 184<336.857 582.919>
VStem: 90 184<-385 26 241.648 798.807 1005 1023> 648 184<234.292 791.338>
LayerCount: 2
Fore
SplineSet
274 -385 m 1
 90 -385 l 1
 90 427 l 1
 90 597 l 1
 90 1023 l 1
 274 1023 l 1
 274 1005 l 1
 324 1034 383 1049 452 1049 c 2
 470 1049 l 2
 709 1049 832 866 832 597 c 2
 832 427 l 2
 832 54 615 -25 470 -25 c 2
 452 -25 l 2
 386 -25 325 -7 274 26 c 1
 274 -385 l 1
274 427 m 2
 274 266 345 159 452 159 c 2
 470 159 l 2
 566 159 648 213 648 427 c 2
 648 597 l 2
 648 811 564 865 470 865 c 2
 452 865 l 2
 357 865 274 810 274 597 c 2
 274 427 l 2
EndSplineSet
Validated: 3073
EndChar

StartChar: q
Encoding: 113 113 80
Width: 922
VWidth: 1947
GlyphClass: 2
Flags: W
HStem: -385 21G<648 832> -25 184<348.658 585.55> 865 184<339.435 584.737>
VStem: 90 184<244.578 791.768> 648 184<-385 20 224.787 799.213 1005 1023>
LayerCount: 2
Fore
SplineSet
452 1049 m 2
 470 1049 l 2
 539 1049 598 1034 648 1005 c 1
 648 1023 l 1
 832 1023 l 1
 832 597 l 1
 832 427 l 1
 832 -385 l 1
 648 -385 l 1
 648 20 l 1
 589 -14 524 -25 470 -25 c 2
 452 -25 l 2
 240 -25 90 162 90 427 c 2
 90 597 l 2
 90 867 214 1049 452 1049 c 2
274 597 m 2
 274 427 l 2
 274 266 345 159 452 159 c 2
 470 159 l 2
 566 159 648 213 648 427 c 2
 648 597 l 2
 648 811 564 865 470 865 c 2
 452 865 l 2
 357 865 274 810 274 597 c 2
EndSplineSet
Validated: 3073
EndChar

StartChar: r
Encoding: 114 114 81
Width: 922
VWidth: 1947
GlyphClass: 2
Flags: W
HStem: 0 21G<90 274> 865 184<425.601 641.253>
VStem: 90 184<0 661.875 931 1023>
LayerCount: 2
Fore
SplineSet
274 -0 m 1
 90 0 l 1
 90 1023 l 1
 274 1023 l 1
 274 931 l 1
 344 1003 430 1049 522 1049 c 2
 540 1049 l 2
 678 1049 775 981 829 873 c 1
 664 791 l 1
 639 842 601 865 540 865 c 2
 522 865 l 2
 410 865 274 659 274 470 c 2
 274 -0 l 1
EndSplineSet
Validated: 3073
EndChar

StartChar: s
Encoding: 115 115 82
Width: 922
VWidth: 1947
GlyphClass: 2
Flags: W
HStem: -25 184<316.553 605.31> 865 184<294.85 572.668>
VStem: 60 184<237.495 337> 90 184<707.258 839.668> 648 184<204.125 365.603>
DStem2: 309 709 235 540 0.907604 -0.419827<-56.8475 475.818>
LayerCount: 2
Fore
SplineSet
244 337 m 1xe8
 244 260 331 159 422 159 c 2
 470 159 l 2
 553 159 648 205 648 287 c 2
 648 301 l 2
 648 339 631 357 609 367 c 2
 235 540 l 2
 116 589 90 683 90 745 c 2
 90 757 l 2
 90 874 146 1049 452 1049 c 2
 470 1049 l 2
 622 1049 753 935 805 814 c 1
 636 742 l 1
 607 807 536 865 470 865 c 2
 452 865 l 2
 304 865 274 822 274 757 c 2
 274 745 l 2xd8
 274 734 281 720 309 709 c 2
 687 534 l 2
 778 491 832 403 832 301 c 2
 832 287 l 2
 832 100 658 -25 470 -25 c 2
 422 -25 l 2
 228 -25 60 159 60 337 c 1
 244 337 l 1xe8
EndSplineSet
Validated: 3073
EndChar

StartChar: t
Encoding: 116 116 83
Width: 922
VWidth: 1947
GlyphClass: 2
Flags: W
HStem: -25 184<451.265 606.611> 824 184<90 279 472 740> 1405 20G<307.993 493>
VStem: 250 184<175.586 529.709> 279 184<718.936 824 1008 1295.2> 309 184<1140.33 1425>
LayerCount: 2
Fore
SplineSet
788 143 m 1xf0
 788 143 711 -25 540 -25 c 2
 522 -25 l 2
 285 -1 250 187 250 242 c 0
 250 244 250 250 250 253 c 2xf0
 279 824 l 1xe8
 90 824 l 1
 90 1008 l 1
 288 1008 l 1
 309 1425 l 1
 493 1425 l 1xe4
 472 1008 l 1
 740 1008 l 1
 740 824 l 1
 463 824 l 1xe8
 434 242 l 2
 434 219 463 166 522 159 c 2
 540 159 l 2
 554 159 590 166 621 221 c 1
 788 143 l 1xf0
EndSplineSet
Validated: 3073
EndChar

StartChar: u
Encoding: 117 117 84
Width: 922
VWidth: 2334
GlyphClass: 2
Flags: W
HStem: -25 184<301.438 530.044> 1003 20G<90 274 648 832>
VStem: 90 184<188.426 1023> 648 184<0 59 303.492 1023>
LayerCount: 2
Fore
SplineSet
450 159 m 2
 556 170 648 361 648 447 c 2
 648 1023 l 1
 832 1023 l 1
 832 0 l 1
 648 -0 l 1
 648 59 l 1
 556 -23 487 -21 450 -25 c 2
 432 -25 l 2
 108 -25 90 223 90 337 c 2
 90 1023 l 1
 274 1023 l 1
 274 337 l 2
 274 235 282 159 432 159 c 2
 450 159 l 2
EndSplineSet
Validated: 3073
EndChar

StartChar: v
Encoding: 118 118 85
Width: 922
VWidth: 1947
GlyphClass: 2
Flags: W
HStem: -25 413<185.5 736.5> 1003 20G<79 276.984 645.016 843>
VStem: 79 192<831 1023> 651 192<831 1023>
DStem2: 271 1023 79 1023 0.286173 -0.958178<0 662.816> 461 388 530 -25 0.286173 0.958178<0 662.816>
LayerCount: 2
Fore
SplineSet
392 -25 m 1
 79 1023 l 1
 271 1023 l 1
 461 388 l 1
 651 1023 l 1
 843 1023 l 1
 530 -25 l 1
 392 -25 l 1
EndSplineSet
Validated: 3073
EndChar

StartChar: w
Encoding: 119 119 86
Width: 922
VWidth: 1947
GlyphClass: 2
Flags: W
HStem: -0 21G<116.889 274.08 647.92 805.111> 548 384<210 712> 1003 20G<11 198.128 723.872 911>
VStem: 11 185<838 1023> 726 185<838 1023>
DStem2: 196 1023 11 1023 0.104988 -0.994473<0 519.917> 251 506 461 548 0.334093 0.94254<0 109.746> 671 506 461 548 0.334093 -0.94254<-109.746 0> 671 506 803 -0 0.104988 0.994473<0 519.917>
LayerCount: 2
Fore
SplineSet
119 -0 m 1
 11 1023 l 1
 196 1023 l 1
 251 506 l 1
 402 932 l 1
 520 932 l 1
 671 506 l 1
 726 1023 l 1
 911 1023 l 1
 803 -0 l 1
 655 -0 l 1
 461 548 l 1
 267 -0 l 1
 119 -0 l 1
EndSplineSet
Validated: 3073
EndChar

StartChar: x
Encoding: 120 120 87
Width: 922
VWidth: 1947
GlyphClass: 2
Flags: W
HStem: -0 21G<78 297.909 623.154 844> 1003 20G<78 297.909 623.154 844>
VStem: 78 209<0 209 814 1023> 634 210<0 210 813 1023>
DStem2: 287 1023 78 1023 0.47819 -0.878256<0 363.369 701.497 1064.39> 78 -0 287 -0 0.477528 0.878617<99.8033 463.172 801.439 1164.33>
LayerCount: 2
Fore
SplineSet
78 -0 m 1
 356 512 l 1
 78 1023 l 1
 287 1023 l 1
 461 704 l 1
 634 1023 l 1
 844 1023 l 1
 566 512 l 1
 844 -0 l 1
 634 -0 l 1
 461 319 l 1
 287 -0 l 1
 78 -0 l 1
EndSplineSet
Validated: 3073
EndChar

StartChar: y
Encoding: 121 121 88
Width: 922
VWidth: 1947
GlyphClass: 2
Flags: W
HStem: -385 183<250.425 384.633> 1003 20G<81 288.472 668.415 861>
VStem: 81 199<824 1023> 673 188<835 1023>
DStem2: 280 1023 81 1023 0.389508 -0.921023<0 653.78> 465 115 597 -132 0.222825 0.974859<-326.706 0 313.904 931.519>
LayerCount: 2
Fore
SplineSet
861 1023 m 1
 597 -132 l 2
 537 -324 432 -385 324 -385 c 3
 222 -385 112 -318 66 -204 c 1
 237 -136 l 1
 243 -150 270 -202 324 -202 c 3
 378 -202 414 -103 419 -88 c 2
 465 115 l 1
 81 1023 l 1
 280 1023 l 1
 535 421 l 1
 673 1023 l 1
 861 1023 l 1
EndSplineSet
Validated: 3073
EndChar

StartChar: z
Encoding: 122 122 89
Width: 922
VWidth: 1947
GlyphClass: 2
Flags: W
HStem: -0 184<354 837> 840 183<140 568>
DStem2: 87 115 354 184 0.552842 0.833286<205.106 870.049>
LayerCount: 2
Fore
SplineSet
87 115 m 1
 568 840 l 1
 140 840 l 1
 140 1023 l 1
 837 1023 l 1
 837 912 l 1
 354 184 l 1
 837 184 l 1
 837 -0 l 1
 87 -0 l 1
 87 115 l 1
EndSplineSet
Validated: 3073
EndChar

StartChar: braceleft
Encoding: 123 123 90
Width: 922
VWidth: 1947
GlyphClass: 2
Flags: W
HStem: -172 184<503.481 740> 608 184<90 215.582> 1388 184<503.868 740>
VStem: 90 252<482 918> 258 184<73.8678 566.931 831.847 1326.52>
CounterMasks: 1 e0
LayerCount: 2
Fore
SplineSet
620 1388 m 2xe8
 520 1388 442 1309 442 1210 c 2
 442 970 l 2xe8
 442 861 405 766 342 700 c 1xf0
 405 634 442 539 442 430 c 2
 442 190 l 2
 442 90 521 12 620 12 c 2
 740 12 l 1
 740 -172 l 1
 620 -172 l 2
 419 -172 258 -10 258 190 c 2
 258 430 l 2xe8
 258 527 212 608 120 608 c 2
 90 608 l 1
 90 792 l 1xf0
 120 792 l 2
 215 792 258 877 258 970 c 2
 258 1210 l 2
 258 1411 420 1572 620 1572 c 2
 740 1572 l 1
 740 1388 l 1
 620 1388 l 2xe8
EndSplineSet
Validated: 3073
EndChar

StartChar: bar
Encoding: 124 124 91
Width: 922
VWidth: 1947
GlyphClass: 2
Flags: W
VStem: 370 182<-77 1477>
LayerCount: 2
Fore
SplineSet
370 1477 m 1
 552 1477 l 1
 552 -77 l 1
 370 -77 l 1
 370 1477 l 1
EndSplineSet
Validated: 3073
EndChar

StartChar: braceright
Encoding: 125 125 92
Width: 922
VWidth: 1947
GlyphClass: 2
Flags: W
HStem: -172 184<90 326.519> 608 184<614.418 740> 1388 184<90 326.132>
VStem: 388 184<73.8678 566.931 831.847 1326.52> 488 252<482 918>
CounterMasks: 1 e0
LayerCount: 2
Fore
SplineSet
210 1572 m 2xf0
 410 1572 572 1411 572 1210 c 2
 572 970 l 2xf0
 572 877 615 792 710 792 c 2
 740 792 l 1
 740 608 l 1xe8
 710 608 l 2
 618 608 572 527 572 430 c 2
 572 190 l 2
 572 -10 411 -172 210 -172 c 2
 90 -172 l 1
 90 12 l 1
 210 12 l 2
 309 12 388 90 388 190 c 2
 388 430 l 2xf0
 388 539 425 634 488 700 c 1xe8
 425 766 388 861 388 970 c 2
 388 1210 l 2
 388 1309 310 1388 210 1388 c 2
 90 1388 l 1
 90 1572 l 1
 210 1572 l 2xf0
EndSplineSet
Validated: 3073
EndChar

StartChar: asciitilde
Encoding: 126 126 93
Width: 922
VWidth: 1947
GlyphClass: 2
Flags: W
HStem: 709 184<534.439 662.674> 885 184<260.862 389.609>
DStem2: 472 999 455 776 0.707107 -0.707107<-37.7855 180.412>
LayerCount: 2
Fore
SplineSet
317 885 m 2x40
 299 885 263 870 227 775 c 1
 51 825 l 1
 133 1065 283 1069 317 1069 c 2
 332 1069 l 2x40
 367 1069 400 1068 472 999 c 2
 565 906 l 2
 575 896 582 893 593 893 c 2
 605 893 l 1
 646 893 683 963 697 1006 c 1
 871 948 l 1
 802 723 637 709 605 709 c 2
 590 709 l 2x80
 526 709 487 745 455 776 c 2
 362 868 l 2
 348 882 330 885 329 885 c 2
 317 885 l 2x40
EndSplineSet
Validated: 3073
EndChar

StartChar: cent
Encoding: 162 162 96
Width: 922
VWidth: 2334
GlyphClass: 2
Flags: W
HStem: -25 186<515 608.922> 864 184<339.081 455>
VStem: 90 184<241.188 791.164>
DStem2: 281 -94 463 -126 0.178422 0.983954<0.986213 103.577 313.049 933.874 1160.61 1328.31>
LayerCount: 2
Fore
SplineSet
452 1048 m 0
 488 1048 l 1
 518 1213 l 1
 700 1181 l 1
 668 1005 l 1
 746 964 791 897 813 825 c 1
 637 771 l 1
 635 779 632 786 629 792 c 1
 515 161 l 1
 595 171 623 208 637 249 c 1
 811 191 l 1
 772 74 675 -25 481 -25 c 1
 463 -126 l 1
 281 -94 l 1
 300 11 l 1
 172 77 90 230 90 427 c 2
 90 597 l 2
 90 866 213 1048 452 1048 c 0
337 214 m 1
 455 864 l 1
 452 864 l 2
 357 864 274 811 274 597 c 2
 274 427 l 2
 274 335 297 261 337 214 c 1
EndSplineSet
Validated: 3073
EndChar

StartChar: sterling
Encoding: 163 163 97
Width: 922
VWidth: 1947
GlyphClass: 2
Flags: W
HStem: -25 184<534.44 749.945> 64 184<395 479.012> 607 184<70 160 443 720> 1241 184<351.009 578.678>
VStem: 90 184<885.406 1166.59> 270 184<323.195 605.132>
DStem2: 309 905 145 823 0.447214 -0.894427<-165.922 35.3299> 527 208 501 5 0.835705 -0.549178<-83.3839 149.061>
LayerCount: 2
Fore
SplineSet
470 1241 m 2xb8
 452 1241 l 2
 365 1241 274 1143 274 1063 c 2
 274 1023 l 2xb8
 274 975 298 927 309 905 c 2
 366 791 l 1
 720 791 l 1
 720 607 l 1
 443 607 l 1
 451 575 454 545 454 516 c 2
 454 470 l 2
 454 390 430 315 395 248 c 1x74
 435 248 484 237 527 208 c 2
 597 162 l 18
 600 160 602 159 605 159 c 2
 650 159 l 2
 691 159 739 191 752 206 c 1
 892 88 l 1
 845 32 747 -25 650 -25 c 2
 605 -25 l 18xb4
 593 -25 541 -21 501 5 c 2
 427 54 l 2
 420 58 409 64 391 64 c 2
 362 64 l 2x74
 306 64 270 64 172 0 c 2
 140 -25 l 1
 40 132 l 1
 72 153 l 2
 155 207 270 343 270 470 c 2
 270 516 l 2xb4
 270 536 267 567 251 607 c 1
 70 607 l 1
 70 791 l 1
 160 791 l 1
 145 823 l 2
 122 868 90 943 90 1023 c 2
 90 1063 l 2
 90 1252 270 1425 452 1425 c 2
 470 1425 l 2
 597 1425 711 1349 774 1249 c 1
 618 1151 l 1
 581 1210 522 1241 470 1241 c 2xb8
EndSplineSet
Validated: 3073
EndChar

StartChar: euro
Encoding: 8364 8364 98
Width: 922
VWidth: 1947
GlyphClass: 2
Flags: W
HStem: -25 184<447.845 660.097> 473 184<60 164 357 613> 783 184<90 164 362 743> 1241 184<444.808 662.921>
VStem: 164 184<293.488 473 657 783 967 1106.18>
LayerCount: 2
Fore
SplineSet
90 783 m 1
 90 967 l 1
 177 967 l 1
 206 1200 292 1425 544 1425 c 0
 675 1425 797 1355 856 1241 c 1
 694 1157 l 1
 667 1207 614 1241 544 1241 c 0
 444 1241 386 1152 362 967 c 1
 743 967 l 1
 743 783 l 1
 348 783 l 1
 348 657 l 1
 613 657 l 1
 613 473 l 1
 357 473 l 1
 378 262 437 159 544 159 c 0
 611 159 666 192 693 246 c 1
 857 161 l 1
 797 46 678 -25 544 -25 c 0
 277 -25 196 230 172 473 c 1
 60 473 l 1
 60 657 l 1
 164 657 l 1
 164 783 l 1
 90 783 l 1
EndSplineSet
Validated: 3073
EndChar

StartChar: yen
Encoding: 165 165 99
Width: 922
VWidth: 1947
GlyphClass: 2
Flags: W
HStem: 63 184<90 369 553 832> 420 184<90 334 588 832> 1380 20G<72 271.61 650.39 850>
VStem: 72 193<1207 1400> 369 184<-160 63 247 420> 657 193<1207 1400>
DStem2: 265 1400 72 1400 0.312646 -0.94987<0 624.551> 461 807 588 604 0.312646 0.94987<0 624.551>
CounterMasks: 1 1c
LayerCount: 2
Fore
SplineSet
832 604 m 1
 832 420 l 1
 553 420 l 1
 553 247 l 1
 832 247 l 1
 832 63 l 1
 553 63 l 1
 553 -160 l 1
 369 -160 l 1
 369 63 l 1
 90 63 l 1
 90 247 l 1
 369 247 l 1
 369 420 l 1
 90 420 l 1
 90 604 l 1
 334 604 l 1
 72 1400 l 1
 265 1400 l 1
 461 807 l 1
 657 1400 l 1
 850 1400 l 1
 588 604 l 1
 832 604 l 1
EndSplineSet
Validated: 3073
EndChar

StartChar: section
Encoding: 167 167 101
Width: 922
VWidth: 1947
GlyphClass: 2
Flags: W
HStem: -186 186<380.234 596.779> 323 184<349.524 578.646> 889 184<348.067 570.991> 1400 182<330.957 532.266>
VStem: 90 184<580.667 813.713 1134.83 1342.9> 648 184<51.7092 258.181 577.004 814.59>
LayerCount: 2
Fore
SplineSet
453 1073 m 2
 470 1073 l 2
 652 1073 832 900 832 711 c 2
 832 685 l 2
 832 582 780 484 703 415 c 1
 807 339 830 190 832 172 c 2
 832 149 l 2
 832 -34 665 -186 497 -186 c 2
 481 -186 l 2
 341 -186 219 -86 170 31 c 1
 340 101 l 1
 363 46 425 0 481 0 c 2
 497 0 l 2
 569 0 648 74 648 149 c 2
 648 172 l 1
 648 256 532 323 469 323 c 2
 452 323 l 2
 266 323 90 494 90 685 c 2
 90 711 l 2
 90 813 143 911 220 979 c 1
 117 1071 92 1209 90 1224 c 2
 90 1247 l 2
 90 1422 255 1582 425 1582 c 2
 441 1582 l 2
 563 1582 690 1498 747 1373 c 1
 580 1297 l 1
 556 1348 497 1400 441 1400 c 2
 425 1400 l 2
 353 1400 274 1317 274 1247 c 2
 274 1224 l 1
 274 1135 393 1073 453 1073 c 2
470 889 m 2
 452 889 l 2
 365 889 274 791 274 711 c 2
 274 685 l 2
 274 600 364 507 452 507 c 2
 470 507 l 2
 558 507 648 599 648 685 c 2
 648 711 l 2
 648 791 557 889 470 889 c 2
EndSplineSet
Validated: 3073
EndChar

StartChar: copyright
Encoding: 169 169 103
Width: 922
VWidth: 1947
GlyphClass: 2
Flags: W
HStem: 165 92<279.518 640.37> 363 92<347.63 589.957> 760 92<348.259 590.445> 958 92<275.849 643.987>
VStem: 19 92<425.206 788.715> 217 92<495.212 720.785> 811 92<428.037 790.99>
LayerCount: 2
Fore
SplineSet
903 608 m 0
 903 376 749 165 461 165 c 0
 178 165 19 369 19 608 c 0
 19 852 182 1050 461 1050 c 0
 747 1050 903 849 903 608 c 0
461 958 m 0
 230 958 111 797 111 608 c 0
 111 422 227 257 461 257 c 0
 698 257 811 428 811 608 c 0
 811 794 699 958 461 958 c 0
461 363 m 0
 308 363 217 473 217 608 c 0
 217 744 310 852 461 852 c 0
 568 852 621 801 639 782 c 1
 573 718 l 1
 543 749 500 760 461 760 c 0
 357 760 309 689 309 608 c 0
 309 528 356 455 461 455 c 0
 503 455 544 467 574 499 c 1
 641 437 l 1
 593 385 529 363 461 363 c 0
EndSplineSet
Validated: 3073
EndChar

StartChar: ordfeminine
Encoding: 170 170 104
Width: 922
VWidth: 1947
GlyphClass: 2
Flags: W
HStem: 227 184<90 832> 501 184<341.643 549.825> 921 184<349.31 606> 1257 184<338.181 581.824>
VStem: 132 184<713.842 889.335> 606 184<536 542 742.669 921 1105 1232.6>
LayerCount: 2
Fore
SplineSet
159 1270 m 1
 177 1307 233 1441 453 1441 c 2
 469 1441 l 2
 527 1441 790 1426 790 1120 c 2
 790 822 l 1
 790 536 l 1
 606 536 l 1
 606 542 l 1
 544 503 509 501 469 501 c 2
 453 501 l 2
 254 501 132 650 132 783 c 2
 132 822 l 2
 132 933 231 1105 453 1105 c 2
 606 1105 l 1
 606 1120 l 2
 606 1248 526 1257 469 1257 c 2
 453 1257 l 2
 350 1257 336 1215 329 1199 c 1
 159 1270 l 1
832 411 m 1
 832 227 l 1
 90 227 l 1
 90 411 l 1
 832 411 l 1
606 921 m 1
 453 921 l 2
 396 921 316 875 316 822 c 2
 316 783 l 2
 316 737 367 685 453 685 c 2
 469 685 l 2
 542 685 606 801 606 822 c 2
 606 921 l 1
EndSplineSet
Validated: 3073
EndChar

StartChar: guillemotleft
Encoding: 171 171 105
Width: 922
VWidth: 1947
GlyphClass: 2
Flags: W
DStem2: 80 540 264 484 0.554044 0.832487<55.3249 351.957> 264 453 80 397 0.557322 -0.830296<0 295.631> 500 540 684 484 0.554044 0.832487<55.3249 351.957> 684 453 500 397 0.557322 -0.830296<0 295.631>
LayerCount: 2
Fore
SplineSet
696 105 m 1
 500 397 l 1
 500 540 l 1
 695 833 l 1
 849 731 l 1
 684 484 l 1
 684 453 l 1
 848 207 l 1
 696 105 l 1
276 105 m 1
 80 397 l 1
 80 540 l 1
 275 833 l 1
 429 731 l 1
 264 484 l 1
 264 453 l 1
 428 207 l 1
 276 105 l 1
EndSplineSet
Validated: 3073
EndChar

StartChar: logicalnot
Encoding: 172 172 106
Width: 922
VWidth: 1708
GlyphClass: 2
Flags: W
HStem: 508 184<50 648>
VStem: 648 184<246 508>
LayerCount: 2
Fore
SplineSet
50 692 m 1
 832 692 l 1
 832 246 l 1
 648 246 l 1
 648 508 l 1
 50 508 l 1
 50 692 l 1
EndSplineSet
Validated: 3073
EndChar

StartChar: softhyphen
Encoding: 173 173 107
Width: 922
VWidth: 1947
GlyphClass: 2
Flags: W
HStem: 508 184<222 700>
VStem: 222 478<508 692>
LayerCount: 2
Fore
SplineSet
700 692 m 1
 700 508 l 1
 222 508 l 1
 222 692 l 1
 700 692 l 1
EndSplineSet
Validated: 3073
EndChar

StartChar: registered
Encoding: 174 174 108
Width: 922
VWidth: 1947
GlyphClass: 2
Flags: W
HStem: 165 92<279.518 640.37> 568 92<380 447> 774 92<380 561.078> 958 92<275.849 643.987>
VStem: 19 92<425.206 788.715> 288 92<388 568 660 774> 564 92<664.084 771.881> 811 92<428.037 790.99>
DStem2: 553 577 447 568 0.578855 -0.815431<0 198.472>
LayerCount: 2
Fore
SplineSet
461 958 m 0
 230 958 111 797 111 608 c 0
 111 422 227 257 461 257 c 0
 698 257 811 428 811 608 c 0
 811 794 699 958 461 958 c 0
903 608 m 0
 903 376 749 165 461 165 c 0
 178 165 19 369 19 608 c 0
 19 852 182 1050 461 1050 c 0
 747 1050 903 849 903 608 c 0
564 739 m 1
 564 740 564 742 564 743 c 0
 564 758 561 774 476 774 c 2
 380 774 l 1
 380 660 l 1
 476 660 l 1
 551 660 564 677 564 704 c 2
 564 739 l 1
656 704 m 2
 656 655 632 598 553 577 c 1
 668 415 l 1
 593 362 l 1
 447 568 l 1
 380 568 l 1
 380 388 l 1
 288 388 l 1
 288 866 l 1
 476 866 l 2
 611 866 656 823 656 739 c 1
 656 704 l 2
EndSplineSet
Validated: 3073
EndChar

StartChar: degree
Encoding: 176 176 110
Width: 922
VWidth: 1947
GlyphClass: 2
Flags: W
HStem: 790 184<357.205 564.388> 1241 184<357.947 565.344>
VStem: 144 184<1004.51 1211.84> 594 184<1005.04 1212.01>
LayerCount: 2
Fore
SplineSet
778 1108 m 0
 778 939 660 790 461 790 c 0
 264 790 144 934 144 1108 c 0
 144 1285 268 1425 461 1425 c 0
 659 1425 778 1283 778 1108 c 0
461 1241 m 0
 363 1241 328 1177 328 1108 c 0
 328 1040 363 974 461 974 c 0
 560 974 594 1044 594 1108 c 0
 594 1174 561 1241 461 1241 c 0
EndSplineSet
Validated: 3073
EndChar

StartChar: plusminus
Encoding: 177 177 111
Width: 922
VWidth: 1947
GlyphClass: 2
Flags: W
HStem: 48 184<50 872> 738 184<50 369 553 872>
VStem: 369 184<419 738 922 1241>
LayerCount: 2
Fore
SplineSet
872 922 m 1
 872 738 l 1
 553 738 l 1
 553 419 l 1
 369 419 l 1
 369 738 l 1
 50 738 l 1
 50 922 l 1
 369 922 l 1
 369 1241 l 1
 553 1241 l 1
 553 922 l 1
 872 922 l 1
872 232 m 1
 872 48 l 1
 50 48 l 1
 50 232 l 1
 872 232 l 1
EndSplineSet
Validated: 3073
EndChar

StartChar: twosuperior
Encoding: 178 178 112
Width: 922
VWidth: 2334
GlyphClass: 2
Flags: W
HStem: 558 184<467 686> 1241 184<418.743 542.389>
VStem: 543 184<1092 1236.08>
DStem2: 512 1107 467 742 0.599498 0.800376<-316.776 103.081>
LayerCount: 2
Fore
SplineSet
477 1425 m 2
 487 1425 l 2
 644 1425 727 1327 727 1185 c 2
 727 1163 l 2
 724 1137 716 1074 658 997 c 2
 476 755 l 2
 475 753 468 743 467 742 c 1
 686 742 l 1
 686 558 l 1
 230 558 l 1
 230 641 l 1
 239 675 l 2
 254 725 280 800 330 867 c 2
 512 1107 l 2
 538 1142 543 1157 543 1163 c 2
 543 1185 l 2
 543 1233 532 1241 487 1241 c 2
 477 1241 l 2
 440 1241 434 1232 418 1195 c 1
 250 1269 l 1
 283 1347 341 1425 477 1425 c 2
EndSplineSet
Validated: 3073
EndChar

StartChar: threesuperior
Encoding: 179 179 113
Width: 922
VWidth: 2334
GlyphClass: 2
Flags: W
HStem: 540 184<374.743 544.783> 930 184<356 521.558> 1236 184<373.904 520.719>
VStem: 523 184<1115.05 1231.66> 553 184<734.293 922.455>
LayerCount: 2
Fore
SplineSet
205 1270 m 1xf0
 206 1272 282 1420 455 1420 c 2
 467 1420 l 2
 598 1420 707 1324 707 1180 c 2
 707 1157 l 2xf0
 707 1114 693 1071 667 1034 c 1
 722 975 737 893 737 824 c 2
 737 813 l 2
 737 651 647 540 467 540 c 2
 455 540 l 2
 244 540 185 684 185 780 c 1
 369 780 l 1
 369 738 436 724 455 724 c 2
 467 724 l 2
 532 724 553 743 553 813 c 2
 553 824 l 2xe8
 553 927 504 930 473 930 c 0
 467 930 l 1
 356 930 l 1
 356 1114 l 1
 468 1114 l 2
 503 1114 523 1145 523 1157 c 2
 523 1180 l 2
 523 1194 520 1236 467 1236 c 2
 455 1236 l 2
 430 1236 392 1227 373 1194 c 1
 205 1270 l 1xf0
EndSplineSet
Validated: 3073
EndChar

StartChar: micro
Encoding: 181 181 115
Width: 922
VWidth: 2334
GlyphClass: 2
Flags: W
HStem: -25 184<339.407 560.387> 1003 20G<90 274 648 832>
VStem: 90 184<-315.204 21 228.64 1023> 648 184<255.656 397 397 1023>
LayerCount: 2
Fore
SplineSet
654 40 m 1
 601 -0 539 -25 470 -25 c 2
 452 -25 l 2
 385 -25 325 -9 274 21 c 1
 274 -25 l 2
 274 -166 271 -244 229 -376 c 1
 53 -320 l 1
 87 -217 90 -159 90 -25 c 2
 90 1023 l 1
 274 1023 l 1
 274 397 l 2
 274 300 308 159 452 159 c 2
 470 159 l 2
 564 159 648 301 648 397 c 2
 648 1023 l 1
 832 1023 l 1
 832 116 l 2
 832 66 844 31 858 -12 c 1
 682 -68 l 1
 669 -26 659 5 654 40 c 1
EndSplineSet
Validated: 3073
EndChar

StartChar: paragraph
Encoding: 182 182 116
Width: 922
VWidth: 1947
GlyphClass: 2
Flags: W
HStem: 0 21G<288 472 648 832> 1308 184<472 648>
VStem: 60 412<814.301 1305.53> 288 184<0 645> 648 184<0 1308>
LayerCount: 2
Fore
SplineSet
60 1095 m 2xe8
 60 1447 302 1492 362 1492 c 2
 832 1492 l 1
 832 0 l 1
 648 -0 l 1
 648 1308 l 1
 472 1308 l 1
 472 -0 l 1
 288 0 l 1
 288 645 l 1xd8
 225 663 60 736 60 1057 c 2
 60 1095 l 2xe8
EndSplineSet
Validated: 3073
EndChar

StartChar: periodcentered
Encoding: 183 183 117
Width: 922
VWidth: 1947
GlyphClass: 2
Flags: W
HStem: 617 260<363.547 557.7>
VStem: 331 259<649.643 844.694>
LayerCount: 2
Fore
SplineSet
590 747 m 0
 590 678 537 617 460 617 c 0
 386 617 331 677 331 747 c 0
 331 815 382 877 460 877 c 0
 536 877 590 817 590 747 c 0
EndSplineSet
Validated: 3073
EndChar

StartChar: onesuperior
Encoding: 185 185 119
Width: 922
VWidth: 1708
GlyphClass: 2
Flags: W
HStem: 1405 20G<487.624 618>
VStem: 434 184<641 1191>
LayerCount: 2
Fore
SplineSet
618 1425 m 1
 618 641 l 1
 434 641 l 1
 434 1191 l 1
 365 1140 l 1
 313 1204 l 1
 505 1425 l 1
 618 1425 l 1
EndSplineSet
Validated: 3073
EndChar

StartChar: ordmasculine
Encoding: 186 186 120
Width: 922
VWidth: 1947
GlyphClass: 2
Flags: W
HStem: 227 184<90 832> 506 184<363.891 558.109> 1261 184<363.891 558.109>
VStem: 123 184<752.56 1199.46> 615 184<752.56 1199.46>
LayerCount: 2
Fore
SplineSet
832 411 m 1
 832 227 l 1
 90 227 l 1
 90 411 l 1
 832 411 l 1
799 977 m 0
 799 573 596 506 461 506 c 0
 326 506 123 573 123 977 c 0
 123 1378 326 1445 461 1445 c 0
 596 1445 799 1378 799 977 c 0
461 1261 m 0
 354 1261 307 1170 307 977 c 0
 307 782 354 690 461 690 c 0
 568 690 615 782 615 977 c 0
 615 1170 568 1261 461 1261 c 0
EndSplineSet
Validated: 3073
EndChar

StartChar: guillemotright
Encoding: 187 187 121
Width: 922
VWidth: 1947
GlyphClass: 2
Flags: W
DStem2: 227 833 73 731 0.555477 -0.831532<0 296.315> 74 207 226 105 0.557322 0.830296<0.0227486 295.654> 647 833 493 731 0.555477 -0.831532<0 296.315> 494 207 646 105 0.557322 0.830296<0.0227486 295.654>
LayerCount: 2
Fore
SplineSet
238 453 m 1
 238 484 l 1
 73 731 l 1
 227 833 l 1
 422 540 l 1
 422 397 l 1
 226 105 l 1
 74 207 l 1
 238 453 l 1
658 453 m 1
 658 484 l 1
 493 731 l 1
 647 833 l 1
 842 540 l 1
 842 397 l 1
 646 105 l 1
 494 207 l 1
 658 453 l 1
EndSplineSet
Validated: 3073
EndChar

StartChar: OE
Encoding: 338 338 122
Width: 922
VWidth: 1947
GlyphClass: 2
Flags: W
HStem: 0 184<210.488 415.171 613 821> 640 184<613 770> 1216 184<206.19 413.233 613 821>
VStem: 9 184<201.938 276 276 1198.25> 429 341<640 824> 429 184<199.242 640 824 1200.67>
LayerCount: 2
Fore
SplineSet
285 1216 m 2xf4
 251 1216 193 1191 193 1124 c 2
 193 276 l 2
 193 258 206 192 285 184 c 2
 341 184 l 2
 367 184 429 211 429 276 c 2
 429 1124 l 2
 429 1156 403 1209 341 1216 c 2
 285 1216 l 2xf4
285 1400 m 2
 341 1400 l 1
 352 1400 386 1400 429 1384 c 1
 429 1400 l 1
 821 1400 l 1
 821 1216 l 1
 613 1216 l 1
 613 824 l 1xf4
 770 824 l 1
 770 640 l 1xf8
 613 640 l 1
 613 184 l 1
 821 184 l 1
 821 0 l 1
 429 0 l 1
 429 17 l 1
 403 7 373 0 341 0 c 2
 285 0 l 2
 34 26 9 218 9 276 c 2
 9 1124 l 2
 9 1374 226 1400 285 1400 c 2
EndSplineSet
Validated: 3073
EndChar

StartChar: oe
Encoding: 339 339 123
Width: 922
VWidth: 1947
GlyphClass: 2
Flags: W
HStem: -25 184<205.771 351.987 568.478 716.093> 450 184<553 729> 865 184<207.787 353.344 570.013 716.229>
VStem: 9 184<173.826 851.589> 369 184<175.425 450 634 848.575> 729 184<634 850.174>
CounterMasks: 1 1c
LayerCount: 2
Fore
SplineSet
281 159 m 3
 307 159 362 186 369 251 c 2
 369 773 l 2
 369 811 333 865 281 865 c 3
 235 865 193 825 193 773 c 2
 193 251 l 2
 193 197 232 159 281 159 c 3
460 49 m 1
 417 9 353 -25 281 -25 c 3
 132 -25 9 94 9 251 c 2
 9 773 l 2
 9 934 140 1049 280 1049 c 3
 342 1049 406 1026 462 975 c 1
 505 1015 569 1049 641 1049 c 3
 790 1049 913 930 913 773 c 2
 913 450 l 1
 553 450 l 1
 553 251 l 2
 553 200 601 159 647 159 c 3
 677 159 706 175 722 215 c 1
 892 145 l 1
 849 40 749 -25 643 -25 c 3
 580 -25 515 -2 460 49 c 1
641 865 m 3
 615 865 560 838 553 773 c 2
 553 634 l 1
 729 634 l 1
 729 773 l 2
 729 827 690 865 641 865 c 3
EndSplineSet
Validated: 3073
EndChar

StartChar: AE
Encoding: 198 198 132
Width: 922
VWidth: 1947
GlyphClass: 2
Flags: W
HStem: 0 184<613 821> 640 184<310 429 613 770> 1216 184<613 821>
VStem: 0 185<0 94.588> 429 184<184 640 824 1211>
LayerCount: 2
Fore
SplineSet
429 824 m 1
 429 1211 l 1
 387 1199 362 1163 356 1122 c 2
 310 824 l 1
 429 824 l 1
185 -0 m 1
 123 -0 62 0 0 0 c 1
 0 9 l 1
 174 1150 l 2
 193 1277 290 1400 429 1400 c 2
 821 1400 l 1
 821 1216 l 1
 613 1216 l 1
 613 824 l 1
 770 824 l 1
 770 640 l 1
 613 640 l 1
 613 184 l 1
 821 184 l 1
 821 0 l 1
 429 0 l 1
 429 640 l 1
 282 640 l 1
 185 -0 l 1
EndSplineSet
Validated: 3073
EndChar

StartChar: Eth
Encoding: 208 208 142
Width: 922
VWidth: 1947
GlyphClass: 2
Flags: W
HStem: 0 184<314 562.169> 664 184<42 130 314 452> 1216 184<314 563.991>
VStem: 130 184<184 664 848 1216> 658 184<314.054 1087.26>
LayerCount: 2
Fore
SplineSet
461 1216 m 2
 314 1216 l 1
 314 848 l 1
 452 848 l 1
 452 664 l 1
 314 664 l 1
 314 184 l 1
 461 184 l 2
 603 184 658 343 658 700 c 0
 658 1054 608 1216 461 1216 c 2
842 700 m 0
 842 385 801 0 461 0 c 2
 130 0 l 1
 130 664 l 1
 42 664 l 1
 42 848 l 1
 130 848 l 1
 130 1400 l 1
 461 1400 l 2
 808 1400 842 1005 842 700 c 0
EndSplineSet
Validated: 3073
EndChar

StartChar: multiply
Encoding: 215 215 149
Width: 922
VWidth: 1708
GlyphClass: 2
Flags: W
HStem: 470 260<331 591>
VStem: 331 260<470 730>
DStem2: 235 956 105 826 0.707107 -0.707107<0 319.612 503.46 823.072> 105 374 235 244 0.707107 0.707107<0 319.612 503.46 823.072>
LayerCount: 2
Fore
SplineSet
687 956 m 1
 817 826 l 1
 591 600 l 1
 817 374 l 1
 687 244 l 1
 461 470 l 1
 235 244 l 1
 105 374 l 1
 331 600 l 1
 105 826 l 1
 235 956 l 1
 461 730 l 1
 687 956 l 1
EndSplineSet
Validated: 3073
EndChar

StartChar: Thorn
Encoding: 222 222 156
Width: 922
VWidth: 1947
GlyphClass: 2
Flags: W
HStem: 0 21G<90 274> 353 184<274 605.093> 1106 184<274 611.207>
VStem: 90 184<0 353 537 1106 1290 1540> 648 184<576.463 715 715 1072.52>
LayerCount: 2
Fore
SplineSet
470 1290 m 2
 789 1290 832 1079 832 953 c 2
 832 715 l 2
 832 501 719 353 470 353 c 2
 274 353 l 1
 274 -0 l 1
 90 0 l 1
 90 1540 l 1
 274 1540 l 1
 274 1290 l 1
 470 1290 l 2
648 953 m 2
 648 1042 621 1106 470 1106 c 2
 274 1106 l 1
 274 537 l 1
 470 537 l 2
 599 537 648 586 648 715 c 2
 648 953 l 2
EndSplineSet
Validated: 3073
EndChar

StartChar: germandbls
Encoding: 223 223 157
Width: 922
VWidth: 1947
GlyphClass: 2
Flags: W
HStem: -25 184<436.662 611.467> 663 184<402 559.988> 1241 184<316.907 555.657>
VStem: 90 184<-388 1200.75> 598 184<884.422 1190.54> 648 184<189.24 623.551>
LayerCount: 2
Fore
SplineSet
598 1063 m 2xf8
 598 1209 505 1241 470 1241 c 1
 452 1241 l 2
 324 1241 274 1190 274 1064 c 2
 274 -388 l 1
 90 -388 l 1
 90 1064 l 2
 90 1274 203 1425 452 1425 c 2
 470 1425 l 1
 500 1425 782 1374 782 1063 c 2
 782 1023 l 2xf8
 782 924 758 841 707 779 c 1
 785 720 832 624 832 485 c 2
 832 337 l 2
 832 100 696 -25 515 -25 c 2
 507 -25 l 2
 489 -25 381 -16 311 47 c 1
 436 181 l 1
 450 165 472 159 507 159 c 2
 515 159 l 2
 586 159 648 193 648 337 c 2
 648 485 l 2xf4
 648 613 598 663 470 663 c 2
 402 663 l 1
 402 847 l 1
 420 847 l 2
 549 847 598 895 598 1023 c 2
 598 1063 l 2xf8
EndSplineSet
Validated: 3073
EndChar

StartChar: ae
Encoding: 230 230 164
Width: 922
VWidth: 1947
GlyphClass: 2
Flags: W
HStem: -25 184<205.859 353.603 568.618 716.093> 450 184<208.179 369 553 729> 865 184<206.358 353.519 570.013 715.869>
VStem: 9 184<171.704 433.76> 369 184<174.662 450 634 848.871> 729 184<634 850.174>
CounterMasks: 1 1c
LayerCount: 2
Fore
SplineSet
553 251 m 2
 553 200 601 159 647 159 c 3
 677 159 706 175 722 215 c 1
 892 145 l 1
 849 40 749 -25 643 -25 c 3
 580 -25 516 -2 460 49 c 1
 404 -2 340 -25 277 -25 c 3
 138 -25 9 88 9 251 c 2
 9 358 l 2
 9 511 129 634 285 634 c 2
 369 634 l 1
 369 773 l 2
 361 846 303 865 281 865 c 3
 248 865 215 843 201 811 c 1
 32 885 l 1
 75 982 171 1049 281 1049 c 3
 351 1049 414 1019 462 975 c 1
 505 1016 569 1049 641 1049 c 3
 791 1049 913 930 913 773 c 2
 913 450 l 1
 553 450 l 1
 553 251 l 2
641 865 m 3
 615 865 560 839 553 773 c 2
 553 634 l 1
 729 634 l 1
 729 773 l 2
 729 826 690 865 641 865 c 3
369 450 m 1
 285 450 l 2
 234 450 193 412 193 358 c 2
 193 251 l 2
 193 195 234 159 278 159 c 3
 333 159 369 214 369 251 c 2
 369 450 l 1
EndSplineSet
Validated: 3073
EndChar

StartChar: eth
Encoding: 240 240 174
Width: 922
VWidth: 1947
GlyphClass: 2
Flags: W
HStem: -25 184<348.658 580.098> 725 184<339.435 574.497> 1388 20G<682.529 742.674>
VStem: 90 184<244.578 651.768> 648 184<234.292 655.324>
DStem2: 150 1185 216 1013 0.934412 0.356195<0.405712 190.547 443.531 626.062>
LayerCount: 2
Fore
SplineSet
452 909 m 2
 470 909 l 2
 508 909 544 904 576 895 c 1
 544 965 501 1036 452 1103 c 1
 216 1013 l 1
 150 1185 l 1
 328 1253 l 1
 291 1292 252 1329 213 1361 c 1
 331 1503 l 1
 388 1456 451 1394 512 1323 c 1
 735 1408 l 1
 801 1236 l 1
 630 1171 l 1
 744 1003 832 808 832 620 c 2
 832 427 l 2
 832 54 615 -25 470 -25 c 2
 452 -25 l 2
 240 -25 90 162 90 427 c 2
 90 457 l 2
 90 727 214 909 452 909 c 2
274 457 m 2
 274 427 l 2
 274 266 345 159 452 159 c 2
 470 159 l 2
 566 159 648 213 648 427 c 2
 648 430 l 1
 648 457 l 2
 648 671 564 725 470 725 c 2
 452 725 l 2
 357 725 274 670 274 457 c 2
EndSplineSet
Validated: 3073
EndChar

StartChar: divide
Encoding: 247 247 181
Width: 922
VWidth: 1947
GlyphClass: 2
Flags: W
HStem: 96 291<369.4 572.465> 508 184<50 872> 813 294<367.415 572.079>
VStem: 323 292<142.125 341.964 857.651 1062.35>
LayerCount: 2
Fore
SplineSet
872 692 m 1
 872 508 l 1
 50 508 l 1
 50 692 l 1
 872 692 l 1
615 960 m 0
 615 890 555 813 471 813 c 0
 379 813 323 897 323 960 c 0
 323 1023 379 1107 471 1107 c 0
 555 1107 615 1030 615 960 c 0
615 243 m 0
 615 170 556 96 471 96 c 0
 387 96 323 173 323 243 c 0
 323 308 384 387 471 387 c 0
 558 387 615 308 615 243 c 0
EndSplineSet
Validated: 3073
EndChar

StartChar: oslash
Encoding: 248 248 182
Width: 922
VWidth: 1947
GlyphClass: 2
Flags: W
HStem: -25 184<381.252 577.664> 864 184<344.336 549.287>
VStem: 80 184<365.569 765.411> 658 184<258.753 643.047>
DStem2: 64 0 224 -94 0.499587 0.866264<0 125.268 419.867 852.364 1158.12 1279.06>
LayerCount: 2
Fore
SplineSet
461 864 m 3
 335 864 264 769 264 513 c 3
 264 455 268 405 275 363 c 1
 550 842 l 3
 525 857 495 864 461 864 c 3
842 513 m 3
 842 50 613 -25 461 -25 c 3
 408 -25 345 -16 287 16 c 1
 224 -94 l 1
 64 0 l 1
 153 152 l 1
 109 233 80 348 80 513 c 3
 80 973 309 1048 461 1048 c 3
 516 1048 582 1038 643 1003 c 1
 703 1108 l 1
 863 1016 l 1
 774 864 l 1
 815 785 842 670 842 513 c 3
650 646 m 1
 380 177 l 1
 403 165 431 159 461 159 c 3
 587 159 658 255 658 513 c 3
 658 564 655 608 650 646 c 1
EndSplineSet
Validated: 3073
EndChar

StartChar: thorn
Encoding: 254 254 188
Width: 922
VWidth: 1947
GlyphClass: 2
Flags: W
HStem: -385 21G<90 274> -25 184<332.606 577.664> 864 184<332.606 577.664> 1380 20G<90 274>
VStem: 90 184<-385 20 220.716 802.696 1003 1400> 658 184<258.753 765.411>
LayerCount: 2
Fore
SplineSet
842 513 m 0
 842 50 613 -25 461 -25 c 0
 391 -25 328 -9 274 20 c 1
 274 -385 l 1
 90 -385 l 1
 90 1400 l 1
 274 1400 l 1
 274 1003 l 1
 328 1032 391 1048 461 1048 c 0
 613 1048 842 973 842 513 c 0
274 374 m 2
 274 272 311 159 461 159 c 0
 587 159 658 255 658 513 c 0
 658 769 587 864 461 864 c 0
 311 864 274 751 274 653 c 2
 274 374 l 2
EndSplineSet
Validated: 3073
EndChar

StartChar: minus
Encoding: 8722 8722 190
Width: 922
VWidth: 1708
GlyphClass: 2
Flags: W
HStem: 508 184<50 872>
LayerCount: 2
Fore
SplineSet
872 692 m 1
 872 508 l 1
 50 508 l 1
 50 692 l 1
 872 692 l 1
EndSplineSet
Validated: 3073
EndChar

StartChar: quoteleft
Encoding: 8216 8216 192
Width: 922
VWidth: 1947
GlyphClass: 2
Flags: W
HStem: 1353 74<553.724 603.875>
VStem: 324 174<1029 1292.18>
LayerCount: 2
Fore
SplineSet
535 1166 m 1
 565 1142 583 1104 583 1064 c 0
 583 996 532 934 454 934 c 0
 378 934 324 994 324 1064 c 0
 324 1195 338 1399 600 1427 c 1
 620 1353 l 1
 571 1335 498 1290 498 1234 c 0
 498 1213 509 1190 535 1166 c 1
EndSplineSet
EndChar

StartChar: gravemodifier
Encoding: 715 715 193
Width: 922
VWidth: 2334
GlyphClass: 2
Flags: W
HStem: 1383 319
VStem: 334 314
DStem2: 334 1592 532 1383 0.725624 0.688092<0 159.725> 450 1702 334 1592 0.687745 -0.725953<0.0764128 287.898>
LayerCount: 2
Fore
SplineSet
648 1493 m 1
 532 1383 l 1
 334 1592 l 1
 450 1702 l 1
 648 1493 l 1
EndSplineSet
Validated: 3073
EndChar

StartChar: acute
Encoding: 180 180 194
Width: 922
VWidth: 1947
GlyphClass: 2
Flags: W
HStem: 1255 385
VStem: 287 349
DStem2: 486 1640 287 1361 0.816666 -0.577111<0 182.171> 287 1361 437 1255 0.580686 0.814128<0.805368 342.698>
LayerCount: 2
Fore
SplineSet
437 1255 m 1
 287 1361 l 1
 486 1640 l 1
 636 1534 l 1
 437 1255 l 1
EndSplineSet
Validated: 3073
EndChar

StartChar: circumflex
Encoding: 710 710 195
Width: 922
VWidth: 1947
GlyphClass: 2
Flags: W
HStem: 1502 136<375 547>
VStem: 215 492
DStem2: 215 1526 307 1394 0.818732 0.574176<0 187.628> 547 1638 461 1502 0.819232 -0.573462<7.53694 195.305>
LayerCount: 2
Fore
SplineSet
547 1638 m 1
 707 1526 l 1
 615 1394 l 1
 461 1502 l 1
 307 1394 l 1
 215 1526 l 1
 375 1638 l 1
 547 1638 l 1
EndSplineSet
Validated: 3073
EndChar

StartChar: tilde
Encoding: 732 732 196
Width: 922
VWidth: 1947
GlyphClass: 2
Flags: W
HStem: 1442 160<492.35 650.319> 1532 160<273.556 429.807>
DStem2: 119 1551 245 1453 0.624695 0.780869<2.18643 136.143> 504 1636 398 1516 0.745241 -0.666795<-65.3937 92.7376> 659 1657 787 1561 0.594391 0.804176<-99.9056 27.4818>
LayerCount: 2
Fore
SplineSet
139 1577 m 2x40
 158 1602 236 1692 344 1692 c 2
 360 1692 l 2x40
 422 1692 474 1663 504 1636 c 2
 523 1619 l 2
 539 1604 551 1602 561 1602 c 2
 578 1602 l 2
 597 1602 622 1607 659 1657 c 2
 676 1680 l 1
 804 1584 l 1
 787 1561 l 2
 713 1460 605 1442 578 1442 c 2
 561 1442 l 2x80
 506 1442 449 1470 417 1499 c 2
 398 1516 l 2
 389 1524 374 1532 360 1532 c 2
 344 1532 l 2
 311 1532 297 1518 265 1478 c 2
 245 1453 l 1
 119 1551 l 1
 139 1577 l 2x40
EndSplineSet
Validated: 3073
EndChar

StartChar: macronmodifier
Encoding: 713 713 197
Width: 922
VWidth: 1947
GlyphClass: 2
Flags: W
HStem: 1458 160<234 687>
VStem: 234 453<1458 1618>
LayerCount: 2
Fore
SplineSet
234 1458 m 1
 234 1618 l 1
 687 1618 l 1
 687 1458 l 1
 234 1458 l 1
EndSplineSet
Validated: 3073
EndChar

StartChar: breve
Encoding: 728 728 198
Width: 922
VWidth: 1947
GlyphClass: 2
Flags: W
HStem: 1400 160<332.361 589.159>
VStem: 167 586
LayerCount: 2
Fore
SplineSet
458 1400 m 0
 342 1400 238 1456 167 1541 c 1
 290 1643 l 1
 356 1564 433 1560 458 1560 c 0
 528 1560 589 1594 632 1645 c 1
 753 1541 l 1
 681 1455 576 1400 458 1400 c 0
EndSplineSet
Validated: 3073
EndChar

StartChar: dotaccent
Encoding: 729 729 199
Width: 922
VWidth: 1947
GlyphClass: 2
Flags: W
HStem: 1407 240<363.761 549.103>
VStem: 337 240<1434.49 1619.51>
LayerCount: 2
Fore
SplineSet
337 1527 m 27
 337 1593 389 1647 456 1647 c 27
 522 1647 577 1593 577 1527 c 27
 577 1461 522 1407 456 1407 c 27
 389 1407 337 1461 337 1527 c 27
EndSplineSet
Validated: 3073
EndChar

StartChar: dieresis
Encoding: 168 168 200
Width: 922
VWidth: 1947
GlyphClass: 2
Flags: W
HStem: 1426 234<185.665 358.888 563.582 735.996>
VStem: 159 227<1452.22 1635.83> 537 225<1452.11 1635.83>
LayerCount: 2
Fore
SplineSet
386 1545 m 0
 386 1482 335 1426 273 1426 c 0
 212 1426 159 1479 159 1545 c 0
 159 1615 215 1660 272 1660 c 0
 337 1660 386 1606 386 1545 c 0
762 1545 m 0
 762 1476 707 1426 650 1426 c 0
 590 1426 537 1480 537 1545 c 0
 537 1611 590 1660 650 1660 c 0
 705 1660 762 1615 762 1545 c 0
EndSplineSet
Validated: 3073
EndChar

StartChar: ring
Encoding: 730 730 202
Width: 922
VWidth: 1947
GlyphClass: 2
Flags: W
HStem: 1223 110<375.515 530.788> 1517 110<375.515 530.788>
VStem: 251 110<1346.23 1503.77> 545 110<1348.51 1501.49>
LayerCount: 2
Fore
SplineSet
251 1425 m 27
 251 1537 339 1627 451 1627 c 27
 563 1627 655 1537 655 1425 c 27
 655 1313 563 1223 451 1223 c 27
 339 1223 251 1313 251 1425 c 27
361 1425 m 27
 361 1374 401 1333 452 1333 c 27
 503 1333 545 1374 545 1425 c 27
 545 1476 503 1517 452 1517 c 27
 401 1517 361 1476 361 1425 c 27
EndSplineSet
Validated: 3073
EndChar

StartChar: cedilla
Encoding: 184 184 203
Width: 922
VWidth: 1947
GlyphClass: 2
Flags: W
HStem: -491 160<358.525 602.558> -212 230<418 576.915>
VStem: 418 160<-79 18> 607 160<-317.298 -220.14>
LayerCount: 2
Fore
SplineSet
578 18 m 1
 578 -79 l 1
 718 -106 767 -180 767 -270 c 0
 767 -419 616 -491 501 -491 c 0
 401 -491 333 -461 256 -411 c 1
 344 -277 l 1
 395 -311 436 -331 501 -331 c 0
 544 -331 607 -308 607 -270 c 0
 607 -227 571 -212 489 -212 c 2
 418 -212 l 1
 418 18 l 1
 578 18 l 1
EndSplineSet
Validated: 3073
EndChar

StartChar: ogonek
Encoding: 731 731 204
Width: 922
VWidth: 1947
GlyphClass: 2
Flags: W
HStem: -425 160<449.852 588.462>
VStem: 288 160<-262.871 -150.921>
DStem2: 347 -70 610 -33 0.707107 0.707107<-31.3547 130.108> 528 -253 632 -375 0.759257 0.650791<-31.6778 34.7089>
LayerCount: 2
Fore
SplineSet
632 -375 m 2
 596 -405 547 -425 496 -425 c 0
 372 -425 288 -324 288 -216 c 0
 288 -160 310 -107 347 -70 c 2
 439 22 l 1
 610 22 l 1
 610 -33 l 1
 461 -182 l 2
 453 -191 448 -202 448 -216 c 0
 448 -243 469 -265 496 -265 c 0
 508 -265 518 -261 528 -253 c 2
 554 -230 l 1
 660 -351 l 1
 632 -375 l 2
EndSplineSet
Validated: 3073
EndChar

StartChar: caron
Encoding: 711 711 205
Width: 922
VWidth: 1947
GlyphClass: 2
Flags: W
HStem: 1422 136<375 547>
VStem: 215 492
DStem2: 307 1666 215 1534 0.818732 -0.574176<0.467843 188.096> 461 1558 547 1422 0.818732 0.574176<0 187.628>
LayerCount: 2
Fore
SplineSet
461 1558 m 1
 615 1666 l 1
 707 1534 l 1
 547 1422 l 1
 375 1422 l 1
 215 1534 l 1
 307 1666 l 1
 461 1558 l 1
EndSplineSet
Validated: 3073
EndChar

StartChar: dotlessi
Encoding: 305 305 206
Width: 922
VWidth: 1947
GlyphClass: 2
Flags: W
HStem: 0 184<182 369 553 740> 840 183<182 369>
VStem: 369 184<184 840>
LayerCount: 2
Fore
SplineSet
740 184 m 1
 740 0 l 1
 182 0 l 1
 182 184 l 1
 369 184 l 1
 369 840 l 1
 182 840 l 1
 182 1023 l 1
 553 1023 l 1
 553 184 l 1
 740 184 l 1
EndSplineSet
Validated: 3073
EndChar

StartChar: currency
Encoding: 164 164 210
Width: 922
VWidth: 1947
GlyphClass: 2
Flags: W
HStem: 437 184<355.153 568.779> 947 184<357.913 564.087>
VStem: 118 184<673.037 891.419> 620 184<673.406 891.419>
DStem2: 177 1196 47 1066 0.707107 -0.707107<0 159.806 824.487 987.121> 47 498 177 368 0.707107 0.707107<0 162.635 827.315 987.121>
LayerCount: 2
Fore
SplineSet
469 947 m 2
 453 947 l 2
 381 947 302 864 302 796 c 2
 302 772 l 2
 302 693 386 621 453 621 c 2
 469 621 l 2
 541 621 620 696 620 772 c 2
 620 796 l 2
 620 864 541 947 469 947 c 2
804 796 m 2
 804 772 l 2
 804 715 788 661 760 613 c 1
 875 498 l 1
 745 368 l 1
 630 483 l 1
 580 454 525 437 469 437 c 2
 453 437 l 2
 396 437 340 454 292 483 c 1
 177 368 l 1
 47 498 l 1
 162 614 l 1
 134 662 118 717 118 772 c 2
 118 796 l 2
 118 849 134 903 162 951 c 1
 47 1066 l 1
 177 1196 l 1
 290 1083 l 1
 339 1113 395 1131 453 1131 c 2
 469 1131 l 2
 527 1131 583 1113 632 1083 c 1
 745 1196 l 1
 875 1066 l 1
 760 951 l 1
 788 903 804 849 804 796 c 2
EndSplineSet
Validated: 3073
EndChar

StartChar: brokenbar
Encoding: 166 166 211
Width: 922
VWidth: 1947
GlyphClass: 2
Flags: W
VStem: 369 184<-77 600 800 1477>
LayerCount: 2
Fore
SplineSet
369 600 m 1
 553 600 l 1
 553 -77 l 1
 369 -77 l 1
 369 600 l 1
369 1477 m 1
 553 1477 l 1
 553 800 l 1
 369 800 l 1
 369 1477 l 1
EndSplineSet
Validated: 3073
EndChar

StartChar: onequarter
Encoding: 188 188 212
Width: 922
VWidth: 1708
GlyphClass: 2
Flags: W
HStem: -35 120<600 717 837 884> 1380 20G<715.35 774.588>
VStem: 156 120<771 1345> 717 120<-209 -35 85 294>
DStem2: 96 -52 268 -118 0.396969 0.917832<7.7017 1581.99> 477 110 600 85 0.4874 0.873179<38.1207 277.641>
LayerCount: 2
Fore
SplineSet
717 294 m 1
 600 85 l 1
 717 85 l 1
 717 294 l 1
276 1555 m 1
 276 771 l 1
 156 771 l 1
 156 1345 l 1
 38 1297 l 1
 3 1334 l 1
 195 1555 l 1
 276 1555 l 1
724 1400 m 1
 896 1332 l 1
 268 -118 l 1
 96 -52 l 1
 724 1400 l 1
477 110 m 1
 736 574 l 1
 837 574 l 1
 837 85 l 1
 884 85 l 1
 884 -35 l 1
 837 -35 l 1
 837 -209 l 1
 717 -209 l 1
 717 -35 l 1
 477 -35 l 1
 477 110 l 1
EndSplineSet
Validated: 3073
EndChar

StartChar: onehalf
Encoding: 189 189 213
Width: 922
VWidth: 1708
GlyphClass: 2
Flags: W
HStem: -270 120<610 883> 413 120<596.833 763.207>
VStem: 156 120<771 1345> 772 120<221.193 405.837>
DStem2: 26 8 198 -58 0.39743 0.917633<7.79418 1580.15> 552 -13 648 -85 0.602646 0.798009<-72.5203 420.483>
LayerCount: 2
Fore
SplineSet
276 1555 m 1
 276 771 l 1
 156 771 l 1
 156 1345 l 1
 38 1297 l 1
 3 1334 l 1
 195 1555 l 1
 276 1555 l 1
654 1458 m 1
 826 1392 l 1
 198 -58 l 1
 26 8 l 1
 654 1458 l 1
476 396 m 1
 504 456 545 533 674 533 c 2
 684 533 l 1
 784 533 892 491 892 325 c 2
 892 303 l 1
 892 277 891 238 830 156 c 2
 648 -85 l 2
 642 -93 627 -113 610 -150 c 1
 883 -150 l 1
 883 -270 l 1
 457 -270 l 1
 457 -230 l 1
 467 -194 l 2
 481 -146 505 -75 552 -13 c 2
 734 228 l 2
 768 273 772 292 772 303 c 1
 772 325 l 2
 772 410 724 413 690 413 c 0
 684 413 l 1
 674 413 l 2
 613 413 605 386 586 348 c 1
 476 396 l 1
EndSplineSet
Validated: 3073
EndChar

StartChar: threequarters
Encoding: 190 190 214
Width: 922
VWidth: 1708
GlyphClass: 2
Flags: W
HStem: -35 120<600 717 837 884> 822 120<149.801 332.122> 1010 20G<15 135> 1212 120<147 311.582> 1380 20G<715.35 774.588> 1518 120<150.546 311.743>
VStem: 15 120<959.56 1030> 320 120<1339.74 1511.02> 347 120<954.816 1196.55> 717 120<-209 -35 85 294>
DStem2: 96 -52 268 -118 0.396969 0.917832<7.7017 1581.99> 477 110 600 85 0.4874 0.873179<38.1207 277.641>
LayerCount: 2
Fore
SplineSet
717 294 m 1xfe40
 600 85 l 1
 717 85 l 1
 717 294 l 1xfe40
724 1400 m 1
 896 1332 l 1
 268 -118 l 1
 96 -52 l 1
 724 1400 l 1
246 942 m 2
 331 942 347 988 347 1063 c 2
 347 1074 l 2xfec0
 347 1181 305 1212 246 1212 c 2
 147 1212 l 1
 147 1332 l 1
 247 1332 l 2
 292 1332 320 1378 320 1407 c 2
 320 1430 l 2
 320 1479 294 1518 246 1518 c 2
 236 1518 l 2
 192 1518 155 1491 142 1459 c 1
 30 1505 l 1
 65 1589 152 1638 236 1638 c 2
 246 1638 l 2
 363 1638 440 1545 440 1430 c 2
 440 1407 l 2xff40
 440 1364 422 1318 391 1281 c 1
 441 1236 467 1164 467 1074 c 2
 467 1063 l 2xfec0
 467 945 423 822 246 822 c 2
 236 822 l 2
 136 822 15 892 15 1030 c 1
 135 1030 l 1
 135 969 191 942 236 942 c 2
 246 942 l 2
477 110 m 1
 736 574 l 1
 837 574 l 1
 837 85 l 1
 884 85 l 1
 884 -35 l 1
 837 -35 l 1
 837 -209 l 1
 717 -209 l 1
 717 -35 l 1
 477 -35 l 1
 477 110 l 1
EndSplineSet
Validated: 3073
EndChar

StartChar: Lslash
Encoding: 321 321 216
Width: 922
VWidth: 1947
GlyphClass: 2
Flags: W
HStem: 0 185<274 832> 1380 20G<90 274>
VStem: 90 184<185 431 681 1400>
DStem2: 13 600 67 424 0.955435 0.295201<0 23.6796 273.28 629.718>
LayerCount: 2
Fore
SplineSet
274 185 m 1
 832 185 l 1
 832 0 l 1
 90 0 l 1
 90 431 l 1
 67 424 l 1
 13 600 l 1
 90 624 l 1
 90 1400 l 1
 274 1400 l 1
 274 681 l 1
 615 786 l 1
 669 610 l 1
 274 488 l 1
 274 185 l 1
EndSplineSet
Validated: 3073
EndChar

StartChar: lslash
Encoding: 322 322 257
Width: 922
VWidth: 1947
GlyphClass: 2
Flags: W
HStem: 0 184<182 369 553 740> 1216 184<182 369>
VStem: 369 184<184 480 730 1216>
DStem2: 133 600 187 424 0.955435 0.295201<0 190.059 439.659 629.718>
LayerCount: 2
Fore
SplineSet
740 184 m 1
 740 0 l 1
 182 0 l 1
 182 184 l 1
 369 184 l 1
 369 480 l 1
 187 424 l 1
 133 600 l 1
 369 673 l 1
 369 1216 l 1
 182 1216 l 1
 182 1400 l 1
 553 1400 l 1
 553 730 l 1
 735 786 l 1
 789 610 l 1
 553 537 l 1
 553 184 l 1
 740 184 l 1
EndSplineSet
Validated: 3073
EndChar

StartChar: dotlessj
Encoding: 567 567 260
Width: 922
VWidth: 1947
GlyphClass: 2
Flags: W
HStem: -385 182<363.931 554.805> 840 183<267 568>
VStem: 568 184<-189.98 840>
LayerCount: 2
Fore
SplineSet
752 -112 m 2
 752 -292 619 -385 483 -385 c 3
 388 -385 292 -341 237 -246 c 1
 396 -154 l 1
 414 -184 450 -203 485 -203 c 3
 528 -203 568 -175 568 -108 c 1
 568 840 l 1
 267 840 l 1
 267 1023 l 1
 752 1023 l 1
 752 -112 l 2
EndSplineSet
Validated: 3073
EndChar

StartChar: eng
Encoding: 331 331 261
Width: 922
VWidth: 2334
GlyphClass: 2
Flags: W
HStem: -385 183<402.29 607.48> 0 21G<90 274> 865 184<368.937 607.712>
VStem: 90 184<0 749.728 982 1023> 648 184<-165.346 822.093>
LayerCount: 2
Fore
SplineSet
452 865 m 2
 340 853 274 673 274 597 c 2
 274 -0 l 1
 90 0 l 1
 90 1023 l 1
 274 1023 l 1
 274 982 l 1
 353 1048 430 1049 452 1049 c 2
 470 1049 l 2
 682 1049 832 936 832 687 c 2
 832 -28 l 2
 832 -224 710 -385 526 -385 c 2
 475 -385 l 2
 330 -385 263 -292 258 -285 c 1
 402 -171 l 1
 408 -180 426 -202 475 -202 c 2
 526 -202 l 2
 606 -202 648 -117 648 -28 c 2
 648 687 l 2
 648 814 598 865 470 865 c 2
 452 865 l 2
EndSplineSet
Validated: 3073
EndChar

StartChar: ellipsis
Encoding: 8230 8230 266
Width: 922
VWidth: 1947
GlyphClass: 2
Flags: W
HStem: 12 201<75.0994 231.18 383.04 538.841 690.378 846.841>
VStem: 58 190<28.3537 196.445> 366 190<28.8501 196.445> 673 191<28.8501 196.445>
LayerCount: 2
Fore
SplineSet
864 113 m 0
 864 61 823 12 768 12 c 0
 715 12 673 59 673 113 c 0
 673 165 714 213 768 213 c 0
 824 213 864 162 864 113 c 0
248 113 m 0
 248 61 208 12 153 12 c 0
 99 12 58 59 58 113 c 0
 58 165 98 213 153 213 c 0
 208 213 248 162 248 113 c 0
556 113 m 0
 556 61 515 12 460 12 c 0
 407 12 366 59 366 113 c 0
 366 165 406 213 460 213 c 0
 516 213 556 162 556 113 c 0
EndSplineSet
Validated: 3073
EndChar

StartChar: uparrow
Encoding: 8593 8593 267
Width: 922
VWidth: 1708
GlyphClass: 2
Flags: W
HStem: 1024 20G<381.598 540.402>
VStem: 381 160<209 794>
DStem2: 44 676 158 564 0.696097 0.717948<0 319.303> 521 1044 541 794 0.696298 -0.717753<193.364 512.711>
LayerCount: 2
Fore
SplineSet
541 209 m 1
 381 209 l 1
 381 794 l 1
 158 564 l 1
 44 676 l 1
 401 1044 l 1
 521 1044 l 1
 878 676 l 1
 764 564 l 1
 541 794 l 1
 541 209 l 1
EndSplineSet
Validated: 3073
EndChar

StartChar: downarrow
Encoding: 8595 8595 268
Width: 922
VWidth: 1708
GlyphClass: 2
Flags: W
VStem: 381 160<406 991>
DStem2: 158 636 44 524 0.696298 -0.717753<1.01032 320.358> 541 406 521 156 0.696097 0.717948<0 319.303>
LayerCount: 2
Fore
SplineSet
381 991 m 1
 541 991 l 1
 541 406 l 1
 764 636 l 1
 878 524 l 1
 521 156 l 1
 401 156 l 1
 44 524 l 1
 158 636 l 1
 381 406 l 1
 381 991 l 1
EndSplineSet
Validated: 3073
EndChar

StartChar: spaceopenbox
Encoding: 9251 9251 269
Width: 922
VWidth: 1708
GlyphClass: 2
Flags: W
HStem: -184 184<274 648> -184 340<90 274 648 832>
VStem: 90 184<0 156> 648 184<0 156>
LayerCount: 2
Fore
SplineSet
832 156 m 1x70
 832 -184 l 1
 90 -184 l 1
 90 156 l 1
 274 156 l 1x70
 274 -0 l 1
 648 -0 l 1xb0
 648 156 l 1
 832 156 l 1x70
EndSplineSet
Validated: 3073
EndChar

StartChar: uni2074
Encoding: 8308 8308 271
Width: 922
VWidth: 1947
GlyphClass: 2
Flags: W
HStem: 715 184<356 509 693 792> 1405 20G<489.809 693>
VStem: 509 184<544 715 899 1114>
DStem2: 118 881 356 899 0.578683 0.815553<152.406 416.289>
LayerCount: 2
Fore
SplineSet
509 1114 m 1
 356 899 l 1
 509 899 l 1
 509 1114 l 1
118 881 m 1
 504 1425 l 1
 693 1425 l 1
 693 899 l 1
 792 899 l 1
 792 715 l 1
 693 715 l 1
 693 544 l 1
 509 544 l 1
 509 715 l 1
 118 715 l 1
 118 881 l 1
EndSplineSet
Validated: 3073
EndChar

StartChar: Eng
Encoding: 330 330 273
Width: 922
VWidth: 2334
GlyphClass: 2
Flags: W
HStem: -385 183<402.429 607.48> 0 21G<90 274> 1241 184<370.169 607.712>
VStem: 90 184<0 1122.35 1358 1400> 648 184<-165.346 1198.09>
LayerCount: 2
Fore
SplineSet
452 1241 m 2
 343 1230 274 1053 274 973 c 2
 274 -0 l 1
 90 0 l 1
 90 1400 l 1
 274 1400 l 1
 274 1358 l 1
 353 1422 411 1425 452 1425 c 2
 470 1425 l 2
 682 1425 832 1312 832 1063 c 2
 832 -28 l 2
 832 -224 710 -385 526 -385 c 2
 475 -385 l 2
 332 -385 267 -294 258 -285 c 1
 402 -171 l 1
 411 -179 429 -202 475 -202 c 2
 526 -202 l 2
 606 -202 648 -117 648 -28 c 2
 648 1063 l 2
 648 1190 598 1241 470 1241 c 2
 452 1241 l 2
EndSplineSet
Validated: 3073
EndChar

StartChar: dcroat
Encoding: 273 273 274
Width: 922
VWidth: 1947
GlyphClass: 2
Flags: W
HStem: -25 184<348.658 585.55> 0 21G<648 832> 865 184<342.097 584.737> 1188 184<370 648 832 862> 1380 20G<648 832>
VStem: 90 184<244.578 798.807> 648 184<0 19 224.787 799.213 1005 1188 1372 1400>
LayerCount: 2
Fore
SplineSet
452 1049 m 2xbe
 470 1049 l 2
 539 1049 598 1033 648 1005 c 1
 648 1188 l 1
 370 1188 l 1
 370 1372 l 1
 648 1372 l 1
 648 1400 l 1
 832 1400 l 1
 832 1372 l 1
 862 1372 l 1
 862 1188 l 1
 832 1188 l 1
 832 -0 l 1
 648 0 l 1x7e
 648 19 l 1
 589 -14 524 -25 470 -25 c 2
 452 -25 l 2
 240 -25 90 162 90 427 c 2
 90 597 l 2
 90 909 246 1049 452 1049 c 2xbe
274 597 m 2
 274 427 l 2
 274 266 345 159 452 159 c 2
 470 159 l 2xbe
 566 159 648 213 648 427 c 2
 648 597 l 2
 648 811 564 865 470 865 c 2
 452 865 l 2
 357 865 274 810 274 597 c 2
EndSplineSet
EndChar

StartChar: bullet
Encoding: 8226 8226 280
Width: 922
VWidth: 1947
GlyphClass: 2
Flags: W
HStem: 466 403<346.068 574.293>
VStem: 267 387<546.15 789.323>
LayerCount: 2
Fore
SplineSet
654 669 m 0
 654 569 567 466 460 466 c 0
 352 466 267 572 267 669 c 0
 267 772 357 869 460 869 c 0
 563 869 654 772 654 669 c 0
EndSplineSet
Validated: 3073
EndChar

StartChar: florin
Encoding: 402 402 281
Width: 922
VWidth: 1947
GlyphClass: 2
Flags: W
HStem: -404 185<137.117 329.635> 703 184<180 378 571 772> 1241 184<601.91 783.142>
VStem: 336 187<-207.056 142.475> 399 172<887 1212.39>
LayerCount: 2
Fore
SplineSet
772 887 m 1xe8
 772 703 l 1
 562 703 l 1
 523 -131 l 2
 499 -328 382 -404 264 -404 c 3
 163 -404 60 -349 10 -268 c 1
 167 -172 l 1
 185 -202 220 -219 253 -219 c 3
 290 -219 333 -199 336 -148 c 2xf0
 378 703 l 1
 180 703 l 1
 180 887 l 1
 387 887 l 1
 399 1153 l 2
 402 1218 441 1425 675 1425 c 3
 705 1425 834 1400 909 1297 c 1
 753 1199 l 1
 731 1228 703 1241 676 1241 c 3
 629 1241 586 1202 583 1145 c 2
 571 887 l 1
 772 887 l 1xe8
EndSplineSet
Validated: 3073
EndChar

StartChar: dagger
Encoding: 8224 8224 282
Width: 922
VWidth: 1947
GlyphClass: 2
Flags: W
HStem: -385 21G<370 554> 841 182<90 370 554 832> 1405 20G<370 554>
VStem: 370 184<-385 841 1023 1425>
LayerCount: 2
Fore
SplineSet
832 1023 m 1
 832 841 l 1
 554 841 l 1
 554 -385 l 1
 370 -385 l 1
 370 841 l 1
 90 841 l 1
 90 1023 l 1
 370 1023 l 1
 370 1425 l 1
 554 1425 l 1
 554 1023 l 1
 832 1023 l 1
EndSplineSet
Validated: 3073
EndChar

StartChar: daggerdbl
Encoding: 8225 8225 283
Width: 922
VWidth: 1947
GlyphClass: 2
Flags: W
HStem: -385 21G<370 553> 14 184<90 370 554 832> 841 182<90 370 554 832> 1405 20G<370 554>
VStem: 370 184<-385 14 198 841 1023 1425>
LayerCount: 2
Fore
SplineSet
832 1023 m 1
 832 841 l 1
 554 841 l 1
 554 198 l 1
 832 198 l 1
 832 14 l 1
 553 14 l 1
 553 -385 l 1
 370 -385 l 1
 370 14 l 1
 90 14 l 1
 90 198 l 1
 370 198 l 1
 370 841 l 1
 90 841 l 1
 90 1023 l 1
 370 1023 l 1
 370 1425 l 1
 554 1425 l 1
 554 1023 l 1
 832 1023 l 1
EndSplineSet
Validated: 3073
EndChar

StartChar: trademark
Encoding: 8482 8482 284
Width: 922
VWidth: 1947
GlyphClass: 2
Flags: W
HStem: 519 345<450.5 871.5> 1248 120<36 171 291 428> 1380 20G<428 544.515 777.485 894>
VStem: 171 120<469 1248> 428 120<466 825.477 1400 1400> 773 121<466 822.822>
LayerCount: 2
Fore
SplineSet
428 1368 m 1
 428 1400 l 1
 540 1400 l 1
 661 864 l 1
 782 1400 l 1
 894 1400 l 1
 894 466 l 1
 773 466 l 1
 773 819 l 1
 699 519 l 1
 623 519 l 1
 548 821 l 1
 548 466 l 1
 428 466 l 1
 428 1248 l 1
 291 1248 l 1
 291 469 l 1
 171 469 l 1
 171 1248 l 1
 36 1248 l 1
 36 1368 l 1
 428 1368 l 1
EndSplineSet
Validated: 3073
EndChar

StartChar: Ecyrillic
Encoding: 1028 1028 290
Width: 922
VWidth: 1708
GlyphClass: 2
Flags: W
HStem: -26 186<364.915 560.304> 662 186<269 560> 1240 186<366.81 561.06>
VStem: 79 186<305.059 662 848 1096.47> 622 180<230.071 288.49 1095.67 1177.41>
LayerCount: 2
Fore
SplineSet
461 -26 m 0
 104 -26 79 425 79 700 c 0
 79 988 109 1426 461 1426 c 0
 536 1426 732 1408 807 1098 c 1
 626 1054 l 1
 596 1177 549 1240 461 1240 c 0
 343 1240 284 1114 269 848 c 1
 560 848 l 1
 560 662 l 1
 265 662 l 1
 269 322 326 160 461 160 c 0
 507 160 579 172 622 334 c 1
 802 286 l 1
 755 111 651 -26 461 -26 c 0
EndSplineSet
Validated: 3073
EndChar

StartChar: Becyrillic
Encoding: 1041 1041 298
Width: 922
VWidth: 1947
GlyphClass: 2
Flags: W
HStem: -25 184<274 613.219> 663 184<274 605.093> 1216 184<274 742>
VStem: 90 184<159 663 847 1216> 648 184<195.171 312 312 623.537>
LayerCount: 2
Fore
SplineSet
832 311 m 2
 832 58 740 -25 470 -25 c 2
 90 -25 l 1
 90 1400 l 1
 742 1400 l 1
 742 1216 l 1
 274 1216 l 1
 274 847 l 1
 470 847 l 2
 719 847 832 699 832 485 c 2
 832 311 l 2
470 159 m 2
 605 159 648 195 648 312 c 2
 648 485 l 2
 648 614 599 663 470 663 c 2
 274 663 l 1
 274 159 l 1
 470 159 l 2
EndSplineSet
Validated: 3073
EndChar

StartChar: Gecyrillic
Encoding: 1043 1043 299
Width: 922
VWidth: 1947
GlyphClass: 2
Flags: W
HStem: -0 21G<90 274> 1215 185<274 832>
VStem: 90 184<0 1215>
LayerCount: 2
Fore
SplineSet
90 -0 m 1
 90 1400 l 1
 832 1400 l 1
 832 1215 l 1
 274 1215 l 1
 274 0 l 1
 90 -0 l 1
EndSplineSet
Validated: 3073
EndChar

StartChar: Decyrillic
Encoding: 1044 1044 300
Width: 922
VWidth: 1947
GlyphClass: 2
Flags: W
HStem: 0 185<320 628> 1380 20G<568 812>
VStem: 50 184<-80.5321 0> 87 147<-162 -110.468> 628 184<185 1216> 688 151<-162 -108.566> 688 184<-92.4342 0>
DStem2: 134 185 320 185 0.159272 0.987235<29.6246 988.461>
LayerCount: 2
Fore
SplineSet
320 185 m 1xc8
 628 185 l 1
 628 1216 l 1
 621 1216 l 1
 543 1178 464 1080 446 966 c 2
 320 185 l 1xc8
264 996 m 2
 291 1162 409 1331 568 1394 c 2
 585 1400 l 1
 812 1400 l 1
 812 185 l 1xe8
 872 185 l 1
 872 -39 l 1xc2
 839 -162 l 1
 688 -162 l 1xc4
 688 0 l 1
 234 0 l 1xe2
 234 -162 l 1
 87 -162 l 1xd0
 50 -29 l 1
 50 185 l 1xe0
 134 185 l 1
 264 996 l 2
EndSplineSet
Validated: 3073
EndChar

StartChar: Zhecyrillic
Encoding: 1046 1046 302
Width: 922
VWidth: 1947
GlyphClass: 2
Flags: W
HStem: 0 21G<20 219.27 369 553 702.713 902> 1380 20G<24 221.907 700.093 898>
VStem: 20 193<0 193 1207 1400> 369 184<0 234 882 1333 1333 1333> 709 193<0 193 1207 1400>
DStem2: 20 0 213 0 0.299067 0.954232<57.7199 445.478> 216 1400 24 1400 0.28393 -0.958845<0 562.263> 687 685 593 369 0.299464 -0.954107<273.348 660.152>
CounterMasks: 1 38
LayerCount: 2
Fore
SplineSet
369 882 m 1
 369 1333 l 1
 553 1333 l 1
 553 882 l 1
 706 1400 l 1
 898 1400 l 1
 687 685 l 1
 902 -0 l 1
 837 -0 773 0 709 0 c 1
 593 369 l 1
 553 234 l 1
 553 0 l 1
 369 0 l 1
 369 234 l 1
 329 370 l 1
 213 0 l 1
 149 0 84 0 20 0 c 1
 235 686 l 1
 24 1400 l 1
 216 1400 l 1
 369 882 l 1
EndSplineSet
Validated: 3073
EndChar

StartChar: Zecyrillic
Encoding: 1047 1047 303
Width: 922
VWidth: 1947
GlyphClass: 2
Flags: W
HStem: -25 184<312.699 594.283> 685 184<302 556.687> 1241 184<319.048 562.061>
VStem: 70 184<217.742 337> 603 184<914.655 1197> 648 184<219.175 618.18>
LayerCount: 2
Fore
SplineSet
432 1425 m 2xf8
 470 1425 l 2
 660 1425 787 1266 787 1063 c 2
 787 1023 l 2xf8
 787 943 754 856 697 791 c 1
 786 713 832 581 832 417 c 2
 832 397 l 2
 832 23 595 -25 470 -25 c 2
 432 -25 l 2
 261 -25 70 103 70 337 c 1
 254 337 l 1
 254 209 360 159 432 159 c 2
 470 159 l 2
 572 159 648 199 648 397 c 2
 648 417 l 2xf4
 648 631 564 685 470 685 c 2
 302 685 l 1
 302 869 l 1
 471 869 l 2
 551 869 603 962 603 1023 c 2
 603 1063 l 2
 603 1166 553 1241 470 1241 c 2
 432 1241 l 2
 365 1241 293 1197 266 1126 c 1
 94 1190 l 1
 147 1331 287 1425 432 1425 c 2xf8
EndSplineSet
Validated: 3073
EndChar

StartChar: Iicyrillic
Encoding: 1048 1048 304
Width: 922
VWidth: 1947
GlyphClass: 2
Flags: W
HStem: -0 21G<90 261.817 648 832> 1380 20G<90 274 660.193 832>
VStem: 90 184<503 1400> 648 184<0 896>
DStem2: 274 503 253 0 0.403012 0.915195<0 510.398>
LayerCount: 2
Fore
SplineSet
90 0 m 1
 90 1400 l 1
 274 1400 l 1
 274 503 l 1
 669 1400 l 1
 832 1400 l 1
 832 0 l 1
 648 -0 l 1
 648 896 l 1
 253 0 l 1
 199 0 144 0 90 0 c 1
EndSplineSet
Validated: 3073
EndChar

StartChar: Elcyrillic
Encoding: 1051 1051 307
Width: 922
VWidth: 1947
GlyphClass: 2
Flags: W
HStem: -0 21G<49 241.116 648 832> 1380 20G<568 832>
VStem: 49 188<0 188> 648 184<0 1216>
DStem2: 49 -0 237 0 0.201763 0.979434<37.9315 1193.77>
LayerCount: 2
Fore
SplineSet
255 1000 m 2
 289 1159 407 1330 568 1394 c 2
 585 1400 l 1
 832 1400 l 1
 832 -0 l 1
 648 0 l 1
 648 1216 l 1
 621 1216 l 1
 543 1177 459 1078 435 962 c 2
 237 0 l 1
 175 0 112 -0 49 -0 c 1
 255 1000 l 2
EndSplineSet
Validated: 3073
EndChar

StartChar: Pecyrillic
Encoding: 1055 1055 311
Width: 922
VWidth: 1947
GlyphClass: 2
Flags: W
HStem: -0 21G<90 274 648 832> 1216 184<274 648>
VStem: 90 184<0 1216> 648 184<0 1216>
LayerCount: 2
Fore
SplineSet
90 -0 m 1
 90 1400 l 1
 832 1400 l 1
 832 -0 l 1
 648 0 l 1
 648 1216 l 1
 274 1216 l 1
 274 0 l 1
 90 -0 l 1
EndSplineSet
Validated: 3073
EndChar

StartChar: Ucyrillic
Encoding: 1059 1059 315
Width: 922
VWidth: 1947
GlyphClass: 2
Flags: W
HStem: -25 184<217.422 361.888> 1380 20G<74 278.627 661.127 855>
VStem: 74 197<1203 1400> 666 189<1211 1400>
DStem2: 271 1400 74 1400 0.3562 -0.93441<0 676.391> 217 175 147 5 0.926467 -0.376377<0 113.196> 390 269 568 223 0.236899 0.971534<-117.661 189.423 513.697 1164.19>
LayerCount: 2
Fore
SplineSet
568 223 m 2
 523 44 409 -25 301 -25 c 1
 272 -25 l 2
 239 -25 206 -18 179 -8 c 2
 147 5 l 1
 217 175 l 1
 244 164 l 2
 250 162 260 159 272 159 c 2
 299 159 l 2
 318 159 364 166 390 269 c 2
 435 453 l 1
 74 1400 l 1
 271 1400 l 1
 512 768 l 1
 666 1400 l 1
 855 1400 l 1
 568 223 l 2
EndSplineSet
Validated: 3073
EndChar

StartChar: Efcyrillic
Encoding: 1060 1060 316
Width: 922
VWidth: 1947
GlyphClass: 2
Flags: W
HStem: -25 21G<369 553> 1405 20G<369 553>
VStem: 30 184<411.542 994.21> 369 184<-25 103 295 1115 1307 1425> 708 184<409.982 994.38>
CounterMasks: 1 38
LayerCount: 2
Fore
SplineSet
553 -25 m 1
 369 -25 l 1
 369 103 l 1
 162 142 30 320 30 700 c 0
 30 1147 209 1276 369 1307 c 1
 369 1425 l 1
 553 1425 l 1
 553 1307 l 1
 760 1268 892 1087 892 700 c 0
 892 317 760 141 553 103 c 1
 553 -25 l 1
553 1115 m 1
 553 294 l 1
 649 331 708 442 708 700 c 0
 708 961 649 1076 553 1115 c 1
369 295 m 1
 369 1115 l 1
 273 1075 214 958 214 700 c 0
 214 445 273 332 369 295 c 1
EndSplineSet
Validated: 3073
EndChar

StartChar: Tsecyrillic
Encoding: 1062 1062 318
Width: 922
VWidth: 1947
GlyphClass: 2
Flags: W
HStem: 0 184<274 578> 1380 20G<90 274 578 762>
VStem: 90 184<184 1400> 578 184<184 1400>
DStem2: 578 -149 743 -229 0.432178 0.901788<0 165.051>
LayerCount: 2
Fore
SplineSet
649 -0 m 1
 90 0 l 1
 90 1400 l 1
 274 1400 l 1
 274 184 l 1
 578 184 l 1
 578 1400 l 1
 762 1400 l 1
 762 184 l 1
 870 184 l 1
 870 36 l 1
 743 -229 l 1
 578 -149 l 1
 649 -0 l 1
EndSplineSet
Validated: 3073
EndChar

StartChar: Checyrillic
Encoding: 1063 1063 319
Width: 922
VWidth: 1947
GlyphClass: 2
Flags: W
HStem: 0 21G<648 832> 420 184<316.907 648> 1380 20G<90 274 648 832>
VStem: 90 184<643.463 1400> 648 184<0 420 604 1400>
LayerCount: 2
Fore
SplineSet
832 -0 m 1
 648 0 l 1
 648 420 l 1
 452 420 l 2
 203 420 90 568 90 782 c 2
 90 1400 l 1
 274 1400 l 1
 274 782 l 2
 274 653 323 604 452 604 c 2
 648 604 l 1
 648 1400 l 1
 832 1400 l 1
 832 -0 l 1
EndSplineSet
Validated: 3073
EndChar

StartChar: Shacyrillic
Encoding: 1064 1064 320
Width: 922
VWidth: 1947
GlyphClass: 2
Flags: W
HStem: 0 184<224 369 553 698> 1380 20G<40 224 698 882>
VStem: 40 184<184 1400> 369 184<184 1152> 698 184<184 1400>
CounterMasks: 1 38
LayerCount: 2
Fore
SplineSet
553 184 m 1
 698 184 l 1
 698 1400 l 1
 882 1400 l 1
 882 0 l 1
 40 0 l 1
 40 1400 l 1
 224 1400 l 1
 224 184 l 1
 369 184 l 1
 369 1152 l 1
 553 1152 l 1
 553 184 l 1
EndSplineSet
Validated: 3073
EndChar

StartChar: Shchacyrillic
Encoding: 1065 1065 321
Width: 922
VWidth: 1947
GlyphClass: 2
Flags: W
HStem: 0 184<224 344 528 648> 1380 20G<40 224 648 832>
VStem: 40 184<184 1400> 344 184<184 1152> 648 184<184 1400>
DStem2: 679 -0 900 36 0.432178 0.901788<-165.483 0>
CounterMasks: 1 38
LayerCount: 2
Fore
SplineSet
679 -0 m 1
 40 0 l 1
 40 1400 l 1
 224 1400 l 1
 224 184 l 1
 344 184 l 1
 344 1152 l 1
 528 1152 l 1
 528 184 l 1
 648 184 l 1
 648 1400 l 1
 832 1400 l 1
 832 184 l 1
 900 184 l 1
 900 36 l 1
 773 -229 l 1
 607 -149 l 1
 679 -0 l 1
EndSplineSet
Validated: 3073
EndChar

StartChar: Hardsigncyrillic
Encoding: 1066 1066 322
Width: 922
VWidth: 1947
GlyphClass: 2
Flags: W
HStem: 0 184<424 625.985> 623 184<424 614.295> 1380 20G<60 424>
VStem: 60 71<974 1024.28> 240 184<184 623 807 1216> 648 184<205.639 595.997>
LayerCount: 2
Fore
SplineSet
648 445 m 2
 648 592 588 623 530 623 c 2
 424 623 l 1
 424 184 l 1
 530 184 l 2
 643 184 648 267 648 337 c 2
 648 445 l 2
530 807 m 2
 648 807 832 764 832 445 c 2
 832 337 l 2
 832 67 661 0 530 0 c 2
 240 0 l 1
 240 1216 l 1
 200 1216 l 1
 131 974 l 1
 60 974 l 1
 60 1400 l 1
 424 1400 l 1
 424 807 l 1
 530 807 l 2
EndSplineSet
Validated: 3073
EndChar

StartChar: Yericyrillic
Encoding: 1067 1067 323
Width: 922
VWidth: 1947
GlyphClass: 2
Flags: W
HStem: 0 184<244 372.235> 672 185<244 361.714> 1380 20G<60 244 678 862>
VStem: 60 184<184 672 857 1400> 398 184<210.052 630.651> 678 184<0 1400>
LayerCount: 2
Fore
SplineSet
862 0 m 1
 678 0 l 1
 678 1400 l 1
 862 1400 l 1
 862 0 l 1
244 184 m 1
 384 184 398 249 398 337 c 2
 398 495 l 2
 398 615 355 672 244 672 c 1
 244 184 l 1
582 337 m 2
 582 211 540 0 220 0 c 2
 60 0 l 1
 60 1400 l 1
 244 1400 l 1
 244 857 l 1
 477 857 582 702 582 495 c 2
 582 337 l 2
EndSplineSet
Validated: 3073
EndChar

StartChar: Softsigncyrillic
Encoding: 1068 1068 324
Width: 922
VWidth: 1947
GlyphClass: 2
Flags: W
HStem: 0 184<274 620.75> 623 184<274 605.093> 1380 20G<90 274>
VStem: 90 184<184 623 807 1400> 648 184<213.574 337 337 583.537>
LayerCount: 2
Fore
SplineSet
832 337 m 2
 832 219 786 0 470 0 c 2
 90 0 l 1
 90 1400 l 1
 274 1400 l 1
 274 807 l 1
 470 807 l 2
 719 807 832 659 832 445 c 2
 832 337 l 2
470 184 m 2
 624 184 648 230 648 337 c 2
 648 445 l 2
 648 574 599 623 470 623 c 2
 274 623 l 1
 274 184 l 1
 470 184 l 2
EndSplineSet
Validated: 3073
EndChar

StartChar: Ereversedcyrillic
Encoding: 1069 1069 325
Width: 922
VWidth: 1947
GlyphClass: 2
Flags: W
HStem: -25 184<361.059 557.168> 663 184<362 654> 1241 184<359.077 555.41>
VStem: 120 178<226.543 292 1095 1174.15> 658 184<305.442 663 847 1096.58>
LayerCount: 2
Fore
SplineSet
654 847 m 1
 639 1114 580 1241 461 1241 c 0
 372 1241 324 1177 294 1053 c 1
 116 1095 l 1
 189 1403 381 1425 461 1425 c 0
 812 1425 842 988 842 700 c 0
 842 425 816 -25 461 -25 c 0
 391 -25 198 -9 120 292 c 1
 298 338 l 1
 329 220 375 159 461 159 c 0
 597 159 654 324 658 663 c 1
 362 663 l 1
 362 847 l 1
 654 847 l 1
EndSplineSet
Validated: 3073
EndChar

StartChar: IUcyrillic
Encoding: 1070 1070 326
Width: 922
VWidth: 1947
GlyphClass: 2
Flags: W
HStem: -25 184<574.943 646.501> 608 184<224 341> 1241 185<576.82 646.164>
VStem: 40 184<0 608 792 1400> 341 183<221.537 608 792 1180.33> 698 184<231.766 1156.83>
LayerCount: 2
Fore
SplineSet
611 1241 m 3
 584 1241 524 1158 524 700 c 3
 524 230 587 159 612 159 c 3
 634 159 698 233 698 700 c 3
 698 1166 635 1241 611 1241 c 3
882 700 m 3
 882 66 730 -25 612 -25 c 3
 504 -25 341 58 341 608 c 1
 224 608 l 1
 224 -0 l 1
 40 0 l 1
 40 1400 l 1
 224 1400 l 1
 224 792 l 1
 341 792 l 1
 341 1340 502 1426 610 1426 c 3
 710 1426 882 1346 882 700 c 3
EndSplineSet
Validated: 3073
EndChar

StartChar: IAcyrillic
Encoding: 1071 1071 327
Width: 922
VWidth: 1947
GlyphClass: 2
Flags: W
HStem: 0 21G<45 258.207 648 832> 593 184<522 648> 1216 184<306.077 648>
VStem: 45 204<0 204> 90 184<816.783 956 956 1186.11> 648 184<0 593 777 1216>
DStem2: 45 0 249 0 0.418184 0.908362<85.3095 670.212>
LayerCount: 2
Fore
SplineSet
452 1216 m 2xec
 303 1216 274 1170 274 1063 c 2
 274 956 l 2
 274 826 325 777 452 777 c 2
 648 777 l 1
 648 1216 l 1
 452 1216 l 2xec
90 1063 m 2
 90 1248 149 1400 452 1400 c 2
 832 1400 l 1
 832 -0 l 1
 648 0 l 1
 648 593 l 1
 522 593 l 1
 249 0 l 1
 45 0 l 1xf4
 327 608 l 1
 183 647 90 759 90 956 c 2
 90 1063 l 2
EndSplineSet
Validated: 3073
EndChar

StartChar: becyrillic
Encoding: 1073 1073 329
Width: 922
VWidth: 2334
GlyphClass: 2
Flags: W
HStem: -26 186<348.197 594.125> 864 186<337.693 583.351> 1215 185<355.579 702.74>
VStem: 89 186<237.159 798.377> 647 186<215.939 791.512>
LayerCount: 2
Fore
SplineSet
452 1050 m 2
 470 1050 l 2
 710 1050 833 866 833 597 c 2
 833 407 l 2
 833 33 615 -26 470 -26 c 2
 452 -26 l 2
 239 -26 89 141 89 407 c 2
 89 936 l 2
 89 1257 271 1400 460 1400 c 3
 596 1400 615 1406 707 1441 c 1
 773 1267 l 1
 667 1227 631 1215 460 1215 c 3
 384 1215 299 1166 279 1010 c 1
 328 1036 385 1050 452 1050 c 2
275 597 m 2
 275 407 l 2
 275 247 346 160 452 160 c 2
 470 160 l 2
 565 160 647 193 647 407 c 2
 647 597 l 2
 647 811 564 864 470 864 c 2
 452 864 l 2
 358 864 275 810 275 597 c 2
EndSplineSet
EndChar

StartChar: vecyrillic
Encoding: 1074 1074 330
Width: 922
VWidth: 2334
GlyphClass: 2
Flags: W
HStem: 0 184<274 636.192> 457 184<274 594.093> 840 183<274 590.441>
VStem: 90 184<184 457 641 840> 614 184<666.646 812.851> 667 184<218.883 422.553>
LayerCount: 2
Fore
SplineSet
436 641 m 2xf8
 594 641 614 700 614 740 c 3
 614 824 521 840 436 840 c 2
 274 840 l 1
 274 641 l 1
 436 641 l 2xf8
274 184 m 1
 489 184 l 2
 633 184 667 247 667 316 c 2
 667 325 l 2xf4
 667 392 633 457 489 457 c 2
 274 457 l 1
 274 184 l 1
90 0 m 1
 90 1023 l 1
 436 1023 l 2
 735 1023 798 850 798 740 c 2
 798 735 l 2xf8
 798 712 796 636 737 568 c 1
 812 511 851 425 851 325 c 2
 851 316 l 2
 851 133 724 0 489 0 c 2
 90 0 l 1
EndSplineSet
Validated: 3073
EndChar

StartChar: gecyrillic
Encoding: 1075 1075 331
Width: 922
VWidth: 1947
GlyphClass: 2
Flags: W
HStem: -25 184<286.69 573.961> 865 184<319.332 595.336>
VStem: 60 184<204.125 287 287 365.603> 618 184<707.258 842.76> 648 184<236.009 337>
DStem2: 205 534 283 367 0.907604 0.419827<-59.2737 473.392>
LayerCount: 2
Fore
SplineSet
422 1049 m 2xf0
 440 1049 l 2
 584 1049 802 1012 802 757 c 2
 802 745 l 2xf0
 802 683 776 589 657 540 c 2
 283 367 l 2
 261 357 244 339 244 301 c 2
 244 287 l 2
 244 205 339 159 422 159 c 2
 470 159 l 2
 552 159 648 251 648 337 c 1
 832 337 l 1xe8
 832 155 660 -25 470 -25 c 2
 422 -25 l 2
 234 -25 60 100 60 287 c 2
 60 301 l 2
 60 403 114 491 205 534 c 2
 583 709 l 2
 611 720 618 734 618 745 c 2
 618 757 l 2
 618 862 517 865 440 865 c 2
 422 865 l 2
 356 865 285 807 256 742 c 1
 87 814 l 1
 139 935 270 1049 422 1049 c 2xf0
EndSplineSet
Validated: 3073
EndChar

StartChar: decyrillic
Encoding: 1076 1076 332
Width: 922
VWidth: 1947
GlyphClass: 2
Flags: W
HStem: 0 185<320 628> 840 183<529.371 628>
VStem: 50 184<-80.5321 0> 87 147<-162 -110.468> 628 184<185 840> 688 151<-162 -108.566> 688 184<-92.4342 0>
DStem2: 134 185 320 185 0.160841 0.98698<29.9165 583.604>
LayerCount: 2
Fore
SplineSet
320 185 m 1xc8
 628 185 l 1
 628 840 l 1
 612 840 l 1
 516 816 402 688 386 590 c 2
 320 185 l 1xc8
204 620 m 2
 234 806 419 991 584 1023 c 2
 593 1023 l 1
 812 1023 l 1
 812 185 l 1xe8
 872 185 l 1
 872 -39 l 1xc2
 839 -162 l 1
 688 -162 l 1xc4
 688 0 l 1
 234 0 l 1xe2
 234 -162 l 1
 87 -162 l 1xd0
 50 -29 l 1
 50 185 l 1xe0
 134 185 l 1
 204 620 l 2
EndSplineSet
Validated: 3073
EndChar

StartChar: zhecyrillic
Encoding: 1078 1078 334
Width: 922
VWidth: 1947
GlyphClass: 2
Flags: W
HStem: -0 21G<45 248.398 369 553 673.49 877> 1003 20G<369 553>
VStem: 45 196<0 196> 369 184<0 162 625 1023> 681 196<0 196>
DStem2: 174 1074 6 1003 0.39629 -0.918126<0 489.515> 45 -0 241 0 0.348187 0.937425<68.2446 330.536> 553 625 694 488 0.39629 0.918126<0 489.515> 694 488 589 245 0.351123 -0.936329<190.66 452.364>
CounterMasks: 1 38
LayerCount: 2
Fore
SplineSet
369 625 m 1
 369 1023 l 1
 553 1023 l 1
 553 625 l 1
 748 1074 l 1
 916 1003 l 1
 694 488 l 1
 877 0 l 1
 681 -0 l 1
 589 245 l 1
 553 162 l 1
 553 -0 l 1
 369 -0 l 1
 369 162 l 1
 332 246 l 1
 241 0 l 1
 45 -0 l 1
 227 490 l 1
 6 1003 l 1
 174 1074 l 1
 369 625 l 1
EndSplineSet
Validated: 3073
EndChar

StartChar: zecyrillic
Encoding: 1079 1079 335
Width: 922
VWidth: 1947
GlyphClass: 2
Flags: W
HStem: -25 184<328.713 591.043> 468 184<362 575.487> 864 184<319.048 578.955>
VStem: 90 184<212.468 297> 603 184<680.757 844.007> 648 184<208.746 426.755>
LayerCount: 2
Fore
SplineSet
603 776 m 2xf8
 603 788 596 864 470 864 c 2
 432 864 l 2
 365 864 293 820 266 749 c 1
 94 813 l 1
 147 954 287 1048 432 1048 c 2
 470 1048 l 2
 765 1048 787 824 787 776 c 2
 787 765 l 2xf8
 787 693 761 627 716 575 c 1
 792 515 832 426 832 334 c 2
 832 314 l 2
 832 155 706 -25 470 -25 c 2
 452 -25 l 2
 275 -25 90 107 90 297 c 1
 274 297 l 1
 274 212 377 159 452 159 c 2
 470 159 l 2
 595 159 648 247 648 314 c 2
 648 334 l 2xf4
 648 400 598 468 470 468 c 2
 362 468 l 1
 362 652 l 1
 471 652 l 2
 555 652 603 706 603 765 c 2
 603 776 l 2xf8
EndSplineSet
Validated: 3073
EndChar

StartChar: iicyrillic
Encoding: 1080 1080 336
Width: 922
VWidth: 1947
GlyphClass: 2
Flags: W
HStem: -0 21G<90 261.547 648 832> 1003 20G<90 274 660.473 832>
VStem: 90 184<386 1023> 648 184<0 636>
DStem2: 274 386 249 0 0.530836 0.847475<0 410.401>
LayerCount: 2
Fore
SplineSet
90 0 m 1
 90 1023 l 1
 274 1023 l 1
 274 386 l 1
 673 1023 l 1
 832 1023 l 1
 832 0 l 1
 648 -0 l 1
 648 636 l 1
 249 0 l 1
 90 0 l 1
EndSplineSet
Validated: 3073
EndChar

StartChar: kacyrillic
Encoding: 1082 1082 338
Width: 922
VWidth: 1947
GlyphClass: 2
Flags: W
HStem: 0 21G<90 274 608.834 855> 1003 20G<90 274 680.967 723.302>
VStem: 90 184<0 129 449 1023> 624 231<0 231>
DStem2: 274 449 506 460 0.574378 0.81859<142.26 732.353> 506 460 395 302 0.604424 -0.796663<58.7816 437.787>
LayerCount: 2
Fore
SplineSet
274 -0 m 1
 213 -0 151 0 90 0 c 1
 90 1023 l 1
 274 1023 l 1
 274 449 l 1
 695 1049 l 1
 845 943 l 1
 506 460 l 1
 855 0 l 1
 624 0 l 1
 395 302 l 1
 274 129 l 1
 274 -0 l 1
EndSplineSet
Validated: 3073
EndChar

StartChar: elcyrillic
Encoding: 1083 1083 339
Width: 922
VWidth: 1947
GlyphClass: 2
Flags: W
HStem: -0 21G<54 249.155 648 832> 1003 20G<568 832>
VStem: 54 190<0 190> 648 184<0 839>
DStem2: 54 -0 244 0 0.250533 0.968108<47.6012 808.516>
LayerCount: 2
Fore
SplineSet
216 626 m 2
 261 801 427 961 568 1017 c 2
 585 1023 l 1
 832 1023 l 1
 832 -0 l 1
 648 0 l 1
 648 839 l 1
 621 839 l 1
 518 792 418 676 394 582 c 2
 244 0 l 1
 180 0 117 -0 54 -0 c 1
 216 626 l 2
EndSplineSet
Validated: 3073
EndChar

StartChar: emcyrillic
Encoding: 1084 1084 340
Width: 922
VWidth: 1947
GlyphClass: 2
Flags: W
HStem: 0 21G<10 195.6 726.436 912> 1003 20G<90.3969 287.338 636.592 833.564>
VStem: 10 184<0 184> 728 184<0 184>
DStem2: 10 0 194 0 0.0799001 0.996803<14.7016 566.459> 461 455 238 550 0.302095 -0.953278<-157.929 0> 461 455 685 550 0.305141 0.952307<0 158.821> 832 1023 685 550 0.0779633 -0.996956<460.1 1011.78>
LayerCount: 2
Fore
SplineSet
10 0 m 1
 92 1023 l 1
 281 1023 l 1
 461 455 l 1
 643 1023 l 1
 832 1023 l 1
 912 0 l 1
 728 0 l 1
 685 550 l 1
 539 92 l 1
 383 92 l 1
 238 550 l 1
 194 0 l 1
 10 0 l 1
EndSplineSet
Validated: 3073
EndChar

StartChar: encyrillic
Encoding: 1085 1085 341
Width: 922
VWidth: 1947
GlyphClass: 2
Flags: W
HStem: 0 21G<90 274 648 832> 378 184<274 648> 1003 20G<90 274 648 832>
VStem: 90 184<0 378 562 1023> 648 184<0 378 562 1023>
LayerCount: 2
Fore
SplineSet
274 -0 m 1
 90 0 l 1
 90 1023 l 1
 274 1023 l 1
 274 562 l 1
 648 562 l 1
 648 1023 l 1
 832 1023 l 1
 832 -0 l 1
 648 0 l 1
 648 378 l 1
 274 378 l 1
 274 -0 l 1
EndSplineSet
Validated: 3073
EndChar

StartChar: tecyrillic
Encoding: 1090 1090 346
Width: 922
VWidth: 1947
GlyphClass: 2
Flags: W
HStem: -0 21G<369 553> 841 182<70 369 553 852>
VStem: 369 184<0 841>
LayerCount: 2
Fore
SplineSet
852 1023 m 1
 852 841 l 1
 553 841 l 1
 553 0 l 1
 369 -0 l 1
 369 841 l 1
 70 841 l 1
 70 1023 l 1
 852 1023 l 1
EndSplineSet
Validated: 3073
EndChar

StartChar: efcyrillic
Encoding: 1092 1092 348
Width: 922
VWidth: 1947
GlyphClass: 2
Flags: W
HStem: -385 21G<369 553> 1027 20G<369 553>
VStem: 40 184<261.071 682.245> 369 184<-385 -8.33301 173 770 951.323 1047> 698 184<261.071 682.245>
CounterMasks: 1 38
LayerCount: 2
Fore
SplineSet
553 -385 m 1
 369 -385 l 1
 369 -17 l 1
 164 21 40 191 40 473 c 0
 40 751 164 922 369 960 c 1
 369 1047 l 1
 553 1047 l 1
 553 960 l 1
 758 922 882 751 882 473 c 0
 882 191 758 21 553 -17 c 1
 553 -385 l 1
553 770 m 1
 553 173 l 1
 638 203 698 287 698 473 c 0
 698 656 638 739 553 770 c 1
369 173 m 1
 369 770 l 1
 284 739 224 656 224 473 c 0
 224 287 284 203 369 173 c 1
EndSplineSet
Validated: 3073
EndChar

StartChar: tsecyrillic
Encoding: 1094 1094 350
Width: 922
VWidth: 2334
GlyphClass: 2
Flags: W
HStem: -25 184<301.438 530.044> 1003 20G<90 274 648 832>
VStem: 90 184<188.426 1023> 648 184<303.492 1023> 690 185<-123.007 57.7186>
LayerCount: 2
Fore
SplineSet
450 159 m 2xf0
 556 170 648 361 648 447 c 2
 648 1023 l 1
 832 1023 l 1
 832 128 l 1xf0
 852 99 875 40 875 -29 c 0
 875 -119 837 -226 709 -306 c 1
 611 -150 l 1
 651 -125 690 -88 690 -36 c 3xe8
 690 30 670 52 648 59 c 1
 566 -10 487 -21 450 -25 c 2
 432 -25 l 2
 108 -25 90 223 90 337 c 2
 90 1023 l 1
 274 1023 l 1
 274 337 l 2
 274 235 282 159 432 159 c 2
 450 159 l 2xf0
EndSplineSet
Validated: 3073
EndChar

StartChar: checyrillic
Encoding: 1095 1095 351
Width: 922
VWidth: 1947
GlyphClass: 2
Flags: W
HStem: 0 21G<648 832> 335 184<303.094 538.238> 1003 20G<90 274 648 832>
VStem: 90 184<548.689 1023> 648 184<0 419 659.674 1023>
LayerCount: 2
Fore
SplineSet
450 519 m 2
 556 519 648 720 648 807 c 2
 648 1023 l 1
 832 1023 l 1
 832 -0 l 1
 648 0 l 1
 648 419 l 1
 564 342 488 335 450 335 c 2
 432 335 l 2
 108 335 90 584 90 697 c 2
 90 1023 l 1
 274 1023 l 1
 274 697 l 2
 274 596 282 519 432 519 c 2
 450 519 l 2
EndSplineSet
Validated: 3073
EndChar

StartChar: shacyrillic
Encoding: 1096 1096 352
Width: 922
VWidth: 2334
GlyphClass: 2
Flags: W
HStem: 0 159<222.26 336.676 546.876 658.225> 1003 20G<50 214 379 543 708 872>
VStem: 50 164<163.618 1023> 379 164<197.391 1023> 708 164<0 48 210.886 367 367 1023>
CounterMasks: 1 38
LayerCount: 2
Fore
SplineSet
287 159 m 2
 328 165 379 258 379 337 c 2
 379 1023 l 1
 543 1023 l 1
 543 247 l 2
 543 162 571 159 596 159 c 2
 606 159 l 2
 647 165 708 258 708 367 c 2
 708 1023 l 1
 872 1023 l 1
 872 0 l 1
 708 0 l 1
 708 48 l 1
 690 22 637 4 606 0 c 2
 596 0 l 2
 547 0 484 14 437 63 c 1
 394 24 306 3 287 0 c 2
 277 0 l 2
 186 0 50 22 50 247 c 2
 50 1023 l 1
 214 1023 l 1
 214 247 l 2
 214 162 252 159 277 159 c 2
 287 159 l 2
EndSplineSet
Validated: 3073
EndChar

StartChar: shchacyrillic
Encoding: 1097 1097 353
Width: 922
VWidth: 2334
GlyphClass: 2
Flags: W
HStem: -5 164<222.26 336.639 546.876 667> 1003 20G<50 214 379 543 708 872>
VStem: 50 164<163.349 1023> 379 164<197.391 337 337 1023> 708 164<198.684 337 337 1023> 732 184<-120.761 31.4466>
LayerCount: 2
Fore
SplineSet
651 -150 m 1xf4
 708 -110 732 -77 732 -33 c 0xf4
 732 -19 729 16 725 33 c 1
 690 9 645 -5 606 -5 c 2
 596 -5 l 2
 547 -5 484 9 437 58 c 1
 370 -6 306 -2 287 -5 c 1
 277 -5 l 2
 186 -5 50 22 50 247 c 2
 50 1023 l 1
 214 1023 l 1
 214 247 l 2
 214 162 252 159 277 159 c 2
 287 159 l 1
 328 165 379 258 379 337 c 2
 379 1023 l 1
 543 1023 l 1
 543 247 l 2
 543 162 571 159 596 159 c 2
 606 159 l 1
 647 165 708 228 708 337 c 2
 708 1023 l 1
 872 1023 l 1
 872 129 l 1xf8
 882 114 916 55 916 -25 c 0
 916 -107 881 -211 749 -306 c 1
 651 -150 l 1xf4
EndSplineSet
Validated: 3073
EndChar

StartChar: hardsigncyrillic
Encoding: 1098 1098 354
Width: 922
VWidth: 1947
GlyphClass: 2
Flags: W
HStem: 0 183<424 613.897> 469 184<424 598.764> 1003 20G<60 424>
VStem: 60 71<598 648.28> 240 184<183 469 653 840> 648 184<216.262 417.801>
LayerCount: 2
Fore
SplineSet
424 469 m 1
 424 183 l 1
 470 183 l 2
 512 183 648 194 648 291 c 2
 648 337 l 2
 648 417 551 469 470 469 c 2
 424 469 l 1
470 653 m 2
 661 653 832 517 832 337 c 2
 832 291 l 2
 832 70 640 0 470 0 c 2
 240 0 l 1
 240 840 l 1
 200 840 l 1
 131 598 l 1
 60 598 l 1
 60 1023 l 1
 424 1023 l 1
 424 653 l 1
 470 653 l 2
EndSplineSet
Validated: 3073
EndChar

StartChar: yericyrillic
Encoding: 1099 1099 355
Width: 922
VWidth: 1947
GlyphClass: 2
Flags: W
HStem: 0 184<224 371.792> 469 184<224 354.034> 1003 20G<40 224 698 882>
VStem: 40 184<184 469 653 1023> 398 184<213.272 428.275> 698 184<0 1023>
LayerCount: 2
Fore
SplineSet
240 184 m 2
 298 184 398 195 398 291 c 2
 398 337 l 2
 398 417 325 469 240 469 c 2
 224 469 l 1
 224 184 l 1
 240 184 l 2
698 1023 m 1
 882 1023 l 1
 882 0 l 1
 698 -0 l 1
 698 1023 l 1
224 653 m 1
 240 653 l 2
 420 653 582 525 582 337 c 2
 582 291 l 2
 582 154 486 0 240 0 c 2
 40 0 l 1
 40 1023 l 1
 224 1023 l 1
 224 653 l 1
EndSplineSet
Validated: 3073
EndChar

StartChar: softsigncyrillic
Encoding: 1100 1100 356
Width: 922
VWidth: 1947
GlyphClass: 2
Flags: W
HStem: 0 184<274 620.958> 469 184<274 598.764> 1028 20G<90 274>
VStem: 90 184<184 469 653 1048> 648 184<214.971 418.135>
LayerCount: 2
Fore
SplineSet
274 184 m 1
 470 184 l 2
 618 184 648 248 648 291 c 2
 648 337 l 2
 648 417 551 469 470 469 c 2
 274 469 l 1
 274 184 l 1
274 653 m 1
 470 653 l 2
 661 653 832 518 832 337 c 2
 832 291 l 2
 832 175 760 0 470 0 c 2
 90 0 l 1
 90 1048 l 1
 274 1048 l 1
 274 653 l 1
EndSplineSet
Validated: 3073
EndChar

StartChar: ereversedcyrillic
Encoding: 1101 1101 357
Width: 922
VWidth: 1947
GlyphClass: 2
Flags: W
HStem: -25 184<297.283 558.371> 420 184<317 633> 864 184<300.719 567.919>
VStem: 633 184<244.156 420 604 791.164>
LayerCount: 2
Fore
SplineSet
437 1048 m 2
 455 1048 l 2
 694 1048 817 866 817 597 c 2
 817 427 l 2
 817 161 667 -25 455 -25 c 2
 437 -25 l 2
 236 -25 135 72 96 191 c 1
 270 249 l 1
 286 202 321 159 437 159 c 2
 455 159 l 2
 560 159 633 263 633 420 c 1
 317 420 l 1
 317 604 l 1
 633 604 l 1
 633 812 549 864 455 864 c 2
 437 864 l 2
 319 864 285 821 270 771 c 1
 94 825 l 1
 130 944 229 1048 437 1048 c 2
EndSplineSet
Validated: 3073
EndChar

StartChar: iucyrillic
Encoding: 1102 1102 358
Width: 922
VWidth: 1947
GlyphClass: 2
Flags: W
HStem: -25 184<540.749 642.732> 420 184<234 312> 864 184<536.074 644.734>
VStem: 50 184<0 420 604 1023> 312 182<208.689 420 604 821.828> 688 184<202.069 823.421>
LayerCount: 2
Fore
SplineSet
591 864 m 3
 525 864 494 734 494 513 c 3
 494 349 521 159 591 159 c 3
 630 159 688 202 688 513 c 3
 688 722 661 864 591 864 c 3
872 513 m 3
 872 325 862 -25 591 -25 c 3
 368 -25 321 218 312 420 c 1
 234 420 l 1
 234 -0 l 1
 50 0 l 1
 50 1023 l 1
 234 1023 l 1
 234 604 l 1
 312 604 l 1
 321 780 386 1048 591 1048 c 27
 827 1048 872 783 872 513 c 3
EndSplineSet
Validated: 3073
EndChar

StartChar: iacyrillic
Encoding: 1103 1103 359
Width: 922
VWidth: 1947
GlyphClass: 2
Flags: W
HStem: -0 21G<648 832> 395 184<531 648> 839 184<301.815 648>
VStem: 90 184<630.468 808.029> 648 184<0 395 579 839>
DStem2: 86 70 238 -34 0.563994 0.825779<0 419.386>
LayerCount: 2
Fore
SplineSet
648 839 m 1
 452 839 l 2
 295 839 274 775 274 732 c 2
 274 711 l 2
 274 631 371 579 452 579 c 2
 648 579 l 1
 648 839 l 1
648 395 m 1
 531 395 l 1
 238 -34 l 1
 86 70 l 1
 323 416 l 1
 190 461 90 573 90 711 c 2
 90 732 l 2
 90 848 164 1023 452 1023 c 2
 832 1023 l 1
 832 0 l 1
 648 -0 l 1
 648 395 l 1
EndSplineSet
Validated: 3073
EndChar

StartChar: ecyrillic
Encoding: 1108 1108 362
Width: 922
VWidth: 1947
GlyphClass: 2
Flags: W
HStem: -26 186<364.55 625.736> 419 186<291 606> 863 186<355.003 622.438>
VStem: 105 186<244 419 605 791.768>
LayerCount: 2
Fore
SplineSet
486 863 m 2
 468 863 l 2
 375 863 293 811 291 605 c 1
 606 605 l 1
 606 419 l 1
 291 419 l 1
 293 263 364 160 468 160 c 2
 486 160 l 2
 602 160 636 202 652 249 c 1
 828 191 l 1
 788 72 687 -26 486 -26 c 2
 468 -26 l 2
 256 -26 105 161 105 427 c 2
 105 597 l 2
 105 867 229 1049 468 1049 c 2
 486 1049 l 2
 694 1049 794 945 830 825 c 1
 652 771 l 1
 637 820 604 863 486 863 c 2
EndSplineSet
Validated: 3073
EndChar

StartChar: numero
Encoding: 8470 8470 372
Width: 922
VWidth: 1947
Flags: W
HStem: -0 21G<20 204 360.187 522> 486 120<699.514 763.566> 1165 120<693.561 764.757> 1380 20G<20 181.813 338 522>
VStem: 20 157<1340.43 1400> 20 184<0 669> 338 184<731 1400> 365 157<0 59.5701> 545 120<625.61 1154.07> 791 120<616.907 1153.22>
LayerCount: 2
Fore
SplineSet
728 1165 m 3xf0c0
 702 1165 665 1101 665 887 c 3
 665 700 708 606 728 606 c 3
 751 606 791 646 791 887 c 3
 791 1104 754 1165 728 1165 c 3xf0c0
728 1285 m 3
 869 1285 911 1116 911 887 c 3
 911 670 880 486 728 486 c 3
 577 486 545 673 545 887 c 3
 545 1121 581 1285 728 1285 c 3
20 -0 m 1xf5c0
 20 1400 l 1
 177 1400 l 1
 338 731 l 1
 338 1400 l 1
 522 1400 l 1xfac0
 522 -0 l 1
 365 0 l 1
 204 669 l 1
 204 0 l 1
 20 -0 l 1xf5c0
EndSplineSet
Validated: 3073
EndChar

StartChar: caroncomb
Encoding: 780 780 377
Width: 922
VWidth: 1947
Flags: W
HStem: 1422 136<375 547>
VStem: 215 492
DStem2: 307 1666 215 1534 0.818732 -0.574176<0.467843 188.096> 461 1558 547 1422 0.818732 0.574176<0 187.628>
LayerCount: 2
Fore
SplineSet
461 1558 m 1
 615 1666 l 1
 707 1534 l 1
 547 1422 l 1
 375 1422 l 1
 215 1534 l 1
 307 1666 l 1
 461 1558 l 1
EndSplineSet
Validated: 3073
EndChar

StartChar: gravecomb
Encoding: 768 768 379
Width: 922
VWidth: 2334
Flags: W
HStem: 1383 319
VStem: 334 314
DStem2: 334 1592 532 1383 0.725624 0.688092<0 159.725> 450 1702 334 1592 0.687745 -0.725953<0.0764128 287.898>
LayerCount: 2
Fore
SplineSet
648 1493 m 1
 532 1383 l 1
 334 1592 l 1
 450 1702 l 1
 648 1493 l 1
EndSplineSet
Validated: 3073
EndChar

StartChar: acutecomb
Encoding: 769 769 380
Width: 922
VWidth: 2334
Flags: W
HStem: 1383 319
VStem: 274 314
DStem2: 472 1702 274 1493 0.725624 -0.688092<0.137618 159.862> 274 1493 390 1383 0.687745 0.725953<0 287.821>
LayerCount: 2
Fore
SplineSet
390 1383 m 1
 274 1493 l 1
 472 1702 l 1
 588 1592 l 1
 390 1383 l 1
EndSplineSet
Validated: 3073
EndChar

StartChar: tildecomb
Encoding: 771 771 381
Width: 922
VWidth: 1947
Flags: W
HStem: 1442 160<492.35 650.319> 1532 160<273.556 429.807>
DStem2: 119 1551 245 1453 0.624695 0.780869<2.18643 136.143> 504 1636 398 1516 0.745241 -0.666795<-65.3937 92.7376> 659 1657 787 1561 0.594391 0.804176<-99.9056 27.4818>
LayerCount: 2
Fore
SplineSet
139 1577 m 2x40
 158 1602 236 1692 344 1692 c 2
 360 1692 l 2x40
 422 1692 474 1663 504 1636 c 2
 523 1619 l 2
 539 1604 551 1602 561 1602 c 2
 578 1602 l 2
 597 1602 622 1607 659 1657 c 2
 676 1680 l 1
 804 1584 l 1
 787 1561 l 2
 713 1460 605 1442 578 1442 c 2
 561 1442 l 2x80
 506 1442 449 1470 417 1499 c 2
 398 1516 l 2
 389 1524 374 1532 360 1532 c 2
 344 1532 l 2
 311 1532 297 1518 265 1478 c 2
 245 1453 l 1
 119 1551 l 1
 139 1577 l 2x40
EndSplineSet
Validated: 3073
EndChar

StartChar: hookabovecomb
Encoding: 777 777 382
Width: 922
VWidth: 1947
Flags: W
HStem: 1255 192<388 546.656> 1556 130<303.037 582.29>
VStem: 388 160<1255 1311> 586 160<1455.78 1545.55>
LayerCount: 2
Fore
SplineSet
388 1255 m 1
 388 1447 l 1
 468 1447 l 2
 578 1447 586 1476 586 1505 c 3
 586 1533 542 1556 480 1556 c 3
 416 1556 374 1546 323 1512 c 1
 235 1616 l 1
 317 1669 394 1686 480 1686 c 3
 702 1686 746 1581 746 1495 c 3
 746 1390 712 1328 548 1311 c 1
 548 1255 l 1
 388 1255 l 1
EndSplineSet
Validated: 3073
EndChar

StartChar: dotbelowcomb
Encoding: 803 803 383
Width: 922
VWidth: 2334
Flags: W
HStem: -373 240<368.761 554.103>
VStem: 342 240<-345.509 -160.491>
LayerCount: 2
Fore
SplineSet
342 -253 m 27
 342 -187 394 -133 461 -133 c 27
 527 -133 582 -187 582 -253 c 27
 582 -319 527 -373 461 -373 c 27
 394 -373 342 -319 342 -253 c 27
EndSplineSet
Validated: 3073
EndChar

StartChar: commaturnedabovecmb
Encoding: 786 786 396
Width: 922
VWidth: 1947
Flags: W
HStem: -491 160<358.525 602.558> -212 230<418 576.915>
VStem: 418 160<-79 18> 607 160<-317.298 -220.14>
LayerCount: 2
Fore
SplineSet
578 18 m 1
 578 -79 l 1
 718 -106 767 -180 767 -270 c 0
 767 -419 616 -491 501 -491 c 0
 401 -491 333 -461 256 -411 c 1
 344 -277 l 1
 395 -311 436 -331 501 -331 c 0
 544 -331 607 -308 607 -270 c 0
 607 -227 571 -212 489 -212 c 2
 418 -212 l 1
 418 18 l 1
 578 18 l 1
EndSplineSet
Validated: 3073
EndChar

StartChar: Hbar
Encoding: 294 294 400
Width: 922
VWidth: 1947
Flags: W
HStem: 0 21G<90 274 648 832> 608 184<274 648> 1078 184<60 90 274 648 832 862> 1380 20G<90 274 648 832>
VStem: 90 184<0 608 792 1078 1262 1400> 648 184<0 608 792 1078 1262 1400>
LayerCount: 2
Fore
SplineSet
274 -0 m 1
 90 0 l 1
 90 1078 l 1
 60 1078 l 1
 60 1262 l 1
 90 1262 l 1
 90 1400 l 1
 274 1400 l 1
 274 1262 l 1
 648 1262 l 1
 648 1400 l 1
 832 1400 l 1
 832 1262 l 1
 862 1262 l 1
 862 1078 l 1
 832 1078 l 1
 832 -0 l 1
 648 0 l 1
 648 608 l 1
 274 608 l 1
 274 -0 l 1
274 792 m 1
 648 792 l 1
 648 1078 l 1
 274 1078 l 1
 274 792 l 1
EndSplineSet
EndChar

StartChar: hbar
Encoding: 295 295 401
Width: 922
VWidth: 1947
Flags: W
HStem: 0 21G<90 274 648 832> 865 184<369.063 607.712> 1188 184<60 90 274 552> 1380 20G<90 274>
VStem: 90 184<0 750.021 982 1188 1372 1400> 648 184<0 822.093>
LayerCount: 2
Fore
SplineSet
274 -0 m 1
 90 0 l 1
 90 1188 l 1
 60 1188 l 1
 60 1372 l 1
 90 1372 l 1
 90 1400 l 1
 274 1400 l 1
 274 1372 l 1
 552 1372 l 1
 552 1188 l 1
 274 1188 l 1
 274 982 l 1
 345 1045 418 1049 452 1049 c 2
 470 1049 l 2
 682 1049 832 936 832 687 c 2
 832 0 l 1
 648 -0 l 1
 648 687 l 2
 648 814 598 865 470 865 c 2
 452 865 l 2
 358 865 274 690 274 597 c 2
 274 -0 l 1
EndSplineSet
EndChar

StartChar: IJ
Encoding: 306 306 410
Width: 922
VWidth: 1947
Flags: W
HStem: 0 184<40 179 363 562> 255 184<427 548.792> 1216 184<40 179 363 558 742 882>
VStem: 179 184<184 1216> 558 184<443.675 1216>
LayerCount: 2
Fore
SplineSet
515 439 m 2
 544 439 558 469 558 607 c 2
 558 1216 l 1
 363 1216 l 1
 363 184 l 1
 562 184 l 1
 562 0 l 1
 40 0 l 1
 40 184 l 1
 179 184 l 1
 179 1216 l 1
 40 1216 l 1
 40 1400 l 1
 882 1400 l 1
 882 1216 l 1
 742 1216 l 1
 742 607 l 2
 742 307 637 255 515 255 c 2
 427 255 l 1
 427 439 l 1
 515 439 l 2
EndSplineSet
Validated: 3073
EndChar

StartChar: Tbar
Encoding: 358 358 430
Width: 922
VWidth: 1947
Flags: W
HStem: -0 21G<369 553> 468 184<63 369 553 846> 1216 184<70 369 553 852>
VStem: 369 184<0 468 652 1216>
LayerCount: 2
Fore
SplineSet
852 1400 m 1
 852 1216 l 1
 553 1216 l 1
 553 652 l 1
 846 652 l 1
 846 468 l 1
 553 468 l 1
 553 0 l 1
 369 -0 l 1
 369 468 l 1
 63 468 l 1
 63 652 l 1
 369 652 l 1
 369 1216 l 1
 70 1216 l 1
 70 1400 l 1
 852 1400 l 1
EndSplineSet
EndChar

StartChar: tbar
Encoding: 359 359 431
Width: 922
VWidth: 1947
Flags: W
HStem: -25 184<453.763 607.212> 468 184<63 261 454 846> 824 184<90 279 472 740> 1405 20G<307.993 493>
VStem: 250 184<172.326 468> 270 184<652 824> 309 184<1140.33 1425> 628 184<176.3 247>
LayerCount: 2
Fore
SplineSet
540 159 m 2xf9
 586 159 628 218 628 247 c 1
 812 247 l 1
 782 6 597 -25 540 -25 c 2
 522 -25 l 2
 371 -25 250 117 250 234 c 0
 250 237 250 239 250 242 c 2xf9
 261 468 l 1
 63 468 l 1
 63 652 l 1
 270 652 l 1xf5
 279 824 l 1
 90 824 l 1
 90 1008 l 1
 288 1008 l 1
 309 1425 l 1
 493 1425 l 1xf3
 472 1008 l 1
 740 1008 l 1
 740 824 l 1
 463 824 l 1
 454 652 l 1xf5
 846 652 l 1
 846 468 l 1
 445 468 l 1
 434 242 l 2
 434 219 464 159 522 159 c 2
 540 159 l 2xf9
EndSplineSet
EndChar

StartChar: A
Encoding: 65 65 461
Width: 922
VWidth: 1708
Flags: W
HStem: 0 21G<68 261.31 660.69 854> 232 184<347 575> 938 487<135.5 786.5>
VStem: 68 189<0 189> 665 189<0 189>
DStem2: 68 0 257 0 0.213227 0.977003<40.2998 277.626 465.923 1000.23> 543 1425 461 938 0.213227 -0.977003<458.316 992.619 1180.92 1418.24>
LayerCount: 2
Fore
SplineSet
347 416 m 1
 575 416 l 1
 461 938 l 1
 347 416 l 1
257 0 m 1
 68 0 l 1
 379 1425 l 1
 543 1425 l 1
 854 -0 l 1
 665 -0 l 1
 615 232 l 1
 307 232 l 1
 257 0 l 1
EndSplineSet
Validated: 3073
EndChar

StartChar: Lambda
Encoding: 923 923 462
Width: 922
VWidth: 1708
Flags: W
HStem: -0 21G<68 261.35 660.65 854> 938 487<135.5 786.5>
VStem: 68 189<0 189> 665 189<0 189>
DStem2: 68 -0 257 0 0.213227 0.977003<40.2998 1000.23> 543 1425 461 938 0.213227 -0.977003<458.316 1418.24>
LayerCount: 2
Fore
SplineSet
257 0 m 1
 68 -0 l 1
 379 1425 l 1
 543 1425 l 1
 854 -0 l 1
 665 -0 l 1
 461 938 l 1
 257 0 l 1
EndSplineSet
Validated: 3073
EndChar

StartChar: Delta
Encoding: 916 916 463
Width: 922
VWidth: 1708
Flags: W
HStem: 0 184<296 626> 939 486<136 786>
DStem2: 67 0 296 184 0.213881 0.97686<228.721 1001.54> 543 1425 461 939 0.213227 -0.977003<457.339 1230.16>
LayerCount: 2
Fore
SplineSet
626 184 m 1
 461 939 l 1
 296 184 l 1
 626 184 l 1
67 0 m 1
 379 1425 l 1
 543 1425 l 1
 854 0 l 1
 67 0 l 1
EndSplineSet
Validated: 3073
EndChar

StartChar: Theta
Encoding: 920 920 464
Width: 922
VWidth: 1947
Flags: W
HStem: -25 184<365.569 554.302> 607 184<340 582> 1241 184<366.467 556.2>
VStem: 80 184<303.495 1100.03> 340 242<607 791> 658 184<304.339 1100.01>
CounterMasks: 1 1c
LayerCount: 2
Fore
SplineSet
842 700 m 0
 842 402 807 -25 461 -25 c 0
 106 -25 80 425 80 700 c 0
 80 988 110 1425 461 1425 c 0
 814 1425 842 987 842 700 c 0
461 1241 m 0
 322 1241 264 1068 264 700 c 0
 264 336 320 159 461 159 c 0
 597 159 658 328 658 700 c 0
 658 1069 602 1241 461 1241 c 0
582 791 m 1
 582 607 l 1
 340 607 l 1
 340 791 l 1
 582 791 l 1
EndSplineSet
Validated: 3073
EndChar

StartChar: Xi
Encoding: 926 926 465
Width: 922
VWidth: 1708
Flags: W
HStem: 0 337<90 274 648 832> 0 184<274 648> 608 184<272 648> 1049 351<90 274 648 832> 1216 184<274 648>
VStem: 90 184<184 337 1049 1216> 648 184<184 337 1049 1216>
LayerCount: 2
Fore
SplineSet
274 184 m 1x66
 648 184 l 1x66
 648 337 l 1
 832 337 l 1
 832 0 l 1
 90 0 l 1
 90 337 l 1
 274 337 l 1xa6
 274 184 l 1x66
648 792 m 1
 648 608 l 1
 272 608 l 1
 272 792 l 1
 648 792 l 1
90 1049 m 1x36
 90 1400 l 1
 832 1400 l 1
 832 1049 l 1
 648 1049 l 1x36
 648 1216 l 1
 274 1216 l 1x2e
 274 1049 l 1
 90 1049 l 1x36
EndSplineSet
Validated: 3073
EndChar

StartChar: Sigma
Encoding: 931 931 468
Width: 922
VWidth: 1947
Flags: W
HStem: -25 184<307 832> 1216 184<310 832>
DStem2: 310 1216 90 1246 0.443716 -0.896167<0 483.712> 90 130 307 159 0.427157 0.904177<118.914 631.618>
LayerCount: 2
Fore
SplineSet
90 1400 m 1
 832 1400 l 1
 832 1216 l 1
 310 1216 l 1
 564 703 l 1
 307 159 l 1
 832 159 l 1
 832 -25 l 1
 90 -25 l 1
 90 130 l 1
 360 701 l 1
 90 1246 l 1
 90 1400 l 1
EndSplineSet
Validated: 3073
EndChar

StartChar: Psi
Encoding: 936 936 473
Width: 922
VWidth: 1947
Flags: W
HStem: -24 21G<369 553> 420 184<273.31 369 553 653.528> 1405 20G<369 553>
VStem: 70 184<623.017 696 696 1333> 369 184<-24 420 604 1425> 668 184<619.887 1333>
CounterMasks: 1 1c
LayerCount: 2
Fore
SplineSet
254 696 m 2
 254 670 273 612 346 604 c 2
 369 604 l 1
 369 1425 l 1
 553 1425 l 1
 553 604 l 1
 576 604 l 2
 642 604 668 653 668 696 c 2
 668 1333 l 1
 852 1333 l 1
 852 696 l 2
 852 542 734 420 576 420 c 2
 553 420 l 1
 553 -24 l 1
 369 -24 l 1
 369 420 l 1
 346 420 l 2
 102 445 70 629 70 696 c 2
 70 1333 l 1
 254 1333 l 1
 254 696 l 2
EndSplineSet
Validated: 3073
EndChar

StartChar: Omega
Encoding: 937 937 474
Width: 922
VWidth: 1947
Flags: W
HStem: 0 184<90 199 723 832> 1241 184<346.314 577.488>
VStem: 80 184<517.351 1148.58> 90 292<0 184> 199 183<184 340> 539 293<0 184> 539 184<184 341> 658 184<521.601 1145.91>
LayerCount: 2
Fore
SplineSet
199 184 m 1xc8
 199 340 l 1xc8
 140 415 80 551 80 830 c 0
 80 1127 134 1425 461 1425 c 0
 799 1425 842 1096 842 830 c 0xe1
 842 554 782 416 723 341 c 1
 723 184 l 1xc2
 832 184 l 1
 832 0 l 1
 539 -0 l 1xc4
 539 413 l 1xc2
 565 439 l 2
 625 501 658 636 658 830 c 0
 658 1121 609 1241 461 1241 c 0
 314 1241 264 1131 264 830 c 0xe1
 264 600 308 488 356 439 c 2
 382 413 l 1xc8
 382 0 l 1
 90 0 l 1
 90 184 l 1xd0
 199 184 l 1xc8
EndSplineSet
Validated: 3073
EndChar

StartChar: alpha
Encoding: 945 945 483
Width: 922
VWidth: 1947
Flags: W
HStem: -25 183<332.681 496.02> 864 185<333.741 499.31>
VStem: 80 183<247.836 775.151>
DStem2: 660 909 870 1004 0.214606 0.976701<0 137.854> 873 20 662 118 0.218809 -0.975768<-141.794 -0.354827>
LayerCount: 2
Fore
SplineSet
574 515 m 1
 515 780 l 2
 501 843 457 864 417 864 c 3
 294 864 263 669 263 511 c 3
 263 346 294 158 421 158 c 3
 456 158 495 176 514 243 c 2
 574 515 l 1
762 515 m 1
 873 20 l 1
 693 -20 l 1
 662 118 l 1
 610 23 512 -25 414 -25 c 3
 281 -25 80 64 80 513 c 3
 80 963 281 1049 414 1049 c 3
 511 1049 608 1001 660 909 c 1
 690 1044 l 1
 870 1004 l 1
 762 515 l 1
EndSplineSet
Validated: 3073
EndChar

StartChar: beta
Encoding: 946 946 484
Width: 922
VWidth: 2334
Flags: W
HStem: -25 184<305.591 636.192> 457 184<401 611.926> 865 184<314.288 592.888>
VStem: 90 184<-321 7 192.166 822.093> 633 185<669.559 824.984> 667 184<193.883 422.823>
LayerCount: 2
Fore
SplineSet
90 291 m 1xf4
 90 687 l 2
 90 936 240 1049 452 1049 c 2
 456 1049 l 2
 666 1049 818 935 818 752 c 27xf8
 818 673 788 609 745 562 c 1
 815 505 851 422 851 325 c 2
 851 291 l 2
 851 108 724 -25 489 -25 c 2
 452 -25 l 2
 383 -25 324 -14 274 7 c 1
 274 -321 l 1
 90 -321 l 1
 90 291 l 1xf4
274 291 m 2
 274 221 308 159 452 159 c 2
 489 159 l 2
 633 159 667 222 667 291 c 2
 667 325 l 2xf4
 667 392 633 457 489 457 c 2
 401 457 l 1
 401 641 l 1
 456 641 l 2
 539 641 633 664 633 735 c 2
 633 752 l 2
 633 843 501 865 456 865 c 2
 452 865 l 2
 324 865 274 814 274 687 c 2
 274 291 l 2
EndSplineSet
Validated: 3073
EndChar

StartChar: gamma
Encoding: 947 947 485
Width: 922
VWidth: 2334
Flags: W
HStem: -385 21G<370 554> 1003 20G<86 283.828 638.172 835>
VStem: 86 192<831 1023> 370 184<-385 121.074> 644 191<832 1023>
DStem2: 461 395 554 57 0.279313 0.9602<0 654.12>
LayerCount: 2
Fore
SplineSet
370 -385 m 1
 370 50 l 1
 86 1023 l 1
 278 1023 l 1
 461 395 l 1
 644 1023 l 1
 835 1023 l 1
 554 57 l 1
 554 -385 l 1
 370 -385 l 1
EndSplineSet
Validated: 3073
EndChar

StartChar: delta
Encoding: 948 948 486
Width: 922
VWidth: 2334
Flags: W
HStem: -25 184<348.658 580.098> 1216 184<422 740>
VStem: 90 184<244.578 798.449> 648 184<234.292 794.048>
DStem2: 422 1216 348 1036 0.744569 -0.667545<0 65.06>
LayerCount: 2
Fore
SplineSet
274 597 m 2
 274 427 l 2
 274 266 345 159 452 159 c 2
 470 159 l 2
 566 159 648 213 648 427 c 2
 648 597 l 2
 648 811 564 865 470 865 c 2
 452 865 l 2
 357 865 274 810 274 597 c 2
120 1400 m 1
 740 1400 l 1
 740 1216 l 1
 422 1216 l 1
 683 982 l 2
 782 906 832 769 832 597 c 2
 832 427 l 2
 832 54 615 -25 470 -25 c 2
 452 -25 l 2
 240 -25 90 162 90 427 c 2
 90 597 l 2
 90 824 178 989 348 1036 c 1
 120 1240 l 1
 120 1400 l 1
EndSplineSet
Validated: 3073
EndChar

StartChar: epsilon
Encoding: 949 949 487
Width: 922
VWidth: 2334
Flags: W
HStem: -25 184<312.282 629.303> 441 184<311.898 608> 865 184<313.083 631.904>
VStem: 90 184<192.33 401.221 656.935 829.767>
LayerCount: 2
Fore
SplineSet
637 815 m 1
 602 855 540 865 490 865 c 2
 452 865 l 2
 308 865 274 801 274 732 c 3
 274 645 381 625 455 625 c 2
 608 625 l 1
 608 441 l 1
 456 441 l 2
 294 441 274 345 274 317 c 2
 274 300 l 2
 274 219 311 159 452 159 c 2
 490 159 l 2
 587 159 616 186 638 213 c 1
 782 99 l 1
 713 11 621 -25 490 -25 c 2
 452 -25 l 2
 214 -25 90 111 90 300 c 2
 90 317 l 2
 90 401 137 482 184 527 c 1
 92 606 90 701 90 732 c 3
 90 913 216 1049 452 1049 c 2
 490 1049 l 2
 701 1049 776 934 787 921 c 1
 637 815 l 1
EndSplineSet
Validated: 3073
EndChar

StartChar: zeta
Encoding: 950 950 488
Width: 922
VWidth: 2334
Flags: W
HStem: -385 183<461 630.051> -25 184<316.907 636.89>
VStem: 90 184<198.463 460.377> 648 184<-183.704 -40.6435>
DStem2: 312 702 418 552 0.812661 0.582737<-200.246 275.044>
LayerCount: 2
Fore
SplineSet
832 900 m 1
 812 875 l 2
 759 807 694 750 623 699 c 2
 418 552 l 2
 289 459 274 396 274 357 c 2
 274 337 l 2
 274 209 323 159 452 159 c 2
 470 159 l 1
 640 159 832 105 832 -104 c 3
 832 -265 746 -385 461 -385 c 1
 461 -202 l 1
 625 -202 648 -173 648 -104 c 3
 648 -49 615 -25 470 -25 c 2
 452 -25 l 2
 203 -25 90 123 90 337 c 2
 90 357 l 2
 90 515 202 625 312 702 c 2
 517 849 l 1
 535 863 l 1
 453 883 375 920 309 982 c 1
 435 1116 l 1
 507 1049 611 1023 740 1023 c 2
 832 1023 l 1
 832 900 l 1
EndSplineSet
Validated: 3073
EndChar

StartChar: eta
Encoding: 951 951 489
Width: 922
VWidth: 2334
Flags: W
HStem: -385 21G<648 832> 0 21G<90 274> 865 184<370.169 607.712>
VStem: 90 184<0 746.352 982 1023> 648 184<-385 822.093>
LayerCount: 2
Fore
SplineSet
452 865 m 2
 343 854 274 677 274 597 c 2
 274 -0 l 1
 90 0 l 1
 90 1023 l 1
 274 1023 l 1
 274 982 l 1
 353 1046 411 1049 452 1049 c 2
 470 1049 l 2
 682 1049 832 936 832 687 c 2
 832 -385 l 1
 648 -385 l 1
 648 687 l 2
 648 814 598 865 470 865 c 2
 452 865 l 2
EndSplineSet
Validated: 3073
EndChar

StartChar: theta
Encoding: 952 952 490
Width: 922
VWidth: 1947
Flags: W
HStem: -25 184<345.358 576.796> 420 184<268 654> 864 184<343.519 578.319>
VStem: 80 188<247.364 420 604 776.983> 654 188<247.364 420 604 776.983>
LayerCount: 2
Fore
SplineSet
842 513 m 0
 842 50 613 -25 461 -25 c 0
 309 -25 80 50 80 513 c 0
 80 973 309 1048 461 1048 c 0
 613 1048 842 973 842 513 c 0
654 604 m 1
 638 792 571 864 461 864 c 0
 351 864 283 792 268 604 c 1
 654 604 l 1
654 420 m 1
 268 420 l 1
 284 232 351 159 461 159 c 0
 571 159 639 232 654 420 c 1
EndSplineSet
Validated: 3073
EndChar

StartChar: lambda
Encoding: 955 955 491
Width: 922
VWidth: 2334
Flags: W
HStem: -0 21G<86 283.819 638.181 835> 1390 20G<235 431.801>
VStem: 86 192<0 192> 235 191<1219 1410> 644 191<0 191>
DStem2: 86 -0 278 -0 0.279346 0.96019<53.6345 708.715> 426 1410 235 1410 0.278587 -0.960411<0 416.151 759.831 1414.91>
LayerCount: 2
Fore
SplineSet
86 -0 m 1xe8
 365 959 l 1
 235 1410 l 1
 426 1410 l 1xd8
 835 0 l 1
 644 -0 l 1
 461 629 l 1
 278 -0 l 1
 86 -0 l 1xe8
EndSplineSet
Validated: 3073
EndChar

StartChar: xi
Encoding: 958 958 494
Width: 922
VWidth: 2334
Flags: W
HStem: -385 183<458 604.661> -25 184<312.282 625.569> 441 184<318.654 648>
VStem: 90 184<192.471 397.223 663.123 838.421> 648 183<-162.321 -120 -120 -61.7669>
LayerCount: 2
Fore
SplineSet
274 732 m 3
 274 648 415 625 456 625 c 1
 648 625 l 1
 648 441 l 1
 456 441 l 2
 325 441 274 362 274 317 c 2
 274 300 l 2
 274 218 312 159 452 159 c 2
 490 159 l 2
 519 159 831 105 831 -88 c 2
 831 -149 l 2
 831 -243 688 -385 458 -385 c 1
 458 -202 l 1
 579 -202 648 -133 648 -120 c 2
 648 -97 l 2
 648 -57 524 -25 490 -25 c 2
 452 -25 l 2
 214 -25 90 112 90 300 c 2
 90 317 l 2
 90 336 103 453 185 524 c 1
 126 574 90 646 90 732 c 0
 90 932 206 1006 328 1055 c 1
 286 1079 248 1110 211 1149 c 1
 345 1275 l 1
 415 1201 486 1163 604 1163 c 1
 740 1163 l 1
 740 1068 l 1
 656 1004 l 2
 471 864 274 909 274 732 c 3
EndSplineSet
Validated: 3073
EndChar

StartChar: pi
Encoding: 960 960 496
Width: 922
VWidth: 2334
Flags: W
HStem: 0 21G<129 339 581.5 790> 840 183<364 558>
VStem: 180 184<14.9093 823> 558 184<9.58094 840>
LayerCount: 2
Fore
SplineSet
90 985 m 1
 145 1010 211 1023 292 1023 c 2
 630 1023 l 2
 743 1023 799 1060 832 1108 c 1
 832 878 l 1
 806 867 776 857 742 850 c 1
 742 200 l 2
 742 133 764 56 790 0 c 1
 593 0 l 1
 570 68 558 139 558 200 c 2
 558 840 l 1
 364 840 l 1
 364 200 l 2
 364 149 351 74 327 0 c 1
 129 0 l 1
 158 62 180 146 180 200 c 2
 180 823 l 1
 139 808 112 786 90 763 c 1
 90 985 l 1
EndSplineSet
Validated: 3073
EndChar

StartChar: rho
Encoding: 961 961 497
Width: 922
VWidth: 2334
Flags: W
HStem: -385 21G<90 274> -25 184<337.263 582.565> 865 184<341.902 573.342>
VStem: 90 184<-385 19 224.787 789.708> 648 184<232.232 427 427 779.422>
LayerCount: 2
Fore
SplineSet
470 -25 m 2
 452 -25 l 2
 383 -25 324 -10 274 19 c 1
 274 -385 l 1
 90 -385 l 1
 90 597 l 2
 90 970 307 1049 452 1049 c 2
 470 1049 l 2
 682 1049 832 862 832 597 c 2
 832 427 l 2
 832 157 708 -25 470 -25 c 2
648 427 m 2
 648 597 l 2
 648 758 577 865 470 865 c 2
 452 865 l 2
 356 865 274 811 274 597 c 2
 274 427 l 2
 274 213 358 159 452 159 c 2
 470 159 l 2
 565 159 648 214 648 427 c 2
EndSplineSet
Validated: 3073
EndChar

StartChar: sigmafinal
Encoding: 962 962 498
Width: 922
VWidth: 2059
Flags: W
HStem: -385 183<458 625.903> -25 184<348.658 625.617> 865 184<383.586 739.666>
VStem: 90 184<244.156 755.764> 648 183<-175.646 -53.1738>
DStem2: 774 1003 751 816 0.936329 -0.351123<-171.252 42.72>
LayerCount: 2
Fore
SplineSet
648 -93 m 2
 648 -86 612 -25 470 -25 c 2
 452 -25 l 2
 240 -25 90 161 90 427 c 2
 90 597 l 2
 90 855 269 1049 537 1049 c 0
 612 1049 691 1034 774 1003 c 2
 814 988 l 1
 751 816 l 1
 710 831 l 2
 645 855 587 865 537 865 c 0
 373 865 274 756 274 597 c 2
 274 427 l 2
 274 266 345 159 452 159 c 2
 470 159 l 2
 748 159 831 8 831 -93 c 2
 831 -111 l 2
 831 -217 763 -385 458 -385 c 1
 458 -202 l 1
 626 -202 648 -144 648 -111 c 2
 648 -93 l 2
EndSplineSet
Validated: 3073
EndChar

StartChar: sigma
Encoding: 963 963 499
Width: 922
VWidth: 1947
Flags: W
HStem: -25 184<330.852 523.262> 840 183<726 862> 864 184<330.633 524.865>
VStem: 80 184<240.256 783.406> 598 184<251.976 775.335>
LayerCount: 2
Fore
SplineSet
431 864 m 0xb8
 320 864 264 765 264 513 c 0
 264 257 321 159 431 159 c 0
 570 159 598 365 598 513 c 0
 598 661 570 864 431 864 c 0xb8
782 513 m 0
 782 68 571 -25 431 -25 c 0
 291 -25 80 46 80 513 c 0
 80 977 291 1048 431 1048 c 0xb8
 468 1048 510 1041 551 1023 c 1
 862 1023 l 1
 862 840 l 1
 726 840 l 1xd8
 760 761 782 656 782 513 c 0
EndSplineSet
Validated: 3073
EndChar

StartChar: tau
Encoding: 964 964 500
Width: 922
VWidth: 2334
Flags: W
HStem: 0 21G<302 523.5> 840 183<127.715 369 553 793.079>
VStem: 369 184<38.589 840>
LayerCount: 2
Fore
SplineSet
292 1023 m 2
 630 1023 l 2
 743 1023 799 1060 832 1108 c 1
 832 878 l 1
 780 855 714 840 630 840 c 2
 553 840 l 1
 553 200 l 2
 553 131 537 62 510 -0 c 1
 441 -0 371 0 302 0 c 1
 338 52 369 125 369 200 c 2
 369 840 l 1
 292 840 l 2
 181 840 129 803 90 763 c 1
 90 985 l 1
 145 1010 211 1023 292 1023 c 2
EndSplineSet
Validated: 3073
EndChar

StartChar: upsilon
Encoding: 965 965 501
Width: 922
VWidth: 1947
Flags: W
HStem: -25 184<349.47 577.664> 864 184<531 604.082>
VStem: 90 184<252.111 1023> 658 184<258.143 808.592>
LayerCount: 2
Fore
SplineSet
842 513 m 0
 842 50 613 -25 461 -25 c 0
 238 -25 90 124 90 513 c 0
 90 615 90 921 90 1023 c 1
 274 1023 l 1
 274 921 274 615 274 513 c 0
 274 243 342 159 461 159 c 0
 587 159 658 252 658 513 c 3
 658 834 584 864 535 864 c 0
 531 864 l 1
 531 1048 l 1
 739 1048 842 926 842 513 c 0
EndSplineSet
Validated: 3073
EndChar

StartChar: phi
Encoding: 966 966 502
Width: 922
VWidth: 1947
Flags: W
HStem: -385 21G<369 553> 864 185<569.221 650.842>
VStem: 40 184<290.226 956> 369 184<-385 -16 178 861.532> 698 184<286.936 815.46>
CounterMasks: 1 38
LayerCount: 2
Fore
SplineSet
369 702 m 2
 369 972 512 1049 607 1049 c 3
 717 1049 882 967 882 513 c 3
 882 241 767 31 553 -16 c 1
 553 -385 l 1
 369 -385 l 1
 369 -16 l 1
 154 31 40 242 40 513 c 2
 40 956 l 1
 224 956 l 1
 224 513 l 2
 224 385 255 231 369 178 c 1
 369 702 l 2
553 178 m 1
 667 231 698 385 698 513 c 3
 698 739 652 864 605 864 c 3
 592 864 553 835 553 702 c 2
 553 178 l 1
EndSplineSet
Validated: 3073
EndChar

StartChar: chi
Encoding: 967 967 503
Width: 922
VWidth: 2062
Flags: W
HStem: -385 21G<104 308.447 581.5 874> 1003 20G<58 338 619.589 823>
VStem: 104 197<-385 -188> 627 196<827 1023>
DStem2: 104 -385 301 -385 0.348203 0.937419<68.596 469.814 1053.02 1502>
LayerCount: 2
Fore
SplineSet
104 -385 m 1
 358 297 l 1
 287 592 214 882 58 1023 c 1
 299 1023 l 1
 377 904 429 757 471 602 c 1
 627 1023 l 1
 823 1023 l 1
 550 286 l 1
 617 16 694 -239 874 -385 c 1
 622 -385 l 1
 541 -275 485 -147 441 -9 c 1
 301 -385 l 1
 104 -385 l 1
EndSplineSet
Validated: 3073
EndChar

StartChar: psi
Encoding: 968 968 504
Width: 922
VWidth: 1947
Flags: W
HStem: -385 21G<369 553> 1029 20G<369 553>
VStem: 40 184<290.226 956> 369 184<-385 -16 178 1049> 698 184<289.786 956>
CounterMasks: 1 38
LayerCount: 2
Fore
SplineSet
369 1049 m 1
 553 1049 l 1
 553 178 l 1
 667 231 698 385 698 513 c 2
 698 956 l 1
 882 956 l 1
 882 513 l 2
 882 241 767 31 553 -16 c 1
 553 -385 l 1
 369 -385 l 1
 369 -16 l 1
 154 31 40 242 40 513 c 2
 40 956 l 1
 224 956 l 1
 224 513 l 2
 224 385 255 231 369 178 c 1
 369 1049 l 1
EndSplineSet
Validated: 3073
EndChar

StartChar: omega
Encoding: 969 969 505
Width: 922
VWidth: 2334
Flags: W
HStem: -25 184<255.784 363.072 559.778 665.548> 1003 20G<96.5 329 593 824>
VStem: 50 184<168.687 922.09> 369 184<162.53 700> 688 184<166.934 337 337 927.605>
CounterMasks: 1 38
LayerCount: 2
Fore
SplineSet
802 1023 m 1
 846 920 872 799 872 702 c 2
 872 337 l 2
 872 88 758 -25 630 -25 c 2
 620 -25 l 2
 559 -25 505 -7 463 26 c 1
 421 -7 365 -25 298 -25 c 2
 288 -25 l 2
 174 -25 50 93 50 336 c 2
 50 702 l 2
 50 796 74 919 119 1023 c 1
 329 1023 l 1
 284 962 234 825 234 702 c 2
 234 336 l 2
 234 244 255 159 293 159 c 2
 298 159 l 2
 345 159 369 177 369 247 c 2
 369 700 l 1
 553 700 l 1
 553 247 l 2
 553 178 587 159 620 159 c 2
 630 159 l 2
 666 159 688 242 688 337 c 2
 688 702 l 2
 688 860 628 975 593 1023 c 1
 802 1023 l 1
EndSplineSet
Validated: 3073
EndChar

StartChar: dieresiscmb
Encoding: 776 776 508
Width: 922
VWidth: 1947
Flags: W
HStem: 1267 234<185.665 358.888 563.582 735.996>
VStem: 159 227<1293.22 1476.83> 537 225<1293.11 1476.83>
LayerCount: 2
Fore
SplineSet
386 1386 m 0
 386 1323 335 1267 273 1267 c 0
 212 1267 159 1320 159 1386 c 0
 159 1456 215 1501 272 1501 c 0
 337 1501 386 1447 386 1386 c 0
762 1386 m 0
 762 1317 707 1267 650 1267 c 0
 590 1267 537 1321 537 1386 c 0
 537 1452 590 1501 650 1501 c 0
 705 1501 762 1456 762 1386 c 0
EndSplineSet
Validated: 3073
EndChar

StartChar: Djecyrillic
Encoding: 1026 1026 512
Width: 922
VWidth: 2334
Flags: W
HStem: 0 21G<270 454 607 728> 795 184<514.607 664.457> 1216 184<70 270 454 742>
VStem: 270 184<0 723.091 930 1216> 678 184<187.225 785.728>
LayerCount: 2
Fore
SplineSet
625 184 m 2
 652 184 678 187 678 336 c 2
 678 687 l 2
 678 774 633 795 594 795 c 2
 585 795 l 2
 534 795 454 743 454 417 c 1
 454 -0 l 1
 270 0 l 1
 270 1216 l 1
 70 1216 l 1
 70 1400 l 1
 742 1400 l 1
 742 1216 l 1
 454 1216 l 1
 454 930 l 1
 485 954 531 979 582 979 c 2
 600 979 l 2
 668 979 862 955 862 687 c 2
 862 336 l 2
 862 192 831 0 625 0 c 2
 607 0 l 1
 607 184 l 1
 625 184 l 2
EndSplineSet
Validated: 3073
EndChar

StartChar: Ljecyrillic
Encoding: 1033 1033 513
Width: 922
VWidth: 1947
Flags: W
HStem: 0 185<564 694.768> 672 185<564 681.343> 1380 20G<312.5 564>
VStem: 36 184<0 184> 380 184<185 672 857 1216> 718 184<210.837 636.332>
DStem2: 36 -0 220 -0 0.0877576 0.996142<16.1474 1234.79>
LayerCount: 2
Fore
SplineSet
564 185 m 1
 686 185 718 223 718 337 c 2
 718 495 l 2
 718 615 675 672 564 672 c 1
 564 185 l 1
902 337 m 2
 902 81 684 0 540 0 c 2
 380 0 l 1
 380 1216 l 1
 361 1216 l 1
 345 1192 324 1146 314 1067 c 2
 220 -0 l 1
 36 -0 l 1
 130 1083 l 2
 170 1371 292 1400 333 1400 c 2
 564 1400 l 1
 564 857 l 1
 796 847 902 702 902 495 c 2
 902 337 l 2
EndSplineSet
Validated: 3073
EndChar

StartChar: Njecyrillic
Encoding: 1034 1034 514
Width: 922
VWidth: 1947
Flags: W
HStem: 0 184<564 688.625> 673 184<225 380 564 681.714> 1380 20G<41 225 380 564>
VStem: 41 183<0 673 857 1400> 380 184<184 673 857 1400> 718 184<217.538 337 337 636.902>
LayerCount: 2
Fore
SplineSet
902 337 m 2
 902 212 881 0 540 0 c 2
 380 0 l 1
 380 673 l 1
 224 673 l 1
 224 -0 l 1
 41 0 l 1
 41 1400 l 1
 225 1400 l 1
 225 857 l 1
 380 857 l 1
 380 1400 l 1
 564 1400 l 1
 564 857 l 1
 797 857 902 702 902 495 c 2
 902 337 l 2
564 184 m 1
 691 184 718 250 718 337 c 2
 718 495 l 2
 718 615 675 673 564 673 c 1
 564 184 l 1
EndSplineSet
Validated: 3073
EndChar

StartChar: Tshecyrillic
Encoding: 1035 1035 515
Width: 922
VWidth: 2334
Flags: W
HStem: 0 21G<270 454 678 862> 795 184<538.092 671.551> 1216 184<70 270 454 742>
VStem: 270 184<0 675.489 931 1216> 678 184<0 784.516>
LayerCount: 2
Fore
SplineSet
454 931 m 1
 516 979 568 979 582 979 c 2
 600 979 l 2
 810 979 862 810 862 687 c 2
 862 0 l 1
 678 -0 l 1
 678 721 l 2
 678 766 642 795 600 795 c 2
 585 795 l 2
 571 795 454 701 454 417 c 2
 454 -0 l 1
 270 0 l 1
 270 1216 l 1
 70 1216 l 1
 70 1400 l 1
 742 1400 l 1
 742 1216 l 1
 454 1216 l 1
 454 931 l 1
EndSplineSet
Validated: 3073
EndChar

StartChar: Dzhecyrillic
Encoding: 1039 1039 516
Width: 922
VWidth: 2334
Flags: W
HStem: -385 21G<369 553> 0 184<274 369 553 648> 1380 20G<90 274 648 832>
VStem: 90 184<184 1400> 369 184<-385 0> 648 184<184 1400>
CounterMasks: 1 1c
LayerCount: 2
Fore
SplineSet
274 184 m 1
 648 184 l 1
 648 1400 l 1
 832 1400 l 1
 832 0 l 1
 553 -0 l 1
 553 -385 l 1
 369 -385 l 1
 369 0 l 1
 90 0 l 1
 90 1400 l 1
 274 1400 l 1
 274 184 l 1
EndSplineSet
Validated: 3073
EndChar

StartChar: djecyrillic
Encoding: 1106 1106 517
Width: 922
VWidth: 2334
Flags: W
HStem: -385 183<402.431 607.48> 0 21G<140 324> 731 184<414.936 620.4> 1061 184<30 140 324 605> 1404 20G<140 324>
VStem: 140 184<0 620.083 848 1061 1245 1424> 648 184<-164.464 710.605>
LayerCount: 2
Fore
SplineSet
324 -0 m 1
 140 0 l 1
 140 1061 l 1
 30 1061 l 1
 30 1245 l 1
 140 1245 l 1
 140 1424 l 1
 324 1424 l 1
 324 1245 l 1
 605 1245 l 1
 605 1061 l 1
 324 1061 l 1
 324 848 l 1
 393 908 479 915 502 915 c 2
 520 915 l 2
 823 915 832 651 832 553 c 2
 832 -28 l 2
 832 -223 710 -385 526 -385 c 2
 475 -385 l 2
 333 -385 268 -300 258 -285 c 1
 402 -171 l 1
 411 -183 432 -202 475 -202 c 2
 526 -202 l 2
 606 -202 648 -114 648 -28 c 2
 648 553 l 2
 648 692 633 731 520 731 c 2
 502 731 l 2
 390 731 324 539 324 463 c 2
 324 -0 l 1
EndSplineSet
Validated: 3073
EndChar

StartChar: dzhecyrillic
Encoding: 1119 1119 519
Width: 922
VWidth: 2334
Flags: W
HStem: -385 21G<369 553> 0 185<275 369 553 649> 1003 20G<91 275 649 833>
VStem: 91 184<185 1023> 369 184<-385 0> 649 184<185 1023>
LayerCount: 2
Fore
SplineSet
275 185 m 1
 649 185 l 1
 649 1023 l 1
 833 1023 l 1
 833 0 l 1
 553 0 l 1
 553 -385 l 1
 369 -385 l 1
 369 0 l 1
 91 0 l 1
 91 1023 l 1
 275 1023 l 1
 275 185 l 1
EndSplineSet
Validated: 3073
EndChar

StartChar: ljecyrillic
Encoding: 1113 1113 520
Width: 922
VWidth: 1947
Flags: W
HStem: 0 184<554 670.722> 469 184<555 665.577> 1003 20G<291 555>
VStem: 37 184<0 184> 371 184<184 469 653 839> 688 184<196.155 447.37>
DStem2: 37 0 221 0 0.0579669 0.998318<10.6659 827.168>
LayerCount: 2
Fore
SplineSet
554 469 m 1
 554 184 l 1
 600 184 l 2
 621 184 688 190 688 291 c 2
 688 337 l 2
 688 448 628 469 600 469 c 2
 554 469 l 1
73 620 m 2
 82 777 116 948 291 1017 c 2
 308 1023 l 1
 555 1023 l 1
 555 653 l 1
 600 653 l 2
 709 653 872 579 872 337 c 2
 872 291 l 2
 872 64 701 -0 605 0 c 2
 371 0 l 1
 371 839 l 1
 345 839 l 1
 288 809 265 744 257 610 c 2
 221 0 l 1
 160 0 98 0 37 0 c 1
 73 620 l 2
EndSplineSet
Validated: 3073
EndChar

StartChar: njecyrillic
Encoding: 1114 1114 521
Width: 922
VWidth: 1947
Flags: W
HStem: 0 184<554 672.261> 469 184<234 370 554 665.577> 1003 20G<50 234 370 554>
VStem: 50 184<0 469 653 1023> 370 184<184 469 653 1023> 688 184<195.867 447.37>
LayerCount: 2
Fore
SplineSet
554 184 m 1
 600 184 l 2
 620 184 688 193 688 291 c 2
 688 337 l 2
 688 448 625 469 600 469 c 2
 554 469 l 1
 554 184 l 1
234 -0 m 1
 50 0 l 1
 50 1023 l 1
 234 1023 l 1
 234 653 l 1
 370 653 l 1
 370 1023 l 1
 554 1023 l 1
 554 653 l 1
 600 653 l 2
 709 653 872 579 872 337 c 2
 872 291 l 2
 872 85 727 0 600 0 c 2
 370 0 l 1
 370 469 l 1
 234 469 l 1
 234 -0 l 1
EndSplineSet
Validated: 3073
EndChar

StartChar: apostrophereverse
Encoding: 8219 8219 523
Width: 922
VWidth: 1708
Flags: W
HStem: 936 74<563.724 613.875>
VStem: 334 174<1071.66 1334>
LayerCount: 2
Fore
SplineSet
545 1197 m 0
 519 1173 508 1150 508 1129 c 0
 508 1072 581 1028 630 1010 c 1
 610 936 l 1
 348 964 334 1168 334 1299 c 0
 334 1369 388 1429 464 1429 c 0
 542 1429 593 1367 593 1299 c 0
 593 1259 575 1221 545 1197 c 0
EndSplineSet
EndChar

StartChar: arrowleft
Encoding: 8592 8592 526
Width: 922
VWidth: 1708
Flags: W
HStem: 520 160<287 872>
DStem2: 50 673 287 680 0.718145 0.695893<175.072 494.329> 287 520 50 527 0.717948 -0.696097<0 319.303>
LayerCount: 2
Fore
SplineSet
872 680 m 1
 872 520 l 1
 287 520 l 1
 517 297 l 1
 405 183 l 1
 50 527 l 1
 50 673 l 1
 405 1017 l 1
 517 903 l 1
 287 680 l 1
 872 680 l 1
EndSplineSet
Validated: 3073
EndChar

StartChar: arrowright
Encoding: 8594 8594 527
Width: 922
VWidth: 1708
Flags: W
HStem: 520 160<50 635>
DStem2: 517 1017 405 903 0.717948 -0.696097<0 319.303> 405 297 517 183 0.718145 0.695893<1.10048 320.358>
LayerCount: 2
Fore
SplineSet
50 520 m 1
 50 680 l 1
 635 680 l 1
 405 903 l 1
 517 1017 l 1
 872 673 l 1
 872 527 l 1
 517 183 l 1
 405 297 l 1
 635 520 l 1
 50 520 l 1
EndSplineSet
Validated: 3073
EndChar

StartChar: lthorizform
Encoding: 9472 9472 528
Width: 922
Flags: W
HStem: 443 160<0 922>
LayerCount: 2
Fore
SplineSet
0 443 m 1
 -0 603 l 1
 922 603 l 1
 922 443 l 1
 0 443 l 1
EndSplineSet
Validated: 3073
EndChar

StartChar: ltvertform
Encoding: 9474 9474 529
Width: 922
Flags: W
VStem: 381 160<-615 1775>
LayerCount: 2
Fore
SplineSet
541 -615 m 1
 381 -615 l 1
 381 1775 l 1
 541 1775 l 1
 541 -615 l 1
EndSplineSet
Validated: 3073
EndChar

StartChar: rightanglenw
Encoding: 9484 9484 530
Width: 922
Flags: W
HStem: 443 160<541 922>
VStem: 381 160<-615 443>
LayerCount: 2
Fore
SplineSet
381 -615 m 1
 381 603 l 1
 922 603 l 1
 922 443 l 1
 541 443 l 1
 541 -615 l 1
 381 -615 l 1
EndSplineSet
Validated: 3073
EndChar

StartChar: rightanglene
Encoding: 9488 9488 531
Width: 922
Flags: W
HStem: 443 160<0 381>
VStem: 381 160<-615 443>
LayerCount: 2
Fore
SplineSet
381 443 m 1
 0 443 l 1
 -0 603 l 1
 541 603 l 1
 541 -615 l 1
 381 -615 l 1
 381 443 l 1
EndSplineSet
Validated: 3073
EndChar

StartChar: rightanglesw
Encoding: 9492 9492 532
Width: 922
Flags: W
HStem: 443 160<541 922>
VStem: 381 160<603 1775>
LayerCount: 2
Fore
SplineSet
541 603 m 1
 922 603 l 1
 922 443 l 1
 381 443 l 1
 381 1775 l 1
 541 1775 l 1
 541 603 l 1
EndSplineSet
Validated: 3073
EndChar

StartChar: rightanglese
Encoding: 9496 9496 533
Width: 922
Flags: W
HStem: 443 160<0 381>
VStem: 381 160<603 1775>
LayerCount: 2
Fore
SplineSet
541 1775 m 1
 541 443 l 1
 0 443 l 1
 -0 603 l 1
 381 603 l 1
 381 1775 l 1
 541 1775 l 1
EndSplineSet
Validated: 3073
EndChar

StartChar: ltvertrightform
Encoding: 9500 9500 534
Width: 922
Flags: W
HStem: 443 160<541 922>
VStem: 381 160<-615 443 603 1775>
LayerCount: 2
Fore
SplineSet
541 -615 m 1
 381 -615 l 1
 381 1775 l 1
 541 1775 l 1
 541 603 l 1
 922 603 l 1
 922 443 l 1
 541 443 l 1
 541 -615 l 1
EndSplineSet
Validated: 3073
EndChar

StartChar: ltvertleftform
Encoding: 9508 9508 535
Width: 922
Flags: W
HStem: 443 160<0 381>
VStem: 381 160<-615 443 603 1775>
LayerCount: 2
Fore
SplineSet
0 443 m 1
 -0 603 l 1
 381 603 l 1
 381 1775 l 1
 541 1775 l 1
 541 -615 l 1
 381 -615 l 1
 381 443 l 1
 0 443 l 1
EndSplineSet
Validated: 3073
EndChar

StartChar: ltdnhorizform
Encoding: 9516 9516 536
Width: 922
Flags: W
HStem: 443 160<0 381 541 922>
VStem: 381 160<-615 443>
LayerCount: 2
Fore
SplineSet
0 443 m 1
 -0 603 l 1
 922 603 l 1
 922 443 l 1
 541 443 l 1
 541 -615 l 1
 381 -615 l 1
 381 443 l 1
 0 443 l 1
EndSplineSet
Validated: 3073
EndChar

StartChar: ltuphorizform
Encoding: 9524 9524 537
Width: 922
Flags: W
HStem: 443 160<0 381 541 922>
VStem: 381 160<603 1775>
LayerCount: 2
Fore
SplineSet
0 443 m 1
 -0 603 l 1
 381 603 l 1
 381 1775 l 1
 541 1775 l 1
 541 603 l 1
 922 603 l 1
 922 443 l 1
 0 443 l 1
EndSplineSet
Validated: 3073
EndChar

StartChar: ltverthorizform
Encoding: 9532 9532 538
Width: 922
Flags: W
HStem: 443 160<0 381 541 922>
VStem: 381 160<-615 443 603 1775>
LayerCount: 2
Fore
SplineSet
0 443 m 1
 -0 603 l 1
 381 603 l 1
 381 1775 l 1
 541 1775 l 1
 541 603 l 1
 922 603 l 1
 922 443 l 1
 541 443 l 1
 541 -615 l 1
 381 -615 l 1
 381 443 l 1
 0 443 l 1
EndSplineSet
Validated: 3073
EndChar

StartChar: horizdblbar
Encoding: 9552 9552 539
Width: 922
Flags: W
HStem: 283 160<0 922> 603 160<0 922>
LayerCount: 2
Fore
SplineSet
0 603 m 1
 -0 763 l 1
 922 763 l 1
 922 603 l 1
 0 603 l 1
0 283 m 1
 -0 443 l 1
 922 443 l 1
 922 283 l 1
 0 283 l 1
EndSplineSet
Validated: 3073
EndChar

StartChar: vertdblbar
Encoding: 9553 9553 540
Width: 922
Flags: W
VStem: 221 160<-615 1775> 541 160<-615 1775>
LayerCount: 2
Fore
SplineSet
701 -615 m 1
 541 -615 l 1
 541 1775 l 1
 701 1775 l 1
 701 -615 l 1
381 -615 m 1
 221 -615 l 1
 221 1775 l 1
 381 1775 l 1
 381 -615 l 1
EndSplineSet
Validated: 3073
EndChar

StartChar: dnrtdblform
Encoding: 9554 9554 541
Width: 922
Flags: W
HStem: 283 160<541 922> 603 160<541 922>
VStem: 381 160<-615 283 443 603>
LayerCount: 2
Fore
SplineSet
541 283 m 1
 541 -615 l 1
 381 -615 l 1
 381 763 l 1
 922 763 l 1
 922 603 l 1
 541 603 l 1
 541 443 l 1
 922 443 l 1
 922 283 l 1
 541 283 l 1
EndSplineSet
Validated: 3073
EndChar

StartChar: dndblrtform
Encoding: 9555 9555 542
Width: 922
Flags: W
HStem: 443 160<381 541 701 922>
VStem: 221 160<-615 443> 541 160<-615 443>
LayerCount: 2
Fore
SplineSet
701 -615 m 1
 541 -615 l 1
 541 443 l 1
 381 443 l 1
 381 -615 l 1
 221 -615 l 1
 221 603 l 1
 922 603 l 1
 922 443 l 1
 701 443 l 1
 701 -615 l 1
EndSplineSet
Validated: 3073
EndChar

StartChar: dbldnrtform
Encoding: 9556 9556 543
Width: 922
Flags: W
HStem: 283 160<701 922> 603 160<381 922>
VStem: 221 160<-615 603> 541 160<-615 283>
LayerCount: 2
Fore
SplineSet
381 603 m 1
 381 -615 l 1
 221 -615 l 1
 221 763 l 1
 922 763 l 1
 922 603 l 1
 381 603 l 1
701 283 m 1
 701 -615 l 1
 541 -615 l 1
 541 443 l 1
 922 443 l 1
 922 283 l 1
 701 283 l 1
EndSplineSet
Validated: 3073
EndChar

StartChar: dnleftdblform
Encoding: 9557 9557 544
Width: 922
Flags: W
HStem: 283 160<0 381> 603 160<0 381>
VStem: 381 160<-615 283 443 603>
LayerCount: 2
Fore
SplineSet
0 763 m 1
 541 763 l 1
 541 -615 l 1
 381 -615 l 1
 381 283 l 1
 0 283 l 1
 -0 443 l 1
 381 443 l 1
 381 603 l 1
 -0 603 l 1
 0 763 l 1
EndSplineSet
Validated: 3073
EndChar

StartChar: dndblleftform
Encoding: 9558 9558 545
Width: 922
Flags: W
HStem: 443 160<0 221 381 541>
VStem: 221 160<-615 443> 541 160<-615 443>
LayerCount: 2
Fore
SplineSet
381 -615 m 1
 221 -615 l 1
 221 443 l 1
 0 443 l 1
 -0 603 l 1
 701 603 l 1
 701 -615 l 1
 541 -615 l 1
 541 443 l 1
 381 443 l 1
 381 -615 l 1
EndSplineSet
Validated: 3073
EndChar

StartChar: dbldnleftform
Encoding: 9559 9559 546
Width: 922
Flags: W
HStem: 283 160<0 221> 603 160<0 541>
VStem: 221 160<-615 283> 541 160<-615 603>
LayerCount: 2
Fore
SplineSet
0 763 m 1
 701 763 l 1
 701 -615 l 1
 541 -615 l 1
 541 603 l 1
 -0 603 l 1
 0 763 l 1
0 443 m 1
 381 443 l 1
 381 -615 l 1
 221 -615 l 1
 221 283 l 1
 -0 283 l 1
 0 443 l 1
EndSplineSet
Validated: 3073
EndChar

StartChar: uprtdblform
Encoding: 9560 9560 547
Width: 922
Flags: W
HStem: 283 160<541 922> 603 160<541 922>
VStem: 381 160<443 603 763 1775>
LayerCount: 2
Fore
SplineSet
922 283 m 1
 381 283 l 1
 381 1775 l 1
 541 1775 l 1
 541 763 l 1
 922 763 l 1
 922 603 l 1
 541 603 l 1
 541 443 l 1
 922 443 l 1
 922 283 l 1
EndSplineSet
Validated: 3073
EndChar

StartChar: updblrtform
Encoding: 9561 9561 548
Width: 922
Flags: W
HStem: 443 160<381 541 701 922>
VStem: 221 160<603 1775> 541 160<603 1775>
LayerCount: 2
Fore
SplineSet
701 603 m 1
 922 603 l 1
 922 443 l 1
 221 443 l 1
 221 1775 l 1
 381 1775 l 1
 381 603 l 1
 541 603 l 1
 541 1775 l 1
 701 1775 l 1
 701 603 l 1
EndSplineSet
Validated: 3073
EndChar

StartChar: dbluprtform
Encoding: 9562 9562 549
Width: 922
Flags: W
HStem: 283 160<381 922> 603 160<701 922>
VStem: 221 160<443 1775> 541 160<763 1775>
LayerCount: 2
Fore
SplineSet
922 603 m 1
 541 603 l 1
 541 1775 l 1
 701 1775 l 1
 701 763 l 1
 922 763 l 1
 922 603 l 1
922 283 m 1
 221 283 l 1
 221 1775 l 1
 381 1775 l 1
 381 443 l 1
 922 443 l 1
 922 283 l 1
EndSplineSet
Validated: 3073
EndChar

StartChar: upleftdblform
Encoding: 9563 9563 550
Width: 922
Flags: W
HStem: 283 160<0 381> 603 160<0 381>
VStem: 381 160<443 603 763 1775>
LayerCount: 2
Fore
SplineSet
0 603 m 1
 -0 763 l 1
 381 763 l 1
 381 1775 l 1
 541 1775 l 1
 541 283 l 1
 -0 283 l 1
 0 443 l 1
 381 443 l 1
 381 603 l 1
 0 603 l 1
EndSplineSet
Validated: 3073
EndChar

StartChar: updblleftform
Encoding: 9564 9564 551
Width: 922
Flags: W
HStem: 443 160<0 221 381 541>
VStem: 221 160<603 1775> 541 160<603 1775>
LayerCount: 2
Fore
SplineSet
701 1775 m 1
 701 443 l 1
 0 443 l 1
 -0 603 l 1
 221 603 l 1
 221 1775 l 1
 381 1775 l 1
 381 603 l 1
 541 603 l 1
 541 1775 l 1
 701 1775 l 1
EndSplineSet
Validated: 3073
EndChar

StartChar: dblupleftform
Encoding: 9565 9565 552
Width: 922
Flags: W
HStem: 283 160<0 541> 603 160<0 221>
VStem: 221 160<763 1775> 541 160<443 1775>
LayerCount: 2
Fore
SplineSet
221 763 m 1
 221 1775 l 1
 381 1775 l 1
 381 603 l 1
 -0 603 l 1
 0 763 l 1
 221 763 l 1
541 443 m 1
 541 1775 l 1
 701 1775 l 1
 701 283 l 1
 -0 283 l 1
 0 443 l 1
 541 443 l 1
EndSplineSet
Validated: 3073
EndChar

StartChar: vertrtdblform
Encoding: 9566 9566 553
Width: 922
Flags: W
HStem: 283 160<541 922> 603 160<541 922>
VStem: 381 160<-615 283 443 603 763 1775>
LayerCount: 2
Fore
SplineSet
541 -615 m 1
 381 -615 l 1
 381 1775 l 5
 541 1775 l 5
 541 763 l 1
 922 763 l 1
 922 603 l 1
 541 603 l 1
 541 443 l 1
 922 443 l 1
 922 283 l 1
 541 283 l 1
 541 -615 l 1
EndSplineSet
Validated: 3073
EndChar

StartChar: vertdblrtform
Encoding: 9567 9567 554
Width: 922
Flags: W
HStem: 443 160<701 922>
VStem: 221 160<-615 1775> 541 160<-615 443 603 1775>
LayerCount: 2
Fore
SplineSet
381 1775 m 5
 381 -615 l 5
 221 -615 l 5
 221 1775 l 5
 381 1775 l 5
541 1775 m 5
 701 1775 l 5
 701 603 l 5
 922 603 l 5
 922 443 l 5
 701 443 l 5
 701 -615 l 5
 541 -615 l 5
 541 1775 l 5
EndSplineSet
Validated: 3073
EndChar

StartChar: dblvertrtform
Encoding: 9568 9568 555
Width: 922
Flags: W
HStem: 283 160<701 922> 603 160<701 922>
VStem: 221 160<-615 1775> 541 160<-615 283 763 1775> 541 381<283 443 603 763>
LayerCount: 2
Fore
SplineSet
381 -615 m 1xe0
 221 -615 l 1
 221 1775 l 5
 381 1775 l 5
 381 -615 l 1xe0
922 603 m 1xe8
 541 603 l 1xe8
 541 1775 l 5
 701 1775 l 5
 701 763 l 1xf0
 922 763 l 1
 922 603 l 1xe8
701 283 m 1xf0
 701 -615 l 1
 541 -615 l 1xf0
 541 443 l 1
 922 443 l 1
 922 283 l 1xe8
 701 283 l 1xf0
EndSplineSet
Validated: 3073
EndChar

StartChar: vertleftdblform
Encoding: 9569 9569 556
Width: 922
Flags: W
HStem: 283 160<0 381> 603 160<0 381>
VStem: 381 160<-615 283 443 603 763 1775>
LayerCount: 2
Fore
SplineSet
541 -615 m 1
 381 -615 l 1
 381 283 l 1
 0 283 l 1
 -0 443 l 1
 381 443 l 1
 381 603 l 1
 0 603 l 1
 -0 763 l 1
 381 763 l 1
 381 1775 l 1
 541 1775 l 1
 541 -615 l 1
EndSplineSet
Validated: 3073
EndChar

StartChar: vertdblleftform
Encoding: 9570 9570 557
Width: 922
Flags: W
HStem: 443 160<0 221>
VStem: 221 160<-615 443 603 1775> 541 160<-615 1775>
LayerCount: 2
Fore
SplineSet
0 443 m 1
 -0 603 l 1
 221 603 l 1
 221 1775 l 1
 381 1775 l 1
 381 -615 l 1
 221 -615 l 1
 221 443 l 1
 0 443 l 1
701 -615 m 1
 541 -615 l 1
 541 1775 l 1
 701 1775 l 1
 701 -615 l 1
EndSplineSet
Validated: 3073
EndChar

StartChar: dblvertleftform
Encoding: 9571 9571 558
Width: 922
Flags: W
HStem: 283 160<0 221> 603 160<0 221>
VStem: -0 381<283 443 603 763> 221 160<-615 283 763 1775> 541 160<-615 1775>
LayerCount: 2
Fore
SplineSet
701 -615 m 1xc8
 541 -615 l 1
 541 1775 l 1
 701 1775 l 1
 701 -615 l 1xc8
221 763 m 1xd8
 221 1775 l 1
 381 1775 l 1xd8
 381 603 l 1
 -0 603 l 1
 0 763 l 1xe8
 221 763 l 1xd8
0 443 m 1xe8
 381 443 l 1xe8
 381 -615 l 1
 221 -615 l 1
 221 283 l 1xd8
 -0 283 l 1
 0 443 l 1xe8
EndSplineSet
Validated: 3073
EndChar

StartChar: dnhorizdblform
Encoding: 9572 9572 559
Width: 922
Flags: W
HStem: 283 160<0 381 541 922> 603 160<0 922>
VStem: 381 160<-615 283>
LayerCount: 2
Fore
SplineSet
541 -615 m 1
 381 -615 l 1
 381 283 l 1
 0 283 l 1
 -0 443 l 1
 922 443 l 1
 922 283 l 1
 541 283 l 1
 541 -615 l 1
0 603 m 1
 -0 763 l 1
 922 763 l 1
 922 603 l 1
 0 603 l 1
EndSplineSet
Validated: 3073
EndChar

StartChar: dndblhorizform
Encoding: 9573 9573 560
Width: 922
Flags: W
HStem: 443 160<0 221 381 541 701 922>
VStem: 221 160<-615 443> 541 160<-615 443>
LayerCount: 2
Fore
SplineSet
0 443 m 1
 -0 603 l 1
 922 603 l 1
 922 443 l 1
 701 443 l 1
 701 -615 l 1
 541 -615 l 1
 541 443 l 1
 381 443 l 1
 381 -615 l 1
 221 -615 l 1
 221 443 l 1
 0 443 l 1
EndSplineSet
Validated: 3073
EndChar

StartChar: dbldnhorizform
Encoding: 9574 9574 561
Width: 922
Flags: W
HStem: 283 160<0 221 701 922> 603 160<0 922>
VStem: 221 160<-615 283> 541 160<-615 283>
LayerCount: 2
Fore
SplineSet
0 603 m 1
 -0 763 l 1
 922 763 l 1
 922 603 l 1
 0 603 l 1
0 443 m 1
 381 443 l 1
 381 -615 l 1
 221 -615 l 1
 221 283 l 1
 -0 283 l 1
 0 443 l 1
701 283 m 1
 701 -615 l 1
 541 -615 l 1
 541 443 l 1
 922 443 l 1
 922 283 l 1
 701 283 l 1
EndSplineSet
Validated: 3073
EndChar

StartChar: uphorizdblform
Encoding: 9575 9575 562
Width: 922
Flags: W
HStem: 283 160<0 922> 603 160<0 381 541 922>
VStem: 381 160<763 1775>
LayerCount: 2
Fore
SplineSet
0 603 m 1
 -0 763 l 1
 381 763 l 1
 381 1775 l 1
 541 1775 l 1
 541 763 l 1
 922 763 l 1
 922 603 l 1
 0 603 l 1
0 283 m 1
 -0 443 l 1
 922 443 l 1
 922 283 l 1
 0 283 l 1
EndSplineSet
Validated: 3073
EndChar

StartChar: updblhorizform
Encoding: 9576 9576 563
Width: 922
Flags: W
HStem: 443 160<0 221 381 541 701 922>
VStem: 221 160<603 1775> 541 160<603 1775>
LayerCount: 2
Fore
SplineSet
0 443 m 1
 -0 603 l 1
 221 603 l 1
 221 1775 l 1
 381 1775 l 1
 381 603 l 1
 541 603 l 1
 541 1775 l 1
 701 1775 l 1
 701 603 l 1
 922 603 l 1
 922 443 l 1
 0 443 l 1
EndSplineSet
Validated: 3073
EndChar

StartChar: dbluphorizform
Encoding: 9577 9577 564
Width: 922
Flags: W
HStem: 283 160<0 922> 603 160<0 221 701 922>
VStem: 221 160<763 1775> 541 160<763 1775>
LayerCount: 2
Fore
SplineSet
221 763 m 1
 221 1775 l 1
 381 1775 l 1
 381 603 l 1
 -0 603 l 1
 0 763 l 1
 221 763 l 1
922 603 m 1
 541 603 l 1
 541 1775 l 1
 701 1775 l 1
 701 763 l 1
 922 763 l 1
 922 603 l 1
0 283 m 1
 -0 443 l 1
 922 443 l 1
 922 283 l 1
 0 283 l 1
EndSplineSet
Validated: 3073
EndChar

StartChar: verthorizdblform
Encoding: 9578 9578 565
Width: 922
Flags: W
HStem: 283 160<0 381 541 922> 603 160<0 381 541 922>
VStem: 381 160<-615 283 763 1775>
LayerCount: 2
Fore
SplineSet
0 603 m 1
 -0 763 l 1
 381 763 l 1
 381 1775 l 1
 541 1775 l 1
 541 763 l 1
 922 763 l 1
 922 603 l 1
 0 603 l 1
-0 443 m 1
 922 443 l 1
 922 283 l 1
 541 283 l 1
 541 -615 l 1
 381 -615 l 1
 381 283 l 1
 0 283 l 1
 -0 443 l 1
EndSplineSet
Validated: 3073
EndChar

StartChar: vertdblhorizform
Encoding: 9579 9579 566
Width: 922
Flags: W
HStem: 443 160<0 221 701 922>
VStem: 221 160<-615 443 603 1775> 541 160<-615 443 603 1775>
LayerCount: 2
Fore
SplineSet
541 1775 m 1
 701 1775 l 1
 701 603 l 1
 922 603 l 1
 922 443 l 1
 701 443 l 1
 701 -615 l 1
 541 -615 l 1
 541 1775 l 1
381 -615 m 1
 221 -615 l 1
 221 443 l 1
 0 443 l 1
 -0 603 l 1
 221 603 l 1
 221 1775 l 1
 381 1775 l 1
 381 -615 l 1
EndSplineSet
Validated: 3073
EndChar

StartChar: dblverthorizform
Encoding: 9580 9580 567
Width: 922
Flags: W
HStem: 283 160<0 221 701 922> 603 160<0 221 701 922>
VStem: -0 381<283 443 603 763> 221 160<-615 283 763 1775> 541 160<-615 283 763 1775> 541 381<283 443 603 763>
LayerCount: 2
Fore
SplineSet
221 763 m 1xd0
 221 1775 l 1
 381 1775 l 1xd0
 381 603 l 1
 -0 603 l 1
 0 763 l 1xe0
 221 763 l 1xd0
922 603 m 1xc4
 541 603 l 1xc4
 541 1775 l 1
 701 1775 l 1
 701 763 l 1xc8
 922 763 l 1
 922 603 l 1xc4
0 443 m 1xe0
 381 443 l 1xe0
 381 -615 l 1
 221 -615 l 1
 221 283 l 1xd0
 -0 283 l 1
 0 443 l 1xe0
701 283 m 1xc8
 701 -615 l 1
 541 -615 l 1xc8
 541 443 l 1
 922 443 l 1
 922 283 l 1xc4
 701 283 l 1xc8
EndSplineSet
Validated: 3073
EndChar

StartChar: upblock
Encoding: 9600 9600 568
Width: 922
Flags: W
VStem: -0 922<523 1775>
LayerCount: 2
Fore
SplineSet
922 523 m 1
 -0 523 l 1
 0 1775 l 1
 922 1775 l 1
 922 523 l 1
EndSplineSet
Validated: 3073
EndChar

StartChar: dnblock
Encoding: 9604 9604 569
Width: 922
Flags: W
HStem: -615 1138<0 922>
VStem: -0 922<-615 523>
LayerCount: 2
Fore
SplineSet
922 -615 m 1
 -0 -615 l 1
 -0 523 l 1
 922 523 l 1
 922 -615 l 1
EndSplineSet
Validated: 3073
EndChar

StartChar: block
Encoding: 9608 9608 570
Width: 922
Flags: W
VStem: -0 922<-615 1775>
LayerCount: 2
Fore
SplineSet
-0 -615 m 1
 0 1775 l 1
 922 1775 l 1
 922 -615 l 1
 -0 -615 l 1
EndSplineSet
Validated: 3073
EndChar

StartChar: lfblock
Encoding: 9612 9612 571
Width: 922
Flags: W
VStem: -0 461<-615 1775>
LayerCount: 2
Fore
SplineSet
-0 -615 m 1
 0 1775 l 1
 461 1775 l 1
 461 -615 l 1
 -0 -615 l 1
EndSplineSet
Validated: 3073
EndChar

StartChar: rtblock
Encoding: 9616 9616 572
Width: 922
Flags: W
VStem: 461 461<-615 1775>
LayerCount: 2
Fore
SplineSet
461 -615 m 1
 461 1775 l 1
 922 1775 l 1
 922 -615 l 1
 461 -615 l 1
EndSplineSet
Validated: 3073
EndChar

StartChar: shadelight
Encoding: 9617 9617 573
Width: 922
Flags: W
HStem: -514 100<153 230 461 540 769 846> -315 100<0 77 307 385 616 693> -115 99<153 230 461 540 769 846> 83 100<0 77 307 385 616 693> 283 99<153 230 461 540 769 846> 482 99<0 77 307 385 616 693> 681 100<153 230 461 540 769 846> 881 99<0 77 307 385 616 693> 1080 99<153 230 461 540 769 846> 1278 100<0 77 307 385 616 693> 1477 100<153 230 461 540 769 846> 1677 98<0 77 307 385 616 693>
VStem: 0 77<-315 -215 83 183 482 581 881 980 1278 1378 1677 1775> 153 77<-514 -414 -115 -16 283 382 681 781 1080 1179 1477 1577> 307 78<-315 -215 83 183 482 581 881 980 1278 1378 1677 1775> 461 79<-514 -414 -115 -16 283 382 681 781 1080 1179 1477 1577> 616 77<-315 -215 83 183 482 581 881 980 1278 1378 1677 1775> 769 77<-514 -414 -115 -16 283 382 681 781 1080 1179 1477 1577>
LayerCount: 2
Fore
SplineSet
0 1378 m 1
 77 1378 l 1
 77 1278 l 1
 0 1278 l 1
 0 1378 l 1
307 1378 m 1
 385 1378 l 1
 385 1278 l 1
 307 1278 l 1
 307 1378 l 1
616 1378 m 1
 693 1378 l 1
 693 1278 l 1
 616 1278 l 1
 616 1378 l 1
153 1179 m 1
 230 1179 l 1
 230 1080 l 1
 153 1080 l 1
 153 1179 l 1
461 1179 m 1
 540 1179 l 1
 540 1080 l 1
 461 1080 l 1
 461 1179 l 1
769 1179 m 1
 846 1179 l 1
 846 1080 l 1
 769 1080 l 1
 769 1179 l 1
616 980 m 1
 693 980 l 1
 693 881 l 1
 616 881 l 1
 616 980 l 1
307 980 m 1
 385 980 l 1
 385 881 l 1
 307 881 l 1
 307 980 l 1
0 980 m 1
 77 980 l 1
 77 881 l 1
 0 881 l 1
 0 980 l 1
769 781 m 1
 846 781 l 1
 846 681 l 1
 769 681 l 1
 769 781 l 1
461 781 m 1
 540 781 l 1
 540 681 l 1
 461 681 l 1
 461 781 l 1
153 781 m 1
 230 781 l 1
 230 681 l 1
 153 681 l 1
 153 781 l 1
0 581 m 1
 77 581 l 1
 77 482 l 1
 0 482 l 1
 0 581 l 1
307 581 m 1
 385 581 l 1
 385 482 l 1
 307 482 l 1
 307 581 l 1
616 581 m 1
 693 581 l 1
 693 482 l 1
 616 482 l 1
 616 581 l 1
769 382 m 1
 846 382 l 1
 846 283 l 1
 769 283 l 1
 769 382 l 1
461 382 m 1
 540 382 l 1
 540 283 l 1
 461 283 l 1
 461 382 l 1
153 382 m 1
 230 382 l 1
 230 283 l 1
 153 283 l 1
 153 382 l 1
0 183 m 1
 77 183 l 1
 77 83 l 1
 0 83 l 1
 0 183 l 1
307 183 m 1
 385 183 l 1
 385 83 l 1
 307 83 l 1
 307 183 l 1
616 183 m 1
 693 183 l 1
 693 83 l 1
 616 83 l 1
 616 183 l 1
153 -16 m 1
 230 -16 l 1
 230 -115 l 1
 153 -115 l 1
 153 -16 l 1
461 -16 m 1
 540 -16 l 1
 540 -115 l 1
 461 -115 l 1
 461 -16 l 1
769 -16 m 1
 846 -16 l 1
 846 -115 l 1
 769 -115 l 1
 769 -16 l 1
616 -215 m 1
 693 -215 l 1
 693 -315 l 1
 616 -315 l 1
 616 -215 l 1
307 -215 m 1
 385 -215 l 1
 385 -315 l 1
 307 -315 l 1
 307 -215 l 1
0 -215 m 1
 77 -215 l 1
 77 -315 l 1
 0 -315 l 1
 0 -215 l 1
153 -414 m 1
 230 -414 l 1
 230 -514 l 1
 153 -514 l 1
 153 -414 l 1
461 -414 m 1
 540 -414 l 1
 540 -514 l 1
 461 -514 l 1
 461 -414 l 1
769 -414 m 1
 846 -414 l 1
 846 -514 l 1
 769 -514 l 1
 769 -414 l 1
153 1577 m 1
 230 1577 l 1
 230 1477 l 1
 153 1477 l 1
 153 1577 l 1
461 1577 m 1
 540 1577 l 1
 540 1477 l 1
 461 1477 l 1
 461 1577 l 1
769 1577 m 1
 846 1577 l 1
 846 1477 l 1
 769 1477 l 1
 769 1577 l 1
0 1775 m 1
 77 1775 l 1
 77 1677 l 1
 0 1677 l 1
 0 1775 l 1
307 1775 m 1
 385 1775 l 1
 385 1677 l 1
 307 1677 l 1
 307 1775 l 1
616 1775 m 1
 693 1775 l 1
 693 1677 l 1
 616 1677 l 1
 616 1775 l 1
EndSplineSet
EndChar

StartChar: shademedium
Encoding: 9618 9618 574
Width: 922
Flags: W
HStem: -514 100<0 77 153 230 307 384 461 539 616 692 769 846> -315 100<77 153 230 307 384 461 539 616 692 769 846 922> -115 99<0 77 153 230 307 384 461 539 616 692 769 846> 83 100<77 153 230 307 384 461 539 616 692 769 846 922> 283 99<0 77 153 230 307 384 461 539 616 692 769 846> 482 99<77 153 230 307 384 461 539 616 692 769 846 922> 681 100<0 77 153 230 307 384 461 539 616 692 769 846> 881 99<77 153 230 307 384 461 539 616 692 769 846 922> 1080 99<0 77 153 230 307 384 461 539 616 692 769 846> 1278 100<77 153 230 307 384 461 539 616 692 769 846 922> 1477 100<0 77 153 230 307 384 461 539 616 692 769 846> 1677 98<77 153 230 307 384 461 539 616 692 769 846 922>
VStem: 0 77<-514 -414 -115 -16 283 382 681 781 1080 1179 1477 1577> 77 76<-315 -215 83 183 482 581 881 980 1278 1378 1677 1775> 153 77<-514 -414 -115 -16 283 382 681 781 1080 1179 1477 1577> 230 77<-315 -215 83 183 482 581 881 980 1278 1378 1677 1775> 307 77<-514 -414 -115 -16 283 382 681 781 1080 1179 1477 1577> 384 77<-315 -215 83 183 482 581 881 980 1278 1378 1677 1775> 461 78<-514 -414 -115 -16 283 382 681 781 1080 1179 1477 1577> 539 77<-315 -215 83 183 482 581 881 980 1278 1378 1677 1775> 616 76<-514 -414 -115 -16 283 382 681 781 1080 1179 1477 1577> 692 77<-315 -215 83 183 482 581 881 980 1278 1378 1677 1775> 769 77<-514 -414 -115 -16 283 382 681 781 1080 1179 1477 1577> 846 76<-315 -215 83 183 482 581 881 980 1278 1378 1677 1775>
LayerCount: 2
Fore
SplineSet
77 1378 m 1
 153 1378 l 1
 153 1278 l 1
 77 1278 l 1
 77 1378 l 1
230 1378 m 1
 307 1378 l 1
 307 1278 l 1
 230 1278 l 1
 230 1378 l 1
384 1378 m 1
 461 1378 l 1
 461 1278 l 1
 384 1278 l 1
 384 1378 l 1
539 1378 m 1
 616 1378 l 1
 616 1278 l 1
 539 1278 l 1
 539 1378 l 1
692 1378 m 1
 769 1378 l 1
 769 1278 l 1
 692 1278 l 1
 692 1378 l 1
846 1378 m 1
 922 1378 l 1
 922 1278 l 1
 846 1278 l 1
 846 1378 l 1
0 1179 m 1
 77 1179 l 1
 77 1080 l 1
 0 1080 l 1
 0 1179 l 1
153 1179 m 1
 230 1179 l 1
 230 1080 l 1
 153 1080 l 1
 153 1179 l 1
307 1179 m 1
 384 1179 l 1
 384 1080 l 1
 307 1080 l 1
 307 1179 l 1
461 1179 m 1
 539 1179 l 1
 539 1080 l 1
 461 1080 l 1
 461 1179 l 1
616 1179 m 1
 692 1179 l 1
 692 1080 l 1
 616 1080 l 1
 616 1179 l 1
769 1179 m 1
 846 1179 l 1
 846 1080 l 1
 769 1080 l 1
 769 1179 l 1
77 980 m 1
 153 980 l 1
 153 881 l 1
 77 881 l 1
 77 980 l 1
230 980 m 1
 307 980 l 1
 307 881 l 1
 230 881 l 1
 230 980 l 1
384 980 m 1
 461 980 l 1
 461 881 l 1
 384 881 l 1
 384 980 l 1
539 980 m 1
 616 980 l 1
 616 881 l 1
 539 881 l 1
 539 980 l 1
692 980 m 1
 769 980 l 1
 769 881 l 1
 692 881 l 1
 692 980 l 1
846 980 m 1
 922 980 l 1
 922 881 l 1
 846 881 l 1
 846 980 l 1
0 781 m 1
 77 781 l 1
 77 681 l 1
 0 681 l 1
 0 781 l 1
153 781 m 1
 230 781 l 1
 230 681 l 1
 153 681 l 1
 153 781 l 1
307 781 m 1
 384 781 l 1
 384 681 l 1
 307 681 l 1
 307 781 l 1
461 781 m 1
 539 781 l 1
 539 681 l 1
 461 681 l 1
 461 781 l 1
616 781 m 1
 692 781 l 1
 692 681 l 1
 616 681 l 1
 616 781 l 1
769 781 m 1
 846 781 l 1
 846 681 l 1
 769 681 l 1
 769 781 l 1
77 581 m 1
 153 581 l 1
 153 482 l 1
 77 482 l 1
 77 581 l 1
230 581 m 1
 307 581 l 1
 307 482 l 1
 230 482 l 1
 230 581 l 1
384 581 m 1
 461 581 l 1
 461 482 l 1
 384 482 l 1
 384 581 l 1
539 581 m 1
 616 581 l 1
 616 482 l 1
 539 482 l 1
 539 581 l 1
692 581 m 1
 769 581 l 1
 769 482 l 1
 692 482 l 1
 692 581 l 1
846 581 m 1
 922 581 l 1
 922 482 l 1
 846 482 l 1
 846 581 l 1
0 382 m 1
 77 382 l 1
 77 283 l 1
 0 283 l 1
 0 382 l 1
307 382 m 1
 384 382 l 1
 384 283 l 1
 307 283 l 1
 307 382 l 1
461 382 m 1
 539 382 l 1
 539 283 l 1
 461 283 l 1
 461 382 l 1
616 382 m 1
 692 382 l 1
 692 283 l 1
 616 283 l 1
 616 382 l 1
769 382 m 1
 846 382 l 1
 846 283 l 1
 769 283 l 1
 769 382 l 1
153 382 m 1
 230 382 l 1
 230 283 l 1
 153 283 l 1
 153 382 l 1
846 183 m 1
 922 183 l 1
 922 83 l 1
 846 83 l 1
 846 183 l 1
692 183 m 1
 769 183 l 1
 769 83 l 1
 692 83 l 1
 692 183 l 1
539 183 m 1
 616 183 l 1
 616 83 l 1
 539 83 l 1
 539 183 l 1
384 183 m 1
 461 183 l 1
 461 83 l 1
 384 83 l 1
 384 183 l 1
230 183 m 1
 307 183 l 1
 307 83 l 1
 230 83 l 1
 230 183 l 1
77 183 m 1
 153 183 l 1
 153 83 l 1
 77 83 l 1
 77 183 l 1
0 -16 m 1
 77 -16 l 1
 77 -115 l 1
 0 -115 l 1
 0 -16 l 1
153 -16 m 1
 230 -16 l 1
 230 -115 l 1
 153 -115 l 1
 153 -16 l 1
307 -16 m 1
 384 -16 l 1
 384 -115 l 1
 307 -115 l 1
 307 -16 l 1
461 -16 m 1
 539 -16 l 1
 539 -115 l 1
 461 -115 l 1
 461 -16 l 1
616 -16 m 1
 692 -16 l 1
 692 -115 l 1
 616 -115 l 1
 616 -16 l 1
769 -16 m 1
 846 -16 l 1
 846 -115 l 1
 769 -115 l 1
 769 -16 l 1
846 -215 m 1
 922 -215 l 1
 922 -315 l 1
 846 -315 l 1
 846 -215 l 1
692 -215 m 1
 769 -215 l 1
 769 -315 l 1
 692 -315 l 1
 692 -215 l 1
539 -215 m 1
 616 -215 l 1
 616 -315 l 1
 539 -315 l 1
 539 -215 l 1
384 -215 m 1
 461 -215 l 1
 461 -315 l 1
 384 -315 l 1
 384 -215 l 1
230 -215 m 1
 307 -215 l 1
 307 -315 l 1
 230 -315 l 1
 230 -215 l 1
77 -215 m 1
 153 -215 l 1
 153 -315 l 1
 77 -315 l 1
 77 -215 l 1
0 -414 m 1
 77 -414 l 1
 77 -514 l 1
 0 -514 l 1
 0 -414 l 1
153 -414 m 1
 230 -414 l 1
 230 -514 l 1
 153 -514 l 1
 153 -414 l 1
307 -414 m 1
 384 -414 l 1
 384 -514 l 1
 307 -514 l 1
 307 -414 l 1
461 -414 m 1
 539 -414 l 1
 539 -514 l 1
 461 -514 l 1
 461 -414 l 1
616 -414 m 1
 692 -414 l 1
 692 -514 l 1
 616 -514 l 1
 616 -414 l 1
769 -414 m 1
 846 -414 l 1
 846 -514 l 1
 769 -514 l 1
 769 -414 l 1
0 1577 m 1
 77 1577 l 1
 77 1477 l 1
 0 1477 l 1
 0 1577 l 1
153 1577 m 1
 230 1577 l 1
 230 1477 l 1
 153 1477 l 1
 153 1577 l 1
307 1577 m 1
 384 1577 l 1
 384 1477 l 1
 307 1477 l 1
 307 1577 l 1
461 1577 m 1
 539 1577 l 1
 539 1477 l 1
 461 1477 l 1
 461 1577 l 1
616 1577 m 1
 692 1577 l 1
 692 1477 l 1
 616 1477 l 1
 616 1577 l 1
769 1577 m 1
 846 1577 l 1
 846 1477 l 1
 769 1477 l 1
 769 1577 l 1
77 1775 m 1
 153 1775 l 1
 153 1677 l 1
 77 1677 l 1
 77 1775 l 1
230 1775 m 1
 307 1775 l 1
 307 1677 l 1
 230 1677 l 1
 230 1775 l 1
384 1775 m 1
 461 1775 l 1
 461 1677 l 1
 384 1677 l 1
 384 1775 l 1
539 1775 m 1
 616 1775 l 1
 616 1677 l 1
 539 1677 l 1
 539 1775 l 1
692 1775 m 1
 769 1775 l 1
 769 1677 l 1
 692 1677 l 1
 692 1775 l 1
846 1775 m 1
 922 1775 l 1
 922 1677 l 1
 846 1677 l 1
 846 1775 l 1
EndSplineSet
EndChar

StartChar: shadedark
Encoding: 9619 9619 575
Width: 922
Flags: W
HStem: -615 300<0 77 153 230 307 384 461 539 616 692 769 846> -615 101<77 153 230 307 384 461 539 616 692 769 846 922> -414 299<77 153 230 307 384 461 539 616 692 769 846 922> -215 299<0 77 153 230 307 384 461 539 616 692 769 846> -16 299<77 153 230 307 384 461 539 616 692 769 846 922> 183 299<0 77 153 230 307 384 461 539 616 692 769 846> 382 299<77 153 230 307 384 461 539 616 692 769 846 922> 581 299<0 77 153 230 307 384 461 539 616 692 769 846> 781 299<77 153 230 307 384 461 539 616 692 769 846 922> 980 299<0 77 153 230 307 384 461 539 616 692 769 846> 1179 299<77 153 230 307 384 461 539 616 692 769 846 922> 1378 299<0 77 153 230 307 384 461 539 616 692 769 846> 1577 198<77 153 230 307 384 461 539 616 692 769 846 922>
VStem: 0 77<-514 -414 -115 -16 283 382 681 781 1080 1179 1478 1577> 77 76<-315 -215 84 183 482 581 881 980 1279 1378 1677 1775> 153 77<-514 -414 -115 -16 283 382 681 781 1080 1179 1478 1577> 230 77<-315 -215 84 183 482 581 880 980 1279 1378 1677 1775> 307 77<-514 -414 -115 -16 283 382 681 781 1080 1179 1478 1577> 384 77<-315 -215 84 183 482 581 880 980 1279 1378 1677 1775> 461 78<-514 -414 -115 -16 283 382 681 781 1080 1179 1478 1577> 539 77<-315 -215 84 183 482 581 880 980 1279 1378 1677 1775> 616 76<-514 -414 -115 -16 283 382 681 781 1080 1179 1478 1577> 692 77<-315 -215 84 183 482 581 880 980 1279 1378 1677 1775> 769 77<-514 -414 -115 -16 283 382 681 781 1080 1179 1478 1577> 846 76<-315 -215 84 183 482 581 880 980 1279 1378 1677 1775>
LayerCount: 2
Fore
SplineSet
922 1577 m 1x000fff80
 846 1577 l 1
 846 1478 l 1
 922 1478 l 1
 922 1179 l 1
 846 1179 l 1
 846 1080 l 1
 922 1080 l 1
 922 781 l 1
 846 781 l 1
 846 681 l 1
 922 681 l 1
 922 382 l 1
 846 382 l 1
 846 283 l 1
 922 283 l 1
 922 -16 l 1
 846 -16 l 1
 846 -115 l 1
 922 -115 l 1
 922 -414 l 1
 846 -414 l 1
 846 -514 l 1
 922 -514 l 1
 922 -615 l 1x6aafff80
 0 -615 l 1
 0 -315 l 1
 77 -315 l 1
 77 -215 l 1
 0 -215 l 1
 0 83 l 1
 77 83 l 1
 77 183 l 1
 0 183 l 1
 0 482 l 1
 77 482 l 1
 77 581 l 1
 0 581 l 1
 0 881 l 1
 77 881 l 1
 77 980 l 1
 0 980 l 1
 0 1279 l 1
 77 1279 l 1
 77 1378 l 1
 0 1378 l 1
 0 1677 l 1
 77 1677 l 1x9557ff80
 77 1775 l 1
 153 1775 l 1x000fff80
 153 1677 l 1
 230 1677 l 1x0017ff80
 230 1775 l 1
 307 1775 l 1x000fff80
 307 1677 l 1
 384 1677 l 1x0017ff80
 384 1775 l 1
 461 1775 l 1x000fff80
 461 1677 l 1
 539 1677 l 1x0017ff80
 539 1775 l 1
 616 1775 l 1x000fff80
 616 1677 l 1
 692 1677 l 1x0017ff80
 692 1775 l 1
 769 1775 l 1x000fff80
 769 1677 l 1
 846 1677 l 1x0017ff80
 846 1775 l 1
 922 1775 l 1
 922 1577 l 1x000fff80
77 1179 m 1
 77 1080 l 1
 153 1080 l 1
 153 1179 l 1
 77 1179 l 1
230 1179 m 1
 230 1080 l 1
 307 1080 l 1
 307 1179 l 1
 230 1179 l 1
384 1179 m 1
 384 1080 l 1
 461 1080 l 1
 461 1179 l 1
 384 1179 l 1
539 1179 m 1
 539 1080 l 1
 616 1080 l 1
 616 1179 l 1
 539 1179 l 1
692 1179 m 1
 692 1080 l 1
 769 1080 l 1
 769 1179 l 1
 692 1179 l 1
846 980 m 1x0147ff80
 769 980 l 1
 769 880 l 1
 846 880 l 1
 846 980 l 1x0147ff80
692 980 m 1
 616 980 l 1
 616 880 l 1
 692 880 l 1
 692 980 l 1
539 980 m 1
 461 980 l 1
 461 880 l 1
 539 880 l 1
 539 980 l 1
384 980 m 1
 307 980 l 1
 307 880 l 1
 384 880 l 1
 384 980 l 1
230 980 m 1
 153 980 l 1
 153 880 l 1
 230 880 l 1
 230 980 l 1
77 781 m 1x0287ff80
 77 681 l 1
 153 681 l 1
 153 781 l 1
 77 781 l 1x0287ff80
230 781 m 1
 230 681 l 1
 307 681 l 1
 307 781 l 1
 230 781 l 1
384 781 m 1
 384 681 l 1
 461 681 l 1
 461 781 l 1
 384 781 l 1
539 781 m 1
 539 681 l 1
 616 681 l 1
 616 781 l 1
 539 781 l 1
692 781 m 1
 692 681 l 1
 769 681 l 1
 769 781 l 1
 692 781 l 1
230 581 m 1x0507ff80
 153 581 l 1
 153 482 l 1
 230 482 l 1
 230 581 l 1x0507ff80
307 581 m 1
 307 482 l 1
 384 482 l 1
 384 581 l 1
 307 581 l 1
461 581 m 1
 461 482 l 1
 539 482 l 1
 539 581 l 1
 461 581 l 1
616 581 m 1
 616 482 l 1
 692 482 l 1
 692 581 l 1
 616 581 l 1
769 581 m 1
 769 482 l 1
 846 482 l 1
 846 581 l 1
 769 581 l 1
77 382 m 1x0a07ff80
 77 283 l 1
 153 283 l 1
 153 382 l 1
 77 382 l 1x0a07ff80
384 382 m 1
 384 283 l 1
 461 283 l 1
 461 382 l 1
 384 382 l 1
307 283 m 1
 307 382 l 1
 230 382 l 1
 230 283 l 1
 307 283 l 1
539 382 m 1
 539 283 l 1
 616 283 l 1
 616 382 l 1
 539 382 l 1
692 382 m 1
 692 283 l 1
 769 283 l 1
 769 382 l 1
 692 382 l 1
846 84 m 1x1407ff80
 846 183 l 1
 769 183 l 1
 769 84 l 1
 846 84 l 1x1407ff80
692 84 m 1
 692 183 l 1
 616 183 l 1
 616 84 l 1
 692 84 l 1
539 84 m 1
 539 183 l 1
 461 183 l 1
 461 84 l 1
 539 84 l 1
384 84 m 1
 384 183 l 1
 307 183 l 1
 307 84 l 1
 384 84 l 1
230 84 m 1
 230 183 l 1
 153 183 l 1
 153 84 l 1
 230 84 l 1
77 -16 m 1x2807ff80
 77 -115 l 1
 153 -115 l 1
 153 -16 l 1
 77 -16 l 1x2807ff80
230 -16 m 1
 230 -115 l 1
 307 -115 l 1
 307 -16 l 1
 230 -16 l 1
384 -16 m 1
 384 -115 l 1
 461 -115 l 1
 461 -16 l 1
 384 -16 l 1
539 -16 m 1
 539 -115 l 1
 616 -115 l 1
 616 -16 l 1
 539 -16 l 1
692 -16 m 1
 692 -115 l 1
 769 -115 l 1
 769 -16 l 1
 692 -16 l 1
846 -315 m 1x9007ff80
 846 -215 l 1
 769 -215 l 1
 769 -315 l 1
 846 -315 l 1x9007ff80
692 -315 m 1
 692 -215 l 1
 616 -215 l 1
 616 -315 l 1
 692 -315 l 1
539 -315 m 1
 539 -215 l 1
 461 -215 l 1
 461 -315 l 1
 539 -315 l 1
384 -315 m 1
 384 -215 l 1
 307 -215 l 1
 307 -315 l 1
 384 -315 l 1
230 -315 m 1
 230 -215 l 1
 153 -215 l 1
 153 -315 l 1
 230 -315 l 1
77 -414 m 1x6007ff80
 77 -514 l 1
 153 -514 l 1
 153 -414 l 1
 77 -414 l 1x6007ff80
230 -414 m 1
 230 -514 l 1
 307 -514 l 1
 307 -414 l 1
 230 -414 l 1
384 -414 m 1
 384 -514 l 1
 461 -514 l 1
 461 -414 l 1
 384 -414 l 1
539 -414 m 1
 539 -514 l 1
 616 -514 l 1
 616 -414 l 1
 539 -414 l 1
692 -414 m 1
 692 -514 l 1
 769 -514 l 1
 769 -414 l 1
 692 -414 l 1
846 1378 m 1x0057ff80
 769 1378 l 1
 769 1279 l 1
 846 1279 l 1
 846 1378 l 1x0057ff80
692 1378 m 1
 616 1378 l 1
 616 1279 l 1
 692 1279 l 1
 692 1378 l 1
539 1378 m 1
 461 1378 l 1
 461 1279 l 1
 539 1279 l 1
 539 1378 l 1
384 1378 m 1
 307 1378 l 1
 307 1279 l 1
 384 1279 l 1
 384 1378 l 1
230 1378 m 1
 153 1378 l 1
 153 1279 l 1
 230 1279 l 1
 230 1378 l 1
769 1577 m 1x002fff80
 692 1577 l 1
 692 1478 l 1
 769 1478 l 1
 769 1577 l 1x002fff80
616 1577 m 1
 539 1577 l 1
 539 1478 l 1
 616 1478 l 1
 616 1577 l 1
461 1577 m 1
 384 1577 l 1
 384 1478 l 1
 461 1478 l 1
 461 1577 l 1
307 1577 m 1
 230 1577 l 1
 230 1478 l 1
 307 1478 l 1
 307 1577 l 1
153 1577 m 1
 77 1577 l 1
 77 1478 l 1
 153 1478 l 1
 153 1577 l 1
EndSplineSet
EndChar

StartChar: blacksquare
Encoding: 9632 9632 576
Width: 922
Flags: W
HStem: 116.375 992.245<0 922>
VStem: 0 922<116.375 1108.62>
LayerCount: 2
Fore
SplineSet
0 1108.62 m 5
 922 1108.62 l 5
 922 116.375 l 5
 0 116.375 l 5
 0 1108.62 l 5
EndSplineSet
Validated: 3073
EndChar

StartChar: whitesquare
Encoding: 9633 9633 577
Width: 922
Flags: W
HStem: 116 192<187 734> 917 192<187 734>
VStem: 0 187<308 917> 734 188<308 917>
LayerCount: 2
Fore
SplineSet
0 1109 m 1
 922 1109 l 1
 922 116 l 1
 0 116 l 1
 0 1109 l 1
187 917 m 1
 187 308 l 1
 734 308 l 1
 734 917 l 1
 187 917 l 1
EndSplineSet
Validated: 3073
EndChar

StartChar: blacksmallsquare
Encoding: 9642 9642 578
Width: 922
Flags: W
HStem: 400 473<224 697>
VStem: 224 473<400 873>
LayerCount: 2
Fore
SplineSet
697 400 m 1
 224 400 l 1
 224 873 l 1
 697 873 l 1
 697 400 l 1
EndSplineSet
Validated: 3073
EndChar

StartChar: whitesmallsquare
Encoding: 9643 9643 579
Width: 922
Flags: W
HStem: 400 114<342 579> 759 114<342 579>
VStem: 224 118<514 759> 579 118<514 759>
LayerCount: 2
Fore
SplineSet
697 400 m 1
 224 400 l 1
 224 873 l 1
 697 873 l 1
 697 400 l 1
579 514 m 1
 579 759 l 1
 342 759 l 1
 342 514 l 1
 579 514 l 1
EndSplineSet
Validated: 3073
EndChar

StartChar: blackrectangle
Encoding: 9644 9644 580
Width: 922
Flags: W
HStem: 395 231<0 922>
LayerCount: 2
Fore
SplineSet
0 626 m 1
 922 626 l 5
 922 395 l 5
 0 395 l 1
 0 626 l 1
EndSplineSet
Validated: 3073
EndChar

StartChar: triagup
Encoding: 9650 9650 581
Width: 922
Flags: W
LayerCount: 2
Fore
SplineSet
0 114 m 1
 460 914 l 1
 922 114 l 1
 0 114 l 1
EndSplineSet
Validated: 3073
EndChar

StartChar: triagrt
Encoding: 9658 9658 582
Width: 922
Flags: W
LayerCount: 2
Fore
SplineSet
63 -63 m 1
 61 860 l 1
 861 398 l 1
 63 -63 l 1
EndSplineSet
Validated: 3073
EndChar

StartChar: triagdn
Encoding: 9660 9660 583
Width: 922
Flags: W
LayerCount: 2
Fore
SplineSet
922 914 m 1
 462 114 l 1
 0 914 l 1
 922 914 l 1
EndSplineSet
Validated: 3073
EndChar

StartChar: triaglf
Encoding: 9668 9668 584
Width: 922
Flags: W
LayerCount: 2
Fore
SplineSet
62 398 m 1
 860 861 l 1
 860 -63 l 1
 62 398 l 1
EndSplineSet
Validated: 3073
EndChar

StartChar: lozenge
Encoding: 9674 9674 585
Width: 922
Flags: W
DStem2: 261 710 89 709 0.489251 -0.872143<0 400.76> 89 709 261 710 0.486669 0.873586<84.5807 485.336> 501 1287 458 1059 0.499203 -0.866485<176.093 577.838> 458 361 501 135 0.501808 0.864979<0 401.737>
LayerCount: 2
Fore
SplineSet
501 1287 m 1
 834 709 l 1
 501 135 l 1
 411 135 l 1
 89 709 l 1
 411 1287 l 1
 501 1287 l 1
458 1059 m 1
 261 710 l 1
 458 361 l 1
 657 710 l 1
 458 1059 l 1
EndSplineSet
Validated: 3073
EndChar

StartChar: whitecircle
Encoding: 9675 9675 586
Width: 922
Flags: W
HStem: 221 150<334.35 586.595> 784 150<333.91 587.132>
VStem: 104 150<452.439 703.668> 668 150<451.815 701.975>
LayerCount: 2
Fore
SplineSet
461 934 m 0
 663 934 818 770 818 578 c 0
 818 377 658 221 461 221 c 0
 258 221 104 381 104 578 c 0
 104 763 251 934 461 934 c 0
461 784 m 0
 341 784 254 688 254 578 c 0
 254 453 355 371 461 371 c 256
 577 371 668 463 668 578 c 0
 668 683 584 784 461 784 c 0
EndSplineSet
Validated: 3073
EndChar

StartChar: blackcircle
Encoding: 9679 9679 587
Width: 922
Flags: W
HStem: 221 713<292.824 631.094>
VStem: 104 714<407.906 745.646>
LayerCount: 2
Fore
SplineSet
461 934 m 0
 663 934 818 770 818 578 c 0
 818 377 658 221 461 221 c 0
 258 221 104 381 104 578 c 0
 104 763 251 934 461 934 c 0
EndSplineSet
Validated: 3073
EndChar

StartChar: bulletinverse
Encoding: 9688 9688 588
Width: 922
Flags: W
HStem: 93.0996 233.28<349.727 573.114> 653.62 233.28<348.385 573.674>
VStem: 63 234<377.921 601.629> 624 233<379.634 603.318>
LayerCount: 2
Fore
SplineSet
63 93.0996 m 1
 63 886.9 l 1
 857 886.9 l 1
 857 93.0996 l 1
 63 93.0996 l 1
460 653.62 m 256
 372.166 653.62 297 584.433 297 490 c 0
 297 394.433 375.638 326.38 460 326.38 c 0
 550.48 326.38 624 398.748 624 490 c 0
 624 581.479 551.93 653.62 460 653.62 c 256
EndSplineSet
Validated: 3073
EndChar

StartChar: whitecircleinverse
Encoding: 9689 9689 589
Width: 922
Flags: W
HStem: 110 111<289.809 635.959> 371 413<335.607 588.433> 934 111<293.797 632.866>
VStem: 0 105<406.695 749.753> 255 413<448.029 702.431> 818 104<402.264 747.094>
CounterMasks: 1 e0
LayerCount: 2
Fore
SplineSet
0 110 m 1
 0 1045 l 1
 922 1045 l 1
 922 110 l 1
 0 110 l 1
461 934 m 0
 270 934 105 780 105 577 c 0
 105 379 261 221 461 221 c 0
 652 221 818 369 818 577 c 0
 818 774 662 934 461 934 c 0
462 784 m 0
 577 784 668 691 668 577 c 0
 668 459 574 371 462 371 c 0
 349 371 255 459 255 577 c 0
 255 695 351 784 462 784 c 0
EndSplineSet
Validated: 3073
EndChar

StartChar: whitebullet
Encoding: 9702 9702 590
Width: 922
Flags: W
HStem: 406 113<368.896 552.757> 754 113<368.685 552.223>
VStem: 230 113<545.062 727.979> 579 112<546.84 727.446>
LayerCount: 2
Fore
SplineSet
691 637 m 0
 691 499 580 406 460 406 c 256
 333 406 230 507 230 637 c 0
 230 765 332 867 460 867 c 0
 591 867 691 764 691 637 c 0
579 637 m 0
 579 705 524 754 460 754 c 256
 399 754 343 707 343 637 c 0
 343 566 399 519 460 519 c 256
 526 519 579 571 579 637 c 0
EndSplineSet
Validated: 3073
EndChar

StartChar: smileface
Encoding: 9786 9786 591
Width: 922
Flags: W
HStem: 124 126<298.564 622.839> 338 54<371.617 548.201> 608 114<255.697 366.296 555.643 665.674> 919 126<293.127 624.394>
VStem: -0 127<417.754 749.129> 254 114<609.589 720.417> 554 113<609.487 720.519> 795 126<419.528 752.828>
LayerCount: 2
Fore
SplineSet
921 584 m 0
 921 327 719 124 460 124 c 0
 202 124 -0 329 -0 584 c 0
 -0 850 212 1045 460 1045 c 0
 719 1045 921 841 921 584 c 0
795 584 m 0
 795 771 649 919 460 919 c 0
 272 919 127 770 127 584 c 0
 127 390 282 250 460 250 c 0
 642 250 795 392 795 584 c 0
368 666 m 256
 368 634 343 608 310 608 c 256
 278 608 254 636 254 666 c 256
 254 694 277 722 310 722 c 256
 344 722 368 695 368 666 c 256
667 666 m 256
 667 634 644 608 612 608 c 256
 578 608 554 634 554 666 c 256
 554 696 577 722 612 722 c 256
 644 722 667 696 667 666 c 256
280 458 m 1
 319 480 l 1
 351 422 398 392 460 392 c 256
 523 392 570 422 602 480 c 1
 641 458 l 1
 600 378 539 338 460 338 c 0
 363 338 310 401 280 458 c 1
EndSplineSet
Validated: 3073
EndChar

StartChar: invsmileface
Encoding: 9787 9787 592
Width: 922
Flags: W
HStem: 124 171<330.15 591.942> 738 307<261.901 501.505 421.958 661.515>
VStem: -0 226<494.273 736.313> 343 236<622.894 736.048> 695 226<493.852 734.781>
LayerCount: 2
Fore
SplineSet
921 584 m 0
 921 327 719 124 460 124 c 0
 202 124 -0 329 -0 584 c 0
 -0 850 212 1045 460 1045 c 0
 719 1045 921 841 921 584 c 0
343 680 m 256
 343 710 318 738 284 738 c 256
 250 738 226 709 226 680 c 256
 226 650 251 621 284 621 c 256
 317 621 343 648 343 680 c 256
695 680 m 256
 695 711 672 738 638 738 c 256
 603 738 579 711 579 680 c 256
 579 648 604 621 638 621 c 256
 671 621 695 648 695 680 c 256
248 436 m 1
 283 369 346 295 460 295 c 0
 575 295 637 368 673 436 c 1
 627 462 l 1
 589 393 534 358 460 358 c 256
 387 358 332 393 294 462 c 1
 248 436 l 1
EndSplineSet
Validated: 3073
EndChar

